<?xml version="1.0" encoding="UTF-8"?>
<svg xmlns="http://www.w3.org/2000/svg" xmlns:xlink="http://www.w3.org/1999/xlink" version="1.2" >
<font id="Times New Roman MT Condensed">
<font-face  font-family="Times New Roman MT" units-per-em="1000" ascent="750" descent="-250" font-style="normal" font-weight="400" font-stretch="condensed" cap-height="750" x-height="500" underline-position="-75" underline-thickness="50" />
<missing-glyph  horiz-adv-x="190" d="" />
<glyph glyph-name="NULL" d="" />
<glyph glyph-name="CR" unicode="&#xd;" horiz-adv-x="250" d="" />
<glyph glyph-name="space" unicode="&#x20;" horiz-adv-x="190" d="" />
<glyph glyph-name="exclam" unicode="&#x21;" horiz-adv-x="250" d="M133 184 C131 314 179 522 179 627 C179 671 160 697 126 697 C90 697 71 669 71 618 C71 552 112 318 116 184 L133 184 Z M125 97 C95 97 70 73 70 43 C70 13 95 -12 125 -12 C155 -12 179 13 179 43 C179 73 155 97 125 97 L125 97 Z " />
<glyph glyph-name="quotedbl" unicode="&#x22;" horiz-adv-x="408" d="M282 412 L303 412 L333 572 C336 586 343 627 343 644 C343 676 322 697 292 697 C261 697 245 676 245 637 C245 619 250 587 254 567 L282 412 Z M103 412 L124 412 L154 572 C157 586 164 627 164 644 C164 676 143 697 113 697 C82 697 66 676 66 637 C66 619 71 587 75 567 L103 412 Z " />
<glyph glyph-name="numbersign" unicode="&#x23;" horiz-adv-x="668" d="M205 491 L44 491 L44 431 L192 431 L154 250 L44 250 L44 190 L141 190 L100 -6 L160 -6 L201 190 L406 190 L365 -6 L425 -6 L466 190 L624 190 L624 250 L479 250 L517 431 L624 431 L624 491 L530 491 L571 688 L511 688 L470 491 L265 491 L306 688 L246 688 L205 491 Z M457 431 L419 250 L214 250 L252 431 L457 431 Z " />
<glyph glyph-name="dollar" unicode="&#x24;" horiz-adv-x="448" d="M202 -70 L233 -70 L233 -11 C341 0 412 71 412 165 C412 236 383 278 233 394 L233 637 C306 630 362 584 369 477 L387 477 L387 625 C338 653 294 666 233 668 L233 713 L202 713 L202 668 C106 662 39 598 39 515 C39 460 61 410 202 307 L202 19 C124 28 77 77 55 172 L38 172 L38 31 C93 4 149 -10 202 -11 L202 -70 Z M202 418 C136 469 115 504 115 543 C115 590 148 625 202 636 L202 418 Z M233 283 C311 220 335 184 335 133 C335 74 297 32 233 20 L233 283 Z " />
<glyph glyph-name="percent" unicode="&#x25;" horiz-adv-x="708" d="M517 177 C517 279 536 338 568 338 C601 338 620 278 620 177 C620 75 601 16 568 16 C536 16 517 75 517 177 L517 177 Z M174 -6 L574 693 L535 693 L134 -6 L174 -6 Z M88 510 C88 612 107 671 139 671 C172 671 191 611 191 510 C191 408 172 349 139 349 C107 349 88 408 88 510 L88 510 Z M449 177 C449 72 500 -6 568 -6 C637 -6 688 72 688 177 C688 282 637 360 568 360 C500 360 449 282 449 177 L449 177 Z M20 510 C20 405 71 327 139 327 C208 327 259 405 259 510 C259 615 208 693 139 693 C71 693 20 615 20 510 L20 510 Z " />
<glyph glyph-name="ampersand" unicode="&#x26;" horiz-adv-x="594" d="M22 148 C22 52 79 -15 161 -15 C218 -15 263 11 323 80 C368 16 411 -15 456 -15 C512 -15 556 35 578 124 L561 129 C544 78 523 57 491 57 C455 57 423 88 383 160 C460 287 476 375 506 405 C514 413 529 423 551 424 L551 441 L390 441 L390 424 C416 421 427 405 427 375 C427 331 407 273 364 194 C325 264 290 343 271 399 C360 459 397 513 397 580 C397 650 350 697 282 697 C200 697 145 632 145 536 C145 486 154 444 179 377 C57 302 22 223 22 148 L22 148 Z M259 433 C237 489 226 535 226 579 C226 630 249 662 285 662 C321 662 343 631 343 581 C343 518 319 475 259 433 L259 433 Z M190 346 C222 263 278 148 304 110 C274 76 239 56 208 56 C154 56 102 129 102 204 C102 258 124 297 190 346 L190 346 Z " />
<glyph glyph-name="quotesingle" unicode="&#x27;" horiz-adv-x="180" d="M78 412 L99 412 L129 572 C132 586 139 627 139 644 C139 676 118 697 88 697 C57 697 41 676 41 637 C41 619 46 587 50 567 L78 412 Z " />
<glyph glyph-name="parenleft" unicode="&#x28;" horiz-adv-x="292" d="M279 713 C128 609 48 448 48 249 C48 49 127 -109 279 -215 L279 -193 C172 -99 141 42 141 250 C141 460 172 602 279 693 L279 713 Z " />
<glyph glyph-name="parenright" unicode="&#x29;" horiz-adv-x="292" d="M13 -215 C164 -111 244 50 244 249 C244 449 165 607 13 713 L13 691 C120 597 151 456 151 248 C151 38 120 -104 13 -195 L13 -215 Z " />
<glyph glyph-name="asterisk" unicode="&#x2a;" horiz-adv-x="344" d="M60 645 C40 645 24 630 24 611 C24 559 117 571 154 545 C125 522 24 534 24 479 C24 460 40 445 60 445 C105 445 124 516 163 529 C164 493 136 456 136 417 C136 394 152 377 172 377 C192 377 207 394 207 417 C207 437 200 456 192 474 C185 493 178 512 179 530 C227 505 238 445 282 445 C303 445 319 460 319 479 C319 536 212 523 187 545 C216 569 319 558 319 611 C319 631 303 645 281 645 C233 645 224 582 179 560 C174 595 207 630 207 673 C207 696 192 713 172 713 C152 713 136 696 136 673 C136 656 143 636 150 616 C156 596 163 577 163 560 C118 581 107 645 60 645 L60 645 Z " />
<glyph glyph-name="plus" unicode="&#x2b;" horiz-adv-x="667" d="M68 372 L68 308 L301 308 L301 75 L365 75 L365 308 L598 308 L598 372 L365 372 L365 605 L301 605 L301 372 L68 372 Z " />
<glyph glyph-name="comma" unicode="&#x2c;" horiz-adv-x="250" d="M62 -168 C146 -136 195 -75 195 -1 C195 56 162 97 115 97 C81 97 55 72 55 38 C55 8 77 -17 105 -17 C117 -17 124 -13 130 -8 C136 -4 141 0 146 0 C154 0 159 -10 159 -25 C159 -71 125 -115 62 -150 L62 -168 Z " />
<glyph glyph-name="hyphen" unicode="&#x2d;" horiz-adv-x="292" d="M33 193 L259 193 L259 271 L33 271 L33 193 Z " />
<glyph glyph-name="period" unicode="&#x2e;" horiz-adv-x="250" d="M125 97 C95 97 70 73 70 43 C70 13 95 -12 125 -12 C155 -12 179 13 179 43 C179 73 155 97 125 97 L125 97 Z " />
<glyph glyph-name="slash" unicode="&#x2f;" horiz-adv-x="281" d="M214 713 L0 0 L67 0 L281 713 L214 713 Z " />
<glyph glyph-name="zero" unicode="0" horiz-adv-x="448" d="M31 342 C31 142 116 -12 226 -12 C317 -12 416 102 416 329 C416 538 336 693 228 693 C139 693 31 590 31 342 L31 342 Z M126 333 C126 571 160 663 224 663 C305 663 321 494 321 330 C321 118 291 18 228 18 C140 18 126 212 126 333 L126 333 Z " />
<glyph glyph-name="one" unicode="1" horiz-adv-x="448" d="M270 693 L253 693 L112 611 L119 596 C128 603 143 611 154 611 C177 611 186 592 186 544 L186 92 C186 43 169 18 119 17 L119 0 L339 0 L339 17 C289 17 270 40 270 94 L270 693 Z " />
<glyph glyph-name="two" unicode="2" horiz-adv-x="448" d="M423 124 L404 124 C380 87 355 73 321 73 L106 73 C321 297 384 424 384 519 C384 617 312 693 219 693 C130 693 64 621 50 510 L68 510 C81 577 121 615 179 615 C251 615 299 559 299 473 C299 371 239 262 142 151 L25 17 L25 0 L377 0 L423 124 Z " />
<glyph glyph-name="three" unicode="3" horiz-adv-x="448" d="M150 340 C275 339 313 239 313 166 C313 86 274 32 217 32 C154 32 135 79 88 79 C65 79 47 63 47 43 C47 10 90 -12 153 -12 C284 -12 385 89 385 218 C385 302 343 375 276 405 C328 450 354 500 354 555 C354 635 298 693 221 693 C148 693 95 644 65 550 L79 544 C108 599 142 625 184 625 C237 625 276 574 276 505 C276 430 230 375 150 356 L150 340 Z " />
<glyph glyph-name="four" unicode="4" horiz-adv-x="448" d="M258 171 L258 0 L342 0 L342 171 L415 171 L415 246 L342 246 L342 693 L291 693 L20 251 L20 171 L258 171 Z M258 246 L60 246 L256 572 L258 572 L258 246 Z " />
<glyph glyph-name="five" unicode="5" horiz-adv-x="448" d="M188 682 L87 426 C238 422 327 310 327 199 C327 118 285 37 213 37 C167 37 141 89 99 89 C77 89 61 74 61 53 C61 17 109 -12 169 -12 C319 -12 390 147 390 246 C390 384 299 486 158 507 L196 604 L365 604 L402 682 L188 682 Z " />
<glyph glyph-name="six" unicode="6" horiz-adv-x="448" d="M398 693 C227 704 43 532 43 273 C43 103 120 -12 234 -12 C355 -12 417 121 417 240 C417 347 351 427 263 427 C219 427 180 410 148 377 L146 379 C179 549 278 667 398 675 L398 693 Z M141 342 C169 369 197 382 227 382 C291 382 330 301 330 167 C330 74 300 21 246 21 C176 21 136 107 136 257 C136 292 137 313 141 342 L141 342 Z " />
<glyph glyph-name="seven" unicode="7" horiz-adv-x="448" d="M411 682 L93 682 L37 523 L53 518 C80 586 112 604 201 604 L332 604 L162 3 L214 -12 L411 682 Z " />
<glyph glyph-name="eight" unicode="8" horiz-adv-x="448" d="M167 347 C88 287 50 226 50 157 C50 61 125 -12 224 -12 C322 -12 398 65 398 164 C398 241 360 300 261 377 C349 437 383 485 383 545 C383 610 331 693 225 693 C126 693 58 628 58 534 C58 469 90 414 167 347 L167 347 Z M236 398 C152 468 127 520 127 565 C127 624 165 666 219 666 C275 666 314 618 314 549 C314 487 289 437 236 398 L236 398 Z M189 325 C299 236 331 191 331 126 C331 64 290 18 234 18 C165 18 122 78 122 172 C122 242 143 290 189 325 L189 325 Z " />
<glyph glyph-name="nine" unicode="9" horiz-adv-x="448" d="M50 -12 C145 -18 217 22 276 81 C367 172 406 289 406 408 C406 578 328 693 214 693 C95 693 31 564 31 441 C31 334 97 254 185 254 C229 254 268 271 300 304 L302 302 C269 131 170 14 50 6 L50 -12 Z M307 339 C279 312 251 299 221 299 C157 299 118 380 118 514 C118 607 148 660 202 660 C272 660 311 574 311 424 C311 388 311 368 307 339 L307 339 Z " />
<glyph glyph-name="colon" unicode="&#x3a;" horiz-adv-x="250" d="M125 471 C95 471 70 447 70 417 C70 387 95 362 125 362 C155 362 179 387 179 417 C179 447 155 471 125 471 L125 471 Z M125 97 C95 97 70 73 70 43 C70 13 95 -12 125 -12 C155 -12 179 13 179 43 C179 73 155 97 125 97 L125 97 Z " />
<glyph glyph-name="semicolon" unicode="&#x3b;" horiz-adv-x="250" d="M62 -168 C146 -136 195 -75 195 -1 C195 56 162 97 115 97 C81 97 55 72 55 38 C55 8 77 -17 105 -17 C117 -17 124 -13 130 -8 C136 -4 141 0 146 0 C154 0 159 -10 159 -25 C159 -71 125 -115 62 -150 L62 -168 Z M126 471 C96 471 71 447 71 417 C71 387 96 362 126 362 C156 362 180 387 180 417 C180 447 156 471 126 471 L126 471 Z " />
<glyph glyph-name="less" unicode="&#x3c;" horiz-adv-x="667" d="M598 88 L598 158 L154 340 L598 522 L598 592 L68 369 L68 311 L598 88 Z " />
<glyph glyph-name="equal" unicode="&#x3d;" horiz-adv-x="667" d="M68 259 L68 195 L598 195 L598 259 L68 259 Z M68 487 L68 423 L598 423 L598 487 L68 487 Z " />
<glyph glyph-name="greater" unicode="&#x3e;" horiz-adv-x="667" d="M69 88 L599 311 L599 369 L69 592 L69 522 L513 340 L69 158 L69 88 Z " />
<glyph glyph-name="question" unicode="&#x3f;" horiz-adv-x="344" d="M321 539 C321 629 255 697 167 697 C85 697 18 635 18 559 C18 515 44 481 77 481 C98 481 113 498 113 519 C113 558 77 571 77 608 C77 639 107 667 142 667 C195 667 228 613 228 525 C228 398 157 345 157 217 L157 167 L173 167 L173 207 C173 333 321 408 321 539 L321 539 Z M172 97 C142 97 117 73 117 43 C117 13 142 -12 172 -12 C202 -12 226 13 226 43 C226 73 202 97 172 97 L172 97 Z " />
<glyph glyph-name="at" unicode="&#x40;" horiz-adv-x="921" d="M690 466 L613 455 L598 401 L596 401 C591 424 586 434 575 446 C560 460 536 469 512 469 C397 469 243 274 243 127 C243 63 282 13 332 13 C384 13 447 52 522 152 L524 150 C518 117 516 101 516 80 C516 36 542 13 591 13 C778 13 860 224 860 358 C860 557 719 693 511 693 C252 693 49 483 49 215 C49 -34 230 -218 475 -218 C697 -218 855 -70 898 82 L870 82 C796 -91 655 -188 477 -188 C253 -188 95 -27 95 202 C95 435 255 667 514 667 C699 667 830 542 830 366 C830 191 717 48 623 48 C603 48 587 64 587 85 C587 105 593 133 603 166 L690 466 Z M519 446 C554 446 579 416 579 375 C579 301 541 193 468 120 C437 89 407 72 378 72 C347 72 321 103 321 142 C321 221 421 446 519 446 L519 446 Z " />
<glyph glyph-name="A" unicode="A" horiz-adv-x="594" d="M181 218 L353 218 L391 101 C399 75 401 67 401 56 C401 28 385 17 343 17 L343 0 L576 0 L576 17 C528 17 515 20 486 111 L298 697 L282 697 L107 111 C85 36 67 17 18 17 L18 0 L203 0 L203 17 C153 16 137 30 137 56 C137 63 139 73 142 86 L181 218 Z M341 256 L192 256 L262 499 L264 499 L341 256 Z " />
<glyph glyph-name="B" unicode="B" horiz-adv-x="542" d="M17 682 L17 665 C89 666 104 652 104 575 L104 108 C104 30 90 17 17 17 L17 0 L291 0 C429 0 516 69 516 183 C516 280 455 342 329 348 L329 350 C446 360 489 434 489 501 C489 604 397 682 258 682 L17 682 Z M198 641 C216 645 231 647 250 647 C336 647 390 593 390 505 C390 418 339 368 251 368 C233 368 219 370 198 374 L198 641 Z M198 328 C217 332 230 333 246 333 C339 333 404 270 404 179 C404 88 351 35 266 35 C242 35 224 38 198 48 L198 328 Z " />
<glyph glyph-name="C" unicode="C" horiz-adv-x="542" d="M497 697 L480 697 C476 666 470 655 457 655 C432 655 392 697 311 697 C146 697 24 538 24 322 C24 100 164 -15 304 -15 C404 -15 478 39 525 145 L509 153 C463 61 411 20 332 20 C212 20 136 109 136 320 C136 545 196 664 320 664 C415 664 482 589 491 472 L509 472 L497 697 Z " />
<glyph glyph-name="D" unicode="D" horiz-adv-x="646" d="M19 682 L19 665 C90 666 106 653 106 575 L106 108 C106 30 91 17 19 17 L19 0 L285 0 C467 0 617 127 617 338 C617 515 516 682 280 682 L19 682 Z M200 634 C231 644 250 647 278 647 C420 647 505 530 505 335 C505 143 425 31 286 31 C253 31 223 37 200 48 L200 634 Z " />
<glyph glyph-name="E" unicode="E" horiz-adv-x="542" d="M462 682 L15 682 L15 665 C91 667 102 647 102 575 L102 108 C102 29 86 16 15 17 L15 0 L465 0 L517 170 L500 175 C467 75 425 38 342 38 L244 38 C203 38 196 47 196 95 L196 339 L322 339 C380 339 401 316 400 241 L417 241 L417 479 L400 479 C401 402 380 377 304 377 L196 377 L196 644 L334 644 C412 644 443 633 454 534 L472 534 L462 682 Z " />
<glyph glyph-name="F" unicode="F" horiz-adv-x="542" d="M515 682 L22 682 L22 665 C97 665 108 653 108 575 L108 108 C108 34 96 16 22 17 L22 0 L294 0 L294 17 C216 16 202 31 202 108 L202 339 L329 339 C394 339 411 309 409 241 L426 241 L426 474 L409 474 C413 398 379 377 314 377 L202 377 L202 644 L396 644 C475 644 499 594 502 536 L520 536 L515 682 Z " />
<glyph glyph-name="G" unicode="G" horiz-adv-x="646" d="M529 697 L513 697 C512 667 505 653 488 653 C468 653 422 697 328 697 C140 697 29 506 29 327 C29 126 158 -15 340 -15 C417 -15 487 10 556 61 L556 260 C556 326 569 351 625 351 L625 368 L393 368 L393 351 C448 350 462 327 462 272 L462 70 C423 36 381 20 334 20 C194 20 141 184 141 340 C141 535 219 662 341 662 C428 662 514 598 524 482 L541 482 L529 697 Z " />
<glyph glyph-name="H" unicode="H" horiz-adv-x="646" d="M199 339 L443 339 L443 108 C443 34 430 15 355 17 L355 0 L627 0 L627 17 C554 16 537 29 537 108 L537 574 C537 656 557 666 627 665 L627 682 L355 682 L355 665 C428 666 443 653 443 574 L443 377 L199 377 L199 574 C199 653 217 666 286 665 L286 682 L18 682 L18 665 C87 668 105 652 105 574 L105 108 C105 32 89 15 18 17 L18 0 L286 0 L286 17 C213 15 199 33 199 108 L199 339 Z " />
<glyph glyph-name="I" unicode="I" horiz-adv-x="292" d="M15 682 L15 665 C82 665 99 652 99 575 L99 108 C99 34 84 16 15 17 L15 0 L277 0 L277 17 C214 17 193 25 193 108 L193 575 C193 652 210 666 277 665 L277 682 L15 682 Z " />
<glyph glyph-name="J" unicode="J" horiz-adv-x="344" d="M82 682 L82 665 C140 667 157 644 157 587 L157 92 C157 43 147 18 123 18 C109 18 102 28 102 43 C102 47 103 57 103 63 C103 95 87 116 60 116 C35 116 16 96 16 68 C16 24 61 -15 113 -15 C229 -15 251 109 251 187 L251 575 C251 647 267 665 324 665 L324 682 L82 682 Z " />
<glyph glyph-name="K" unicode="K" horiz-adv-x="646" d="M39 682 L39 665 C99 665 117 650 117 575 L117 108 C117 31 100 17 39 17 L39 0 L290 0 L290 17 C227 15 211 34 211 108 L211 343 L213 343 L411 79 C422 65 426 56 426 46 C426 28 413 16 378 17 L378 0 L646 0 L646 17 C597 17 569 26 540 64 L292 384 L433 562 C495 641 525 662 582 665 L582 682 L372 682 L372 665 C409 667 429 657 429 639 C429 624 420 607 388 567 L213 343 L211 343 L211 575 C211 648 226 666 290 665 L290 682 L39 682 Z " />
<glyph glyph-name="L" unicode="L" horiz-adv-x="542" d="M22 682 L22 665 C93 666 111 653 111 574 L111 107 C111 34 100 16 22 17 L22 0 L469 0 L518 180 L502 185 C463 62 434 38 326 38 L255 38 C213 38 205 47 205 92 L205 574 C205 654 222 666 294 665 L294 682 L22 682 Z " />
<glyph glyph-name="M" unicode="M" horiz-adv-x="740" d="M20 682 L20 665 C86 665 100 648 100 575 L100 108 C100 31 84 17 20 17 L20 0 L221 0 L221 17 C155 17 138 28 138 108 L138 555 L140 555 L342 0 L354 0 L558 567 L560 567 L560 108 C560 29 542 16 475 17 L475 0 L726 0 L726 17 C670 17 654 33 654 108 L654 575 C654 648 668 665 726 665 L726 682 L560 682 L378 179 L376 179 L194 682 L20 682 Z " />
<glyph glyph-name="N" unicode="N" horiz-adv-x="646" d="M11 682 L11 665 C41 665 57 660 75 635 L103 597 L103 93 C103 37 88 18 26 17 L26 0 L237 0 L237 17 C161 15 141 27 141 108 L141 542 L143 542 L531 -11 L545 -11 L545 594 C545 646 563 665 615 665 L615 682 L418 682 L418 665 C490 666 507 651 507 575 L507 190 L505 190 L159 682 L11 682 Z " />
<glyph glyph-name="O" unicode="O" horiz-adv-x="594" d="M27 341 C27 153 123 -15 297 -15 C479 -15 567 163 567 341 C567 516 480 697 297 697 C114 697 27 516 27 341 L27 341 Z M139 341 C139 551 180 662 297 662 C408 662 455 566 455 341 C455 145 422 20 297 20 C186 20 139 116 139 341 L139 341 Z " />
<glyph glyph-name="P" unicode="P" horiz-adv-x="542" d="M205 324 C248 308 279 303 317 303 C434 303 520 383 520 493 C520 605 428 682 292 682 L24 682 L24 665 C92 666 111 653 111 575 L111 108 C111 30 97 17 24 17 L24 0 L295 0 L295 17 C219 16 205 31 205 108 L205 324 Z M205 636 C225 644 242 647 264 647 C380 647 408 544 408 484 C408 399 355 342 276 342 C254 342 237 346 205 359 L205 636 Z " />
<glyph glyph-name="Q" unicode="Q" horiz-adv-x="594" d="M233 -8 C306 -109 436 -190 575 -194 L575 -177 C490 -166 418 -117 381 -1 C495 42 567 175 567 341 C567 507 487 697 297 697 C120 697 27 525 27 341 C27 180 97 31 233 -8 L233 -8 Z M139 341 C139 561 185 662 297 662 C408 662 455 566 455 341 C455 151 424 20 297 20 C186 20 139 116 139 341 L139 341 Z " />
<glyph glyph-name="R" unicode="R" horiz-adv-x="594" d="M200 324 L246 324 L444 0 L575 0 L575 17 C541 15 525 28 498 72 L336 336 C440 356 501 426 501 511 C501 602 427 682 297 682 L17 682 L17 665 C89 666 106 653 106 574 L106 108 C106 31 93 16 17 17 L17 0 L288 0 L288 17 C214 16 200 30 200 108 L200 324 Z M200 356 L200 633 C219 642 241 647 264 647 C338 647 389 588 389 501 C389 416 331 356 237 356 L200 356 Z " />
<glyph glyph-name="S" unicode="S" horiz-adv-x="448" d="M36 -14 L55 -14 C59 10 71 21 91 21 C121 21 161 -15 230 -15 C336 -15 418 66 418 171 C418 223 395 276 357 314 C300 371 199 423 153 469 C122 500 108 533 108 569 C108 620 150 659 207 659 C269 659 362 607 368 474 L385 474 L385 697 L368 697 C362 675 349 663 332 663 C311 663 272 697 197 697 C99 697 31 627 31 526 C31 469 54 425 94 385 C141 338 242 279 279 242 C315 206 328 175 328 134 C328 70 284 23 223 23 C146 23 62 84 55 215 L36 215 L36 -14 Z " />
<glyph glyph-name="T" unicode="T" horiz-adv-x="542" d="M318 644 L390 644 C472 644 502 613 504 527 L520 527 L520 682 L22 682 L22 527 L38 527 C40 614 71 644 153 644 L224 644 L224 108 C224 27 207 16 135 17 L135 0 L407 0 L407 17 C335 17 318 28 318 108 L318 644 Z " />
<glyph glyph-name="U" unicode="U" horiz-adv-x="646" d="M20 682 L20 665 C82 665 98 650 98 575 L98 214 C98 27 229 -15 328 -15 C463 -15 552 60 552 207 L552 575 C552 649 569 665 627 665 L627 682 L435 682 L435 665 C500 665 514 649 514 575 L514 211 C514 91 445 20 345 20 C267 20 192 63 192 192 L192 575 C192 648 207 665 269 665 L269 682 L20 682 Z " />
<glyph glyph-name="V" unicode="V" horiz-adv-x="594" d="M18 682 L18 665 C62 661 75 647 94 591 L300 -15 L317 -15 L495 575 C515 642 530 659 577 665 L577 682 L407 682 L407 665 C452 665 467 651 467 632 C467 623 465 612 462 602 L335 176 L333 176 L189 605 C184 621 183 625 183 632 C183 658 200 665 245 665 L245 682 L18 682 Z " />
<glyph glyph-name="W" unicode="W" horiz-adv-x="792" d="M22 682 L22 665 C60 661 75 643 91 588 L264 -15 L279 -15 L404 405 L406 405 L521 -15 L539 -15 L706 564 C729 644 741 661 780 665 L780 682 L605 682 L605 665 C654 666 675 648 675 616 C675 605 673 591 667 571 L562 198 L560 198 L453 588 C450 600 448 610 448 619 C448 654 470 665 521 665 L521 682 L279 682 L279 665 C320 661 338 644 350 602 L386 475 L303 194 L301 194 L189 593 C185 608 183 617 183 626 C183 655 201 665 237 665 L237 682 L22 682 Z " />
<glyph glyph-name="X" unicode="X" horiz-adv-x="646" d="M339 417 L233 598 C226 610 222 623 222 633 C222 655 238 666 283 665 L283 682 L19 682 L19 665 C73 665 94 648 126 593 L280 330 L107 74 C78 31 55 16 19 17 L19 0 L205 0 L205 17 C163 15 145 30 145 47 C145 57 150 69 164 89 L303 292 L423 89 C436 67 441 54 441 43 C441 26 427 16 380 17 L380 0 L627 0 L627 17 C589 16 566 34 533 89 L361 380 L497 579 C551 659 565 665 620 665 L620 682 L414 682 L414 665 C460 666 476 655 476 634 C476 624 471 613 462 598 L339 417 Z " />
<glyph glyph-name="Y" unicode="Y" horiz-adv-x="594" d="M343 292 L477 581 C507 645 526 661 577 665 L577 682 L402 682 L402 665 C438 665 454 660 454 638 C454 630 452 620 449 612 L326 345 L193 612 C187 623 184 632 184 640 C184 659 194 665 245 665 L245 682 L17 682 L17 665 C54 661 68 650 91 604 L249 286 L249 108 C249 29 233 17 162 17 L162 0 L430 0 L430 17 C359 16 343 28 343 108 L343 292 Z " />
<glyph glyph-name="Z" unicode="Z" horiz-adv-x="490" d="M343 644 L18 17 L18 0 L443 0 L473 181 L456 181 C436 78 411 38 291 38 L133 38 L467 682 L70 682 L67 514 L84 514 C89 626 124 644 203 644 L343 644 Z " />
<glyph glyph-name="bracketleft" unicode="&#x5b;" horiz-adv-x="250" d="M61 -211 L231 -211 L231 -180 L141 -180 L141 651 L231 651 L231 682 L61 682 L61 -211 Z " />
<glyph glyph-name="backslash" unicode="&#x5c;" horiz-adv-x="281" d="M67 713 L0 713 L214 0 L281 0 L67 713 Z " />
<glyph glyph-name="bracketright" unicode="&#x5d;" horiz-adv-x="250" d="M189 -211 L189 682 L19 682 L19 651 L109 651 L109 -180 L19 -180 L19 -211 L189 -211 Z " />
<glyph glyph-name="asciicircum" unicode="&#x5e;" horiz-adv-x="469" d="M14 332 L80 332 L234 602 L389 332 L455 332 L254 682 L214 682 L14 332 Z " />
<glyph glyph-name="underscore" unicode="&#x5f;" horiz-adv-x="500" d="M500 -125 L500 -75 L0 -75 L0 -125 L500 -125 Z " />
<glyph glyph-name="grave" unicode="&#x60;" horiz-adv-x="333" d="M248 532 L211 701 L114 701 L232 532 L248 532 Z " />
<glyph glyph-name="a" unicode="a" horiz-adv-x="396" d="M239 298 L152 253 C48 199 25 149 25 94 C25 31 67 -14 126 -14 C170 -14 207 13 238 70 L240 70 C240 15 259 -14 295 -14 C325 -14 356 7 381 45 L381 62 C364 49 356 45 345 45 C328 45 319 59 319 92 L319 362 C319 433 269 471 194 471 C109 471 41 422 41 361 C41 330 59 309 85 309 C108 309 126 326 126 346 C126 361 117 376 117 392 C117 424 144 450 178 450 C218 450 239 422 239 368 L239 298 Z M239 270 L239 97 C212 61 188 45 164 45 C132 45 108 79 108 126 C108 187 147 224 239 270 L239 270 Z " />
<glyph glyph-name="b" unicode="b" horiz-adv-x="448" d="M147 713 L130 713 L-4 654 L3 638 C16 643 22 644 31 644 C56 644 67 623 67 580 L67 43 C118 6 173 -14 225 -14 C336 -14 408 93 408 257 C408 398 336 471 264 471 C219 471 185 445 149 383 L147 383 L147 713 Z M147 348 C175 394 201 415 231 415 C288 415 318 343 318 208 C318 87 291 16 230 16 C200 16 171 35 147 71 L147 348 Z " />
<glyph glyph-name="c" unicode="c" horiz-adv-x="344" d="M306 175 C292 105 259 66 214 66 C147 66 107 146 107 278 C107 382 132 438 181 438 C203 438 220 423 220 403 C220 392 215 380 215 373 C215 344 237 323 267 323 C294 323 313 341 313 367 C313 422 255 471 191 471 C93 471 27 371 27 222 C27 81 89 -14 183 -14 C255 -14 309 57 323 171 L306 175 Z " />
<glyph glyph-name="d" unicode="d" horiz-adv-x="448" d="M377 713 L359 713 L227 654 L233 638 C246 643 253 644 261 644 C287 644 297 620 297 586 L297 435 C265 460 237 471 205 471 C108 471 35 356 35 202 C35 73 94 -14 181 -14 C222 -14 260 11 295 63 L297 63 L297 -14 L315 -14 L435 42 L429 58 C426 56 419 55 415 55 C387 55 377 73 377 126 L377 713 Z M297 98 C267 61 243 45 216 45 C159 45 125 121 125 250 C125 373 155 441 211 441 C262 441 297 385 297 301 L297 98 Z " />
<glyph glyph-name="e" unicode="e" horiz-adv-x="344" d="M320 253 C319 391 266 471 177 471 C60 471 25 324 25 218 C25 81 85 -14 172 -14 C245 -14 304 55 320 157 L304 164 C279 95 247 63 205 63 C145 63 107 134 102 253 L320 253 Z M102 284 C104 391 126 438 170 438 C213 438 234 391 235 284 L102 284 Z " />
<glyph glyph-name="f" unicode="f" horiz-adv-x="250" d="M77 461 L21 461 L21 430 L77 430 L77 93 C77 34 56 17 21 17 L21 0 L227 0 L227 17 C178 14 157 41 157 84 L157 430 L227 430 L227 461 L157 461 L157 582 C157 640 172 678 215 678 C275 678 271 598 316 598 C340 598 359 617 359 641 C359 681 311 713 251 713 C151 713 77 632 77 517 L77 461 Z " />
<glyph glyph-name="g" unicode="g" horiz-adv-x="448" d="M69 65 C69 42 84 24 110 17 C56 -39 28 -78 28 -112 C28 -162 102 -206 189 -206 C317 -206 424 -129 424 -36 C424 26 388 77 253 77 C159 77 132 84 132 108 C132 121 140 136 159 160 C181 153 197 150 216 150 C304 150 365 213 365 305 C365 337 359 363 344 394 L407 394 C422 394 425 396 425 412 L425 425 C425 435 421 438 407 438 L305 438 C277 461 250 471 215 471 C128 471 65 404 65 311 C65 251 90 201 136 171 C85 120 69 88 69 65 L69 65 Z M155 327 C155 408 173 445 215 445 C260 445 281 396 281 288 C281 215 259 176 220 176 C177 176 155 227 155 327 L155 327 Z M138 11 C160 5 192 3 222 3 C351 3 391 -5 391 -56 C391 -111 326 -147 225 -147 C124 -147 97 -96 97 -70 C97 -52 108 -25 138 11 L138 11 Z " />
<glyph glyph-name="h" unicode="h" horiz-adv-x="448" d="M152 713 L135 713 L14 658 L20 642 C27 644 31 645 36 645 C62 645 72 629 72 587 L72 93 C72 36 51 17 17 17 L17 0 L210 0 L210 17 C173 18 152 41 152 87 L152 351 C188 398 209 412 241 412 C282 412 299 385 299 318 L299 93 C299 37 279 17 240 17 L240 0 L428 0 L428 17 C397 19 379 47 379 93 L379 336 C379 412 349 471 281 471 C238 471 206 455 154 381 L152 381 L152 713 Z " />
<glyph glyph-name="i" unicode="i" horiz-adv-x="250" d="M168 471 L151 471 L21 411 L28 396 C42 401 47 402 55 402 C76 402 88 382 88 356 L88 93 C88 37 67 16 25 17 L25 0 L227 0 L227 17 C191 17 168 37 168 84 L168 471 Z M76 663 C76 635 98 613 126 613 C154 613 176 635 176 663 C176 691 154 713 126 713 C98 713 76 691 76 663 L76 663 Z " />
<glyph glyph-name="j" unicode="j" horiz-adv-x="250" d="M177 471 L160 471 L32 411 L38 396 C52 401 57 402 65 402 C83 402 97 386 97 355 L97 -30 C97 -139 90 -167 62 -167 C28 -167 34 -102 -8 -102 C-30 -102 -48 -120 -48 -142 C-48 -176 -8 -206 38 -206 C124 -206 177 -114 177 0 L177 471 Z M79 663 C79 635 102 613 129 613 C157 613 179 635 179 663 C179 691 157 713 129 713 C102 713 79 691 79 663 L79 663 Z " />
<glyph glyph-name="k" unicode="k" horiz-adv-x="448" d="M159 713 L141 713 L20 658 L25 642 C32 644 36 645 41 645 C68 645 79 629 79 587 L79 93 C79 36 58 17 20 17 L20 0 L218 0 L218 17 C173 18 159 46 159 84 L159 713 Z M269 461 L269 444 C292 445 303 438 303 428 C303 421 299 414 288 400 L174 251 L288 58 C295 46 299 37 299 30 C299 22 292 18 276 17 L276 0 L445 0 L445 17 C409 18 399 26 370 75 L244 287 L320 384 C358 433 379 444 432 444 L432 461 L269 461 Z " />
<glyph glyph-name="l" unicode="l" horiz-adv-x="250" d="M167 713 L149 713 L16 654 L23 638 C36 643 42 644 51 644 C77 644 87 624 87 572 L87 93 C87 37 66 16 23 17 L23 0 L227 0 L227 17 C193 16 167 36 167 82 L167 713 Z " />
<glyph glyph-name="m" unicode="m" horiz-adv-x="646" d="M149 471 L132 471 L15 414 L20 399 C30 402 35 403 42 403 C61 403 69 390 69 362 L69 79 C69 41 54 23 20 17 L20 0 L203 0 L203 17 C159 20 149 47 149 93 L149 348 C175 391 203 412 232 412 C270 412 287 383 287 320 L287 93 C287 46 273 18 234 17 L234 0 L422 0 L422 17 C385 19 367 38 367 93 L367 348 C400 396 421 412 451 412 C489 412 505 386 505 324 L505 93 C505 40 488 17 452 17 L452 0 L630 0 L630 17 C605 19 585 38 585 86 L585 324 C585 422 553 471 489 471 C439 471 402 441 365 371 L363 371 C358 435 326 471 273 471 C224 471 185 441 151 377 L149 377 L149 471 Z " />
<glyph glyph-name="n" unicode="n" horiz-adv-x="448" d="M154 471 L138 471 L21 414 L25 399 C35 402 40 403 47 403 C66 403 74 391 74 371 L74 93 C74 44 59 18 21 17 L21 0 L212 0 L212 17 C174 17 154 35 154 93 L154 351 C183 393 212 412 243 412 C281 412 300 388 300 339 L300 93 C300 40 281 17 242 17 L242 0 L428 0 L428 17 C399 17 380 41 380 80 L380 339 C380 426 345 471 282 471 C237 471 199 444 156 379 L154 379 L154 471 Z " />
<glyph glyph-name="o" unicode="o" horiz-adv-x="448" d="M33 228 C33 84 110 -14 221 -14 C334 -14 414 88 414 232 C414 373 337 471 227 471 C114 471 33 371 33 228 L33 228 Z M126 257 C126 363 147 438 218 438 C287 438 321 360 321 202 C321 96 300 19 229 19 C153 19 126 123 126 257 L126 257 Z " />
<glyph glyph-name="p" unicode="p" horiz-adv-x="448" d="M143 471 L129 471 L7 415 L15 399 C22 402 26 403 31 403 C58 403 67 379 67 345 L67 -113 C67 -164 47 -191 7 -189 L7 -206 L215 -206 L215 -189 C168 -193 147 -166 147 -123 L147 34 L149 34 C170 4 202 -11 240 -11 C353 -11 409 129 409 259 C409 381 349 471 266 471 C215 471 178 438 145 359 L143 359 L143 471 Z M147 330 C172 388 199 415 231 415 C286 415 319 340 319 218 C319 84 291 19 233 19 C177 19 147 66 147 164 L147 330 Z " />
<glyph glyph-name="q" unicode="q" horiz-adv-x="448" d="M379 471 L362 471 L307 440 C276 461 244 471 211 471 C109 471 37 360 37 203 C37 79 99 -11 185 -11 C230 -11 270 19 297 73 L299 73 L299 -113 C299 -162 283 -194 228 -189 L228 -206 L436 -206 L436 -189 C395 -187 379 -163 379 -119 L379 471 Z M299 105 C272 66 245 45 221 45 C161 45 127 121 127 258 C127 377 158 441 215 441 C266 441 299 397 299 329 L299 105 Z " />
<glyph glyph-name="r" unicode="r" horiz-adv-x="344" d="M161 471 L144 471 L22 415 L26 398 C35 401 40 402 46 402 C70 402 81 384 81 358 L81 93 C81 41 64 16 19 17 L19 0 L237 0 L237 17 C179 17 161 33 161 93 L161 340 C185 385 202 402 222 402 C243 402 251 370 280 370 C305 370 326 391 326 417 C326 448 301 471 268 471 C226 471 193 439 163 375 L161 375 L161 471 Z " />
<glyph glyph-name="s" unicode="s" horiz-adv-x="292" d="M26 0 L44 0 C44 4 51 10 57 10 C69 10 105 -14 146 -14 C215 -14 268 43 268 117 C268 156 262 179 209 232 C176 265 119 315 111 323 C90 344 80 368 80 387 C80 416 104 441 133 441 C176 441 211 396 226 318 L244 318 L244 461 L226 461 C222 454 218 451 210 451 C197 451 168 471 130 471 C68 471 25 420 25 347 C25 309 36 277 71 242 C86 227 148 173 164 157 C192 129 200 107 200 84 C200 46 174 16 142 16 C90 16 51 71 43 154 L26 154 L26 0 Z " />
<glyph glyph-name="t" unicode="t" horiz-adv-x="302" d="M175 430 L260 430 L260 461 L175 461 L175 607 L158 607 C135 531 99 484 38 449 L38 430 L95 430 L95 100 C95 19 132 -14 177 -14 C224 -14 266 24 285 81 L266 81 C255 57 239 45 218 45 C184 45 175 75 175 130 L175 430 Z " />
<glyph glyph-name="u" unicode="u" horiz-adv-x="448" d="M376 461 L238 461 L238 444 C275 444 296 427 296 368 L296 112 C274 73 239 49 206 49 C169 49 150 77 150 127 L150 461 L19 461 L19 444 C49 444 70 427 70 368 L70 113 C70 37 111 -10 167 -10 C214 -10 264 26 294 83 L296 83 L296 -10 L313 -10 L427 46 L421 62 C412 59 407 58 400 58 C380 58 376 66 376 106 L376 461 Z " />
<glyph glyph-name="v" unicode="v" horiz-adv-x="396" d="M17 461 L17 444 C43 437 58 418 71 376 L191 -12 L208 -12 L331 382 C345 426 355 439 380 444 L380 461 L261 461 L261 444 C291 443 303 434 303 415 C303 408 301 400 297 387 L225 151 L223 151 L153 376 C150 385 149 396 149 405 C149 430 165 444 191 444 L191 461 L17 461 Z " />
<glyph glyph-name="w" unicode="w" horiz-adv-x="594" d="M19 461 L19 444 C45 441 56 429 68 388 L188 -12 L206 -12 L307 275 L309 275 L400 -12 L417 -12 L536 388 C548 430 556 440 578 444 L578 461 L459 461 L459 444 C493 444 507 435 507 415 C507 410 507 407 502 392 L430 148 L428 148 L354 385 C351 394 349 402 349 409 C349 434 362 442 400 444 L400 461 L217 461 L217 444 C248 438 258 427 271 388 L291 326 L225 138 L223 138 L151 381 C148 394 145 407 145 416 C145 436 156 443 188 444 L188 461 L19 461 Z " />
<glyph glyph-name="x" unicode="x" horiz-adv-x="396" d="M203 313 L160 404 C157 410 156 415 156 421 C156 437 165 443 191 444 L191 461 L18 461 L18 444 C50 434 70 415 87 378 L158 226 L81 79 C57 32 47 23 18 17 L18 0 L144 0 L144 17 C111 19 102 23 102 36 C102 42 104 49 109 58 L176 187 L233 64 C241 48 243 42 243 35 C243 21 235 17 201 17 L201 0 L379 0 L379 17 C348 23 333 38 308 91 L222 275 L273 374 C300 427 319 443 356 444 L356 461 L222 461 L222 444 C246 443 256 436 256 422 C256 416 253 409 249 401 L203 313 Z " />
<glyph glyph-name="y" unicode="y" horiz-adv-x="396" d="M15 461 L15 444 C45 436 61 418 75 376 L200 0 C189 -56 165 -124 130 -124 C114 -124 102 -108 72 -108 C46 -108 26 -128 26 -155 C26 -184 51 -206 85 -206 C148 -206 197 -146 226 -34 L331 376 C343 422 351 433 378 444 L378 461 L272 461 L272 444 C297 443 306 436 306 419 C306 405 301 391 299 383 L237 141 L235 141 L155 385 C151 397 150 404 150 411 C150 433 163 443 196 444 L196 461 L15 461 Z " />
<glyph glyph-name="z" unicode="z" horiz-adv-x="344" d="M52 461 L52 340 L69 340 C76 408 90 427 142 427 L226 427 L14 17 L14 0 L317 0 L317 135 L301 135 C294 55 276 34 202 34 L113 34 L327 444 L327 461 L52 461 Z " />
<glyph glyph-name="braceleft" unicode="&#x7b;" horiz-adv-x="480" d="M121 237 C186 228 232 185 232 134 C232 111 226 87 221 62 C216 37 210 10 210 -21 C210 -115 288 -194 393 -209 L393 -191 C327 -179 283 -134 283 -78 C283 -52 288 -29 294 -4 C300 20 305 46 305 77 C305 150 250 214 161 244 L161 246 C250 276 305 340 305 413 C305 444 299 470 294 494 C289 519 283 542 283 568 C283 624 327 669 393 681 L393 699 C288 684 210 605 210 511 C210 480 215 453 221 428 C227 403 232 380 232 356 C232 305 186 262 121 253 L121 237 Z " />
<glyph glyph-name="bar" unicode="&#x7c;" horiz-adv-x="198" d="M66 750 L66 -250 L131 -250 L131 750 L66 750 Z " />
<glyph glyph-name="braceright" unicode="&#x7d;" horiz-adv-x="480" d="M359 237 L359 253 C294 262 248 305 248 356 C248 380 253 403 259 428 C265 453 270 480 270 511 C270 605 192 684 87 699 L87 681 C153 669 197 624 197 568 C197 542 191 519 186 494 C181 470 175 444 175 413 C175 340 230 276 319 246 L319 244 C230 214 175 150 175 77 C175 46 180 20 186 -4 C192 -29 197 -52 197 -78 C197 -134 153 -179 87 -191 L87 -209 C192 -194 270 -115 270 -21 C270 10 264 37 259 62 C254 87 248 111 248 134 C248 185 294 228 359 237 L359 237 Z " />
<glyph glyph-name="asciitilde" unicode="&#x7e;" horiz-adv-x="667" d="M572 414 C565 357 533 325 483 325 C413 325 278 415 192 415 C133 415 71 371 70 267 L95 267 C106 327 135 356 183 356 C250 356 391 266 471 266 C544 266 595 325 597 414 L572 414 Z " />
<glyph glyph-name="exclamdown" unicode="&#xa1;" horiz-adv-x="250" d="M117 275 C119 145 71 -63 71 -168 C71 -212 90 -238 124 -238 C160 -238 179 -210 179 -159 C179 -93 138 141 134 275 L117 275 Z M125 362 C155 362 180 386 180 416 C180 446 155 471 125 471 C95 471 71 446 71 416 C71 386 95 362 125 362 L125 362 Z " />
<glyph glyph-name="cent" unicode="&#xa2;" horiz-adv-x="344" d="M52 -184 L85 -184 L130 -3 C150 -11 165 -14 183 -14 C255 -14 309 58 323 171 L306 175 C292 105 259 66 214 66 C192 66 171 76 154 94 L217 355 L219 355 C227 333 242 323 267 323 C294 323 313 341 313 367 C313 405 287 439 244 460 L296 669 L262 669 L213 469 C203 471 198 471 190 471 C93 471 27 371 27 222 C27 128 54 52 101 16 L52 -184 Z M131 133 L129 133 C113 180 107 219 107 278 C107 382 133 438 181 438 C190 438 196 437 204 432 L131 133 Z " />
<glyph glyph-name="sterling" unicode="&#xa3;" horiz-adv-x="448" d="M40 330 L124 330 C133 232 138 144 136 122 C119 127 107 129 94 129 C53 129 22 96 22 53 C22 14 46 -12 81 -12 C116 -12 140 10 165 66 C225 5 257 -12 292 -12 C355 -12 415 62 426 155 L409 155 C399 105 362 74 312 74 C274 74 237 83 180 106 C204 191 212 249 207 330 L317 330 L317 377 L205 377 C202 413 198 508 198 537 C198 602 210 663 270 663 C298 663 317 643 317 621 C317 617 314 598 314 586 C314 564 329 548 350 548 C372 548 390 568 390 592 C390 649 339 693 274 693 C192 693 118 626 118 478 C118 469 120 402 121 377 L40 377 L40 330 Z M134 87 C128 46 106 18 81 18 C62 18 48 33 48 52 C48 77 68 96 94 96 C106 96 115 94 134 87 L134 87 Z " />
<glyph glyph-name="currency" unicode="&#xa4;" horiz-adv-x="681" d="M342 469 C428 469 496 395 496 311 C496 227 428 155 342 155 C254 155 186 227 186 311 C186 395 254 469 342 469 L342 469 Z M71 86 L117 40 L213 138 C244 113 290 97 342 97 C392 97 438 113 469 138 L565 40 L611 86 L515 184 C540 215 556 261 556 311 C556 361 538 407 515 438 L611 536 L565 582 L469 484 C438 509 392 527 342 527 C292 527 246 509 213 484 L117 582 L71 536 L169 438 C144 409 126 361 126 311 C126 261 142 217 169 184 L71 86 Z " />
<glyph glyph-name="yen" unicode="&#xa5;" horiz-adv-x="594" d="M534 384 L367 384 L457 581 C489 650 506 661 557 665 L557 682 L382 682 L382 665 C424 665 434 656 434 638 C434 630 433 620 429 612 L327 381 L213 612 C209 621 204 632 204 640 C204 659 214 665 265 665 L265 682 L37 682 L37 665 C74 661 88 650 111 604 L220 384 L58 384 L58 346 L239 346 L249 320 L249 254 L58 254 L58 216 L249 216 L249 108 C249 31 236 17 162 17 L162 0 L430 0 L430 17 C361 16 343 27 343 108 L343 216 L534 216 L534 254 L343 254 L343 332 L351 346 L534 346 L534 384 Z " />
<glyph glyph-name="brokenbar" unicode="&#xa6;" horiz-adv-x="198" d="M66 175 L66 -175 L131 -175 L131 175 L66 175 Z M66 675 L66 325 L131 325 L131 675 L66 675 Z " />
<glyph glyph-name="section" unicode="&#xa7;" horiz-adv-x="344" d="M113 426 C43 373 19 318 19 254 C19 199 42 155 93 104 C108 89 169 35 186 18 C228 -24 237 -51 237 -79 C237 -129 204 -169 163 -169 C137 -169 120 -152 120 -128 C120 -112 130 -95 130 -73 C130 -51 116 -34 96 -34 C74 -34 56 -54 56 -82 C56 -137 107 -185 165 -185 C233 -185 286 -125 286 -47 C286 2 270 38 231 82 C288 118 324 183 324 251 C324 305 307 346 248 405 C218 435 187 458 162 483 C120 525 109 553 109 585 C109 635 141 674 183 674 C207 674 225 658 225 636 C223 616 214 595 214 582 C214 558 229 541 250 541 C272 541 289 561 289 588 C289 644 239 693 181 693 C113 693 57 629 57 551 C57 507 76 465 113 426 L113 426 Z M218 96 L156 152 C93 209 68 253 68 306 C68 350 89 388 126 411 C136 400 145 392 168 372 C248 304 277 260 277 204 C277 158 258 123 218 96 L218 96 Z " />
<glyph glyph-name="dieresis" unicode="&#xa8;" horiz-adv-x="333" d="M86 670 C57 670 33 646 33 617 C33 588 57 564 86 564 C115 564 139 588 139 617 C139 646 115 670 86 670 L86 670 Z M248 670 C219 670 195 646 195 617 C195 588 219 564 248 564 C277 564 301 588 301 617 C301 646 277 670 248 670 L248 670 Z " />
<glyph glyph-name="copyright" unicode="&#xa9;" horiz-adv-x="760" d="M556 565 L536 565 C529 548 523 543 511 543 C496 543 453 565 400 565 C257 565 149 465 149 333 C149 207 250 110 382 110 C465 110 527 143 575 212 L556 221 C516 166 466 140 400 140 C310 140 234 196 234 348 C234 467 296 543 395 543 C471 543 522 503 546 424 L566 424 L556 565 Z M380 693 C183 693 24 534 24 337 C24 140 183 -19 380 -19 C577 -19 736 140 736 337 C736 534 577 693 380 693 L380 693 Z M379 662 C558 662 704 516 704 337 C704 158 558 12 379 12 C200 12 54 158 54 337 C54 516 200 662 379 662 L379 662 Z " />
<glyph glyph-name="ordfeminine" unicode="&#xaa;" horiz-adv-x="260" d="M151 594 C38 543 14 519 14 472 C14 433 43 405 84 405 C110 405 126 414 151 442 C155 418 170 405 192 405 C214 405 237 419 253 442 L253 462 C243 452 230 445 224 445 C218 445 214 450 214 465 L214 630 C214 674 180 697 127 697 C70 697 24 666 24 629 C24 609 38 595 58 595 C75 595 90 606 90 620 C90 626 85 641 85 648 C85 665 99 679 118 679 C140 679 151 663 151 634 L151 594 Z M151 474 C131 451 121 445 108 445 C92 445 79 465 79 490 C79 523 97 543 151 569 L151 474 Z " />
<glyph glyph-name="guillemotleft" unicode="&#xab;" horiz-adv-x="396" d="M295 255 L377 484 L347 484 L198 255 L347 24 L377 24 L295 255 Z M119 255 L201 484 L171 484 L22 255 L171 24 L201 24 L119 255 Z " />
<glyph glyph-name="logicalnot" unicode="&#xac;" horiz-adv-x="667" d="M68 487 L68 423 L534 423 L534 195 L598 195 L598 487 L68 487 Z " />
<glyph glyph-name="registered" unicode="&#xae;" horiz-adv-x="760" d="M194 555 L194 537 C231 537 241 524 241 492 L241 184 C241 150 229 137 189 137 L189 120 L373 120 L373 137 C332 137 314 146 314 176 L314 324 L352 324 L500 120 L592 120 L592 137 C568 139 554 148 531 181 L426 331 C502 350 538 386 538 442 C538 510 478 555 389 555 L194 555 Z M314 345 L314 525 C332 531 341 533 356 533 C414 533 457 492 457 437 C457 379 410 345 329 345 L314 345 Z M380 693 C183 693 24 534 24 337 C24 140 183 -19 380 -19 C577 -19 736 140 736 337 C736 534 577 693 380 693 L380 693 Z M379 662 C558 662 704 516 704 337 C704 158 558 12 379 12 C200 12 54 158 54 337 C54 516 200 662 379 662 L379 662 Z " />
<glyph glyph-name="macron" unicode="&#xaf;" horiz-adv-x="333" d="M40 583 L293 583 L293 651 L40 651 L40 583 Z " />
<glyph glyph-name="degree" unicode="&#xb0;" horiz-adv-x="399" d="M199 643 C256 643 302 597 302 540 C302 483 256 437 199 437 C142 437 96 483 96 540 C96 597 142 643 199 643 L199 643 Z M199 693 C115 693 46 624 46 540 C46 456 115 387 199 387 C283 387 352 456 352 540 C352 624 283 693 199 693 L199 693 Z " />
<glyph glyph-name="plusminus" unicode="&#xb1;" horiz-adv-x="667" d="M68 460 L68 396 L301 396 L301 163 L365 163 L365 396 L598 396 L598 460 L365 460 L365 693 L301 693 L301 460 L68 460 Z M68 64 L68 0 L598 0 L598 64 L68 64 Z " />
<glyph glyph-name="twosuperior" unicode="&#xb2;" horiz-adv-x="281" d="M266 403 L243 403 C229 381 220 377 183 377 L82 377 C193 480 240 546 240 601 C240 653 195 693 137 693 C80 693 40 655 32 593 L54 593 C61 628 82 646 114 646 C153 646 178 619 178 577 C178 520 152 473 17 345 L17 333 L236 333 L266 403 Z " />
<glyph glyph-name="threesuperior" unicode="&#xb3;" horiz-adv-x="281" d="M92 507 C164 507 188 460 188 421 C188 382 167 357 136 357 C106 357 90 381 60 381 C44 381 31 371 31 359 C31 341 59 327 99 327 C179 327 242 380 242 448 C242 491 222 521 180 543 C211 571 224 592 224 620 C224 662 188 693 139 693 C93 693 60 667 40 616 L59 609 C77 639 94 652 117 652 C145 652 166 627 166 594 C166 555 141 531 92 520 L92 507 Z " />
<glyph glyph-name="acute" unicode="&#xb4;" horiz-adv-x="333" d="M125 532 L141 532 L259 701 L162 701 L125 532 Z " />
<glyph glyph-name="mu" unicode="&#xb5;" horiz-adv-x="500" d="M77 461 L77 29 C77 -57 50 -102 50 -151 C50 -184 65 -206 90 -206 C116 -206 129 -181 129 -152 C129 -93 106 -53 112 29 L114 29 C132 0 148 -14 189 -14 C247 -14 271 31 302 81 L304 81 C309 15 333 -14 380 -14 C441 -14 470 32 473 102 L452 102 C446 61 433 40 413 40 C390 40 383 63 383 126 L383 461 L303 461 L303 122 C269 75 250 45 205 45 C159 45 157 104 157 178 L157 461 L77 461 Z " />
<glyph glyph-name="paragraph" unicode="&#xb6;" horiz-adv-x="453" d="M475 682 L213 682 C59 682 -15 598 -15 492 C-15 449 -1 391 42 352 C82 316 143 303 228 299 L228 -206 L265 -206 L265 654 L360 654 L360 -206 L396 -206 L396 560 C396 637 396 663 454 663 L475 663 L475 682 Z " />
<glyph glyph-name="periodcentered" unicode="&#xb7;" horiz-adv-x="250" d="M125 394 C95 394 70 370 70 340 C70 310 95 285 125 285 C155 285 179 310 179 340 C179 370 155 394 125 394 L125 394 Z " />
<glyph glyph-name="cedilla" unicode="&#xb8;" horiz-adv-x="333" d="M108 -88 C149 -89 172 -106 172 -136 C172 -168 145 -193 77 -192 L71 -210 C88 -212 98 -213 112 -213 C198 -213 251 -178 251 -122 C251 -83 226 -57 187 -54 L237 3 L201 3 L108 -88 Z " />
<glyph glyph-name="onesuperior" unicode="&#xb9;" horiz-adv-x="281" d="M173 693 L155 693 L69 649 L76 635 C81 638 95 644 99 644 C109 644 112 635 112 613 L112 391 C112 352 104 348 73 348 L73 333 L214 333 L214 348 C180 348 173 352 173 391 L173 693 Z " />
<glyph glyph-name="ordmasculine" unicode="&#xba;" horiz-adv-x="292" d="M18 550 C18 464 69 405 144 405 C220 405 273 466 273 553 C273 638 222 697 148 697 C72 697 18 637 18 550 L18 550 Z M89 575 C89 640 107 672 142 672 C182 672 202 625 202 534 C202 464 185 431 148 431 C110 431 89 480 89 575 L89 575 Z " />
<glyph glyph-name="guillemotright" unicode="&#xbb;" horiz-adv-x="396" d="M101 255 L19 24 L49 24 L198 255 L49 484 L19 484 L101 255 Z M277 255 L195 24 L225 24 L374 255 L225 484 L195 484 L277 255 Z " />
<glyph glyph-name="onequarter" unicode="&#xbc;" horiz-adv-x="708" d="M541 87 L541 0 L602 0 L602 87 L645 87 L645 132 L602 132 L602 360 L562 360 L400 132 L400 87 L541 87 Z M541 132 L438 132 L539 278 L541 278 L541 132 Z M183 693 L165 693 L79 649 L86 635 C93 639 105 644 109 644 C119 644 122 635 122 613 L122 391 C122 355 113 347 83 348 L83 333 L224 333 L224 348 C192 348 183 351 183 391 L183 693 Z M172 -6 L572 693 L533 693 L132 -6 L172 -6 Z " />
<glyph glyph-name="onehalf" unicode="&#xbd;" horiz-adv-x="708" d="M183 693 L165 693 L79 649 L86 635 C93 639 105 644 109 644 C119 644 122 635 122 613 L122 391 C122 355 113 347 83 348 L83 333 L224 333 L224 348 C192 348 183 351 183 391 L183 693 Z M171 -6 L571 693 L532 693 L131 -6 L171 -6 Z M671 70 L648 70 C634 48 625 44 588 44 L487 44 C611 161 646 217 646 268 C646 320 601 360 543 360 C486 360 445 322 437 260 L459 260 C467 295 487 313 519 313 C559 313 584 286 584 244 C584 193 557 141 423 12 L423 0 L641 0 L671 70 Z " />
<glyph glyph-name="threequarters" unicode="&#xbe;" horiz-adv-x="708" d="M102 507 C174 507 198 460 198 421 C198 382 177 357 146 357 C116 357 100 381 70 381 C54 381 41 371 41 359 C41 341 69 327 109 327 C189 327 252 380 252 448 C252 491 232 521 190 543 C221 571 234 592 234 620 C234 662 198 693 149 693 C103 693 70 667 50 616 L69 609 C87 639 104 652 127 652 C155 652 176 627 176 594 C176 555 151 531 102 520 L102 507 Z M174 -6 L574 693 L535 693 L134 -6 L174 -6 Z M541 87 L541 0 L602 0 L602 87 L645 87 L645 132 L602 132 L602 360 L562 360 L400 132 L400 87 L541 87 Z M541 132 L438 132 L539 278 L541 278 L541 132 Z " />
<glyph glyph-name="questiondown" unicode="&#xbf;" horiz-adv-x="344" d="M23 -80 C23 -170 89 -238 177 -238 C259 -238 326 -176 326 -100 C326 -56 300 -22 267 -22 C246 -22 231 -39 231 -60 C231 -99 267 -112 267 -149 C267 -180 237 -208 202 -208 C149 -208 116 -154 116 -66 C116 61 187 114 187 242 L187 292 L171 292 L171 252 C171 126 23 51 23 -80 L23 -80 Z M172 362 C202 362 227 386 227 416 C227 446 202 471 172 471 C142 471 118 446 118 416 C118 386 142 362 172 362 L172 362 Z " />
<glyph glyph-name="Agrave" unicode="&#xc0;" horiz-adv-x="594" d="M181 218 L353 218 L391 101 C399 75 401 67 401 56 C401 28 385 17 343 17 L343 0 L576 0 L576 17 C528 17 515 20 486 111 L298 697 L282 697 L107 111 C85 36 67 17 18 17 L18 0 L203 0 L203 17 C153 16 137 30 137 56 C137 63 139 73 142 86 L181 218 Z M341 256 L192 256 L262 499 L264 499 L341 256 Z M329 729 L292 898 L195 898 L313 729 L329 729 Z " />
<glyph glyph-name="Aacute" unicode="&#xc1;" horiz-adv-x="594" d="M181 218 L353 218 L391 101 C399 75 401 67 401 56 C401 28 385 17 343 17 L343 0 L576 0 L576 17 C528 17 515 20 486 111 L298 697 L282 697 L107 111 C85 36 67 17 18 17 L18 0 L203 0 L203 17 C153 16 137 30 137 56 C137 63 139 73 142 86 L181 218 Z M341 256 L192 256 L262 499 L264 499 L341 256 Z M256 729 L272 729 L390 898 L293 898 L256 729 Z " />
<glyph glyph-name="Acircumflex" unicode="&#xc2;" horiz-adv-x="594" d="M181 218 L353 218 L391 101 C399 75 401 67 401 56 C401 28 385 17 343 17 L343 0 L576 0 L576 17 C528 17 515 20 486 111 L298 697 L282 697 L107 111 C85 36 67 17 18 17 L18 0 L203 0 L203 17 C153 16 137 30 137 56 C137 63 139 73 142 86 L181 218 Z M341 256 L192 256 L262 499 L264 499 L341 256 Z M299 836 L409 734 L426 734 L340 894 L257 894 L169 734 L186 734 L299 836 Z " />
<glyph glyph-name="Atilde" unicode="&#xc3;" horiz-adv-x="594" d="M181 218 L353 218 L391 101 C399 75 401 67 401 56 C401 28 385 17 343 17 L343 0 L576 0 L576 17 C528 17 515 20 486 111 L298 697 L282 697 L107 111 C85 36 67 17 18 17 L18 0 L203 0 L203 17 C153 16 137 30 137 56 C137 63 139 73 142 86 L181 218 Z M341 256 L192 256 L262 499 L264 499 L341 256 Z M180 750 C182 799 193 819 217 819 C250 819 304 750 361 750 C409 750 432 804 432 877 L416 877 C415 834 401 809 379 809 C348 809 285 878 239 878 C215 878 196 867 183 846 C170 824 164 792 163 750 L180 750 Z " />
<glyph glyph-name="Adieresis" unicode="&#xc4;" horiz-adv-x="594" d="M181 218 L353 218 L391 101 C399 75 401 67 401 56 C401 28 385 17 343 17 L343 0 L576 0 L576 17 C528 17 515 20 486 111 L298 697 L282 697 L107 111 C85 36 67 17 18 17 L18 0 L203 0 L203 17 C153 16 137 30 137 56 C137 63 139 73 142 86 L181 218 Z M341 256 L192 256 L262 499 L264 499 L341 256 Z M207 867 C178 867 154 843 154 814 C154 785 178 761 207 761 C236 761 260 785 260 814 C260 843 236 867 207 867 L207 867 Z M369 867 C340 867 316 843 316 814 C316 785 340 761 369 761 C398 761 422 785 422 814 C422 843 398 867 369 867 L369 867 Z " />
<glyph glyph-name="Aring" unicode="&#xc5;" horiz-adv-x="594" d="M181 218 L353 218 L391 101 C399 75 401 67 401 56 C401 28 385 17 343 17 L343 0 L576 0 L576 17 C528 17 515 20 486 111 L298 697 L282 697 L107 111 C85 36 67 17 18 17 L18 0 L203 0 L203 17 C153 16 137 30 137 56 C137 63 139 73 142 86 L181 218 Z M341 256 L192 256 L262 499 L264 499 L341 256 Z M278 920 C227 920 185 878 185 827 C185 776 227 734 278 734 C329 734 371 776 371 827 C371 878 329 920 278 920 L278 920 Z M278 890 C313 890 341 862 341 827 C341 792 313 764 278 764 C243 764 215 792 215 827 C215 862 243 890 278 890 L278 890 Z " />
<glyph glyph-name="AE" unicode="&#xc6;" horiz-adv-x="792" d="M466 340 L586 340 C635 340 661 319 659 241 L676 241 L676 480 L659 480 C661 410 639 378 576 378 L466 378 L466 644 L619 644 C680 644 702 611 713 535 L729 535 L720 682 L262 682 L262 665 C309 666 324 660 324 640 C324 633 323 629 317 614 L112 115 C80 38 62 18 22 17 L22 0 L187 0 L187 17 C150 16 134 26 134 51 C134 62 137 76 143 90 L215 263 L372 263 L372 108 C372 34 359 15 284 17 L284 0 L724 0 L773 169 L757 175 C714 62 681 38 570 38 L523 38 C472 38 466 45 466 103 L466 340 Z M372 301 L231 301 L370 644 L372 644 L372 301 Z " />
<glyph glyph-name="Ccedilla" unicode="&#xc7;" horiz-adv-x="542" d="M497 697 L480 697 C476 666 470 655 457 655 C432 655 392 697 311 697 C146 697 24 538 24 322 C24 109 153 -6 289 -13 L213 -88 C254 -89 277 -106 277 -136 C277 -168 250 -193 182 -192 L176 -210 C193 -212 203 -213 217 -213 C303 -213 356 -178 356 -122 C356 -83 331 -57 292 -54 L327 -13 C415 -6 482 47 525 145 L509 153 C463 61 411 20 332 20 C212 20 136 109 136 320 C136 545 196 664 320 664 C415 664 482 589 491 472 L509 472 L497 697 Z " />
<glyph glyph-name="Egrave" unicode="&#xc8;" horiz-adv-x="542" d="M462 682 L15 682 L15 665 C91 667 102 647 102 575 L102 108 C102 29 86 16 15 17 L15 0 L465 0 L517 170 L500 175 C467 75 425 38 342 38 L244 38 C203 38 196 47 196 95 L196 339 L322 339 C380 339 401 316 400 241 L417 241 L417 479 L400 479 C401 402 380 377 304 377 L196 377 L196 644 L334 644 C412 644 443 633 454 534 L472 534 L462 682 Z M333 729 L296 898 L199 898 L317 729 L333 729 Z " />
<glyph glyph-name="Eacute" unicode="&#xc9;" horiz-adv-x="542" d="M462 682 L15 682 L15 665 C91 667 102 647 102 575 L102 108 C102 29 86 16 15 17 L15 0 L465 0 L517 170 L500 175 C467 75 425 38 342 38 L244 38 C203 38 196 47 196 95 L196 339 L322 339 C380 339 401 316 400 241 L417 241 L417 479 L400 479 C401 402 380 377 304 377 L196 377 L196 644 L334 644 C412 644 443 633 454 534 L472 534 L462 682 Z M230 729 L246 729 L364 898 L267 898 L230 729 Z " />
<glyph glyph-name="Ecircumflex" unicode="&#xca;" horiz-adv-x="542" d="M462 682 L15 682 L15 665 C91 667 102 647 102 575 L102 108 C102 29 86 16 15 17 L15 0 L465 0 L517 170 L500 175 C467 75 425 38 342 38 L244 38 C203 38 196 47 196 95 L196 339 L322 339 C380 339 401 316 400 241 L417 241 L417 479 L400 479 C401 402 380 377 304 377 L196 377 L196 644 L334 644 C412 644 443 633 454 534 L472 534 L462 682 Z M273 836 L383 734 L400 734 L314 894 L231 894 L143 734 L160 734 L273 836 Z " />
<glyph glyph-name="Edieresis" unicode="&#xcb;" horiz-adv-x="542" d="M462 682 L15 682 L15 665 C91 667 102 647 102 575 L102 108 C102 29 86 16 15 17 L15 0 L465 0 L517 170 L500 175 C467 75 425 38 342 38 L244 38 C203 38 196 47 196 95 L196 339 L322 339 C380 339 401 316 400 241 L417 241 L417 479 L400 479 C401 402 380 377 304 377 L196 377 L196 644 L334 644 C412 644 443 633 454 534 L472 534 L462 682 Z M191 867 C162 867 138 843 138 814 C138 785 162 761 191 761 C220 761 244 785 244 814 C244 843 220 867 191 867 L191 867 Z M353 867 C324 867 300 843 300 814 C300 785 324 761 353 761 C382 761 406 785 406 814 C406 843 382 867 353 867 L353 867 Z " />
<glyph glyph-name="Igrave" unicode="&#xcc;" horiz-adv-x="292" d="M15 682 L15 665 C82 665 99 652 99 575 L99 108 C99 34 84 16 15 17 L15 0 L277 0 L277 17 C214 17 193 25 193 108 L193 575 C193 652 210 666 277 665 L277 682 L15 682 Z M198 729 L161 898 L64 898 L182 729 L198 729 Z " />
<glyph glyph-name="Iacute" unicode="&#xcd;" horiz-adv-x="292" d="M15 682 L15 665 C82 665 99 652 99 575 L99 108 C99 34 84 16 15 17 L15 0 L277 0 L277 17 C214 17 193 25 193 108 L193 575 C193 652 210 666 277 665 L277 682 L15 682 Z M115 729 L131 729 L249 898 L152 898 L115 729 Z " />
<glyph glyph-name="Icircumflex" unicode="&#xce;" horiz-adv-x="292" d="M15 682 L15 665 C82 665 99 652 99 575 L99 108 C99 34 84 16 15 17 L15 0 L277 0 L277 17 C214 17 193 25 193 108 L193 575 C193 652 210 666 277 665 L277 682 L15 682 Z M148 836 L258 734 L275 734 L189 894 L106 894 L18 734 L35 734 L148 836 Z " />
<glyph glyph-name="Idieresis" unicode="&#xcf;" horiz-adv-x="292" d="M15 682 L15 665 C82 665 99 652 99 575 L99 108 C99 34 84 16 15 17 L15 0 L277 0 L277 17 C214 17 193 25 193 108 L193 575 C193 652 210 666 277 665 L277 682 L15 682 Z M66 867 C37 867 13 843 13 814 C13 785 37 761 66 761 C95 761 119 785 119 814 C119 843 95 867 66 867 L66 867 Z M228 867 C199 867 175 843 175 814 C175 785 199 761 228 761 C257 761 281 785 281 814 C281 843 257 867 228 867 L228 867 Z " />
<glyph glyph-name="Eth" unicode="&#xd0;" horiz-adv-x="646" d="M19 682 L19 665 C90 666 106 653 106 575 L106 358 L19 358 L19 320 L106 320 L106 108 C106 30 91 17 19 17 L19 0 L285 0 C467 0 617 127 617 338 C617 515 516 682 280 682 L19 682 Z M200 634 C231 644 250 647 278 647 C420 647 505 530 505 335 C505 143 425 31 286 31 C253 31 223 37 200 48 L200 320 L379 320 L379 358 L200 358 L200 634 Z " />
<glyph glyph-name="Ntilde" unicode="&#xd1;" horiz-adv-x="646" d="M11 682 L11 665 C41 665 57 660 75 635 L103 597 L103 93 C103 37 88 18 26 17 L26 0 L237 0 L237 17 C161 15 141 27 141 108 L141 542 L143 542 L531 -11 L545 -11 L545 594 C545 646 563 665 615 665 L615 682 L418 682 L418 665 C490 666 507 651 507 575 L507 190 L505 190 L159 682 L11 682 Z M206 750 C208 799 219 819 243 819 C276 819 330 750 387 750 C435 750 458 804 458 877 L442 877 C441 834 427 809 405 809 C374 809 311 878 265 878 C241 878 222 867 209 846 C196 824 190 792 189 750 L206 750 Z " />
<glyph glyph-name="Ograve" unicode="&#xd2;" horiz-adv-x="594" d="M27 341 C27 153 123 -15 297 -15 C479 -15 567 163 567 341 C567 516 480 697 297 697 C114 697 27 516 27 341 L27 341 Z M139 341 C139 551 180 662 297 662 C408 662 455 566 455 341 C455 145 422 20 297 20 C186 20 139 116 139 341 L139 341 Z M359 729 L322 898 L225 898 L343 729 L359 729 Z " />
<glyph glyph-name="Oacute" unicode="&#xd3;" horiz-adv-x="594" d="M27 341 C27 153 123 -15 297 -15 C479 -15 567 163 567 341 C567 516 480 697 297 697 C114 697 27 516 27 341 L27 341 Z M139 341 C139 551 180 662 297 662 C408 662 455 566 455 341 C455 145 422 20 297 20 C186 20 139 116 139 341 L139 341 Z M236 729 L252 729 L370 898 L273 898 L236 729 Z " />
<glyph glyph-name="Ocircumflex" unicode="&#xd4;" horiz-adv-x="594" d="M27 341 C27 153 123 -15 297 -15 C479 -15 567 163 567 341 C567 516 480 697 297 697 C114 697 27 516 27 341 L27 341 Z M139 341 C139 551 180 662 297 662 C408 662 455 566 455 341 C455 145 422 20 297 20 C186 20 139 116 139 341 L139 341 Z M299 836 L409 734 L426 734 L340 894 L257 894 L169 734 L186 734 L299 836 Z " />
<glyph glyph-name="Otilde" unicode="&#xd5;" horiz-adv-x="594" d="M27 341 C27 153 123 -15 297 -15 C479 -15 567 163 567 341 C567 516 480 697 297 697 C114 697 27 516 27 341 L27 341 Z M139 341 C139 551 180 662 297 662 C408 662 455 566 455 341 C455 145 422 20 297 20 C186 20 139 116 139 341 L139 341 Z M165 750 C167 799 178 819 202 819 C235 819 289 750 346 750 C394 750 417 804 417 877 L401 877 C400 834 386 809 364 809 C333 809 270 878 224 878 C200 878 181 867 168 846 C155 824 149 792 148 750 L165 750 Z " />
<glyph glyph-name="Odieresis" unicode="&#xd6;" horiz-adv-x="594" d="M27 341 C27 153 123 -15 297 -15 C479 -15 567 163 567 341 C567 516 480 697 297 697 C114 697 27 516 27 341 L27 341 Z M139 341 C139 551 180 662 297 662 C408 662 455 566 455 341 C455 145 422 20 297 20 C186 20 139 116 139 341 L139 341 Z M217 867 C188 867 164 843 164 814 C164 785 188 761 217 761 C246 761 270 785 270 814 C270 843 246 867 217 867 L217 867 Z M379 867 C350 867 326 843 326 814 C326 785 350 761 379 761 C408 761 432 785 432 814 C432 843 408 867 379 867 L379 867 Z " />
<glyph glyph-name="multiply" unicode="&#xd7;" horiz-adv-x="668" d="M93 542 L297 338 L94 136 L131 99 L334 301 L536 99 L573 136 L371 338 L575 542 L538 580 L334 375 L130 580 L93 542 Z " />
<glyph glyph-name="Oslash" unicode="&#xd8;" horiz-adv-x="594" d="M163 131 C146 183 139 252 139 341 C139 551 180 662 297 662 C348 662 385 642 410 598 L163 131 Z M429 556 C447 505 455 434 455 341 C455 145 422 20 297 20 C245 20 207 41 182 87 L429 556 Z M121 -28 L153 33 C192 3 241 -15 297 -15 C479 -15 567 163 567 341 C567 448 534 558 466 627 L503 696 L471 713 L438 651 C400 680 353 697 297 697 C114 697 27 516 27 341 C27 230 61 126 125 59 L88 -11 L121 -28 Z " />
<glyph glyph-name="Ugrave" unicode="&#xd9;" horiz-adv-x="646" d="M20 682 L20 665 C82 665 98 650 98 575 L98 214 C98 27 229 -15 328 -15 C463 -15 552 60 552 207 L552 575 C552 649 569 665 627 665 L627 682 L435 682 L435 665 C500 665 514 649 514 575 L514 211 C514 91 445 20 345 20 C267 20 192 63 192 192 L192 575 C192 648 207 665 269 665 L269 682 L20 682 Z M395 729 L358 898 L261 898 L379 729 L395 729 Z " />
<glyph glyph-name="Uacute" unicode="&#xda;" horiz-adv-x="646" d="M20 682 L20 665 C82 665 98 650 98 575 L98 214 C98 27 229 -15 328 -15 C463 -15 552 60 552 207 L552 575 C552 649 569 665 627 665 L627 682 L435 682 L435 665 C500 665 514 649 514 575 L514 211 C514 91 445 20 345 20 C267 20 192 63 192 192 L192 575 C192 648 207 665 269 665 L269 682 L20 682 Z M302 729 L318 729 L436 898 L339 898 L302 729 Z " />
<glyph glyph-name="Ucircumflex" unicode="&#xdb;" horiz-adv-x="646" d="M20 682 L20 665 C82 665 98 650 98 575 L98 214 C98 27 229 -15 328 -15 C463 -15 552 60 552 207 L552 575 C552 649 569 665 627 665 L627 682 L435 682 L435 665 C500 665 514 649 514 575 L514 211 C514 91 445 20 345 20 C267 20 192 63 192 192 L192 575 C192 648 207 665 269 665 L269 682 L20 682 Z M345 836 L455 734 L472 734 L386 894 L303 894 L215 734 L232 734 L345 836 Z " />
<glyph glyph-name="Udieresis" unicode="&#xdc;" horiz-adv-x="646" d="M20 682 L20 665 C82 665 98 650 98 575 L98 214 C98 27 229 -15 328 -15 C463 -15 552 60 552 207 L552 575 C552 649 569 665 627 665 L627 682 L435 682 L435 665 C500 665 514 649 514 575 L514 211 C514 91 445 20 345 20 C267 20 192 63 192 192 L192 575 C192 648 207 665 269 665 L269 682 L20 682 Z M253 867 C224 867 200 843 200 814 C200 785 224 761 253 761 C282 761 306 785 306 814 C306 843 282 867 253 867 L253 867 Z M415 867 C386 867 362 843 362 814 C362 785 386 761 415 761 C444 761 468 785 468 814 C468 843 444 867 415 867 L415 867 Z " />
<glyph glyph-name="Yacute" unicode="&#xdd;" horiz-adv-x="594" d="M343 292 L477 581 C507 645 526 661 577 665 L577 682 L402 682 L402 665 C438 665 454 660 454 638 C454 630 452 620 449 612 L326 345 L193 612 C187 623 184 632 184 640 C184 659 194 665 245 665 L245 682 L17 682 L17 665 C54 661 68 650 91 604 L249 286 L249 108 C249 29 233 17 162 17 L162 0 L430 0 L430 17 C359 16 343 28 343 108 L343 292 Z M276 729 L292 729 L410 898 L313 898 L276 729 Z " />
<glyph glyph-name="Thorn" unicode="&#xde;" horiz-adv-x="542" d="M292 682 L24 682 L24 665 C96 665 111 654 111 575 L111 108 C111 34 98 16 24 17 L24 0 L295 0 L295 17 C221 16 205 29 205 108 L205 153 L293 153 C411 153 520 224 520 342 C520 456 418 532 296 532 L205 532 L205 575 C205 657 223 665 292 665 L292 682 Z M205 191 L205 494 L274 494 C361 494 408 417 408 333 C408 251 358 191 270 191 L205 191 Z " />
<glyph glyph-name="germandbls" unicode="&#xdf;" horiz-adv-x="448" d="M228 393 C310 386 339 257 339 154 C339 77 320 25 291 25 C281 25 273 32 273 40 C273 50 286 57 286 82 C286 105 270 121 248 121 C226 121 209 101 209 73 C209 31 246 -5 290 -5 C364 -5 422 93 422 217 C422 327 382 390 295 414 C355 447 382 492 382 553 C382 644 314 713 224 713 C111 713 74 621 74 521 L74 93 C74 47 63 18 24 17 L24 0 L201 0 L201 17 C167 23 154 43 154 93 L154 567 C154 643 176 680 219 680 C269 680 298 633 298 555 C298 471 278 432 228 422 L228 393 Z " />
<glyph glyph-name="agrave" unicode="&#xe0;" horiz-adv-x="396" d="M239 298 L152 253 C48 199 25 149 25 94 C25 31 67 -14 126 -14 C170 -14 207 13 238 70 L240 70 C240 15 259 -14 295 -14 C325 -14 356 7 381 45 L381 62 C364 49 356 45 345 45 C328 45 319 59 319 92 L319 362 C319 433 269 471 194 471 C109 471 41 422 41 361 C41 330 59 309 85 309 C108 309 126 326 126 346 C126 361 117 376 117 392 C117 424 144 450 178 450 C218 450 239 422 239 368 L239 298 Z M239 270 L239 97 C212 61 188 45 164 45 C132 45 108 79 108 126 C108 187 147 224 239 270 L239 270 Z M240 521 L203 690 L106 690 L224 521 L240 521 Z " />
<glyph glyph-name="aacute" unicode="&#xe1;" horiz-adv-x="396" d="M239 298 L152 253 C48 199 25 149 25 94 C25 31 67 -14 126 -14 C170 -14 207 13 238 70 L240 70 C240 15 259 -14 295 -14 C325 -14 356 7 381 45 L381 62 C364 49 356 45 345 45 C328 45 319 59 319 92 L319 362 C319 433 269 471 194 471 C109 471 41 422 41 361 C41 330 59 309 85 309 C108 309 126 326 126 346 C126 361 117 376 117 392 C117 424 144 450 178 450 C218 450 239 422 239 368 L239 298 Z M239 270 L239 97 C212 61 188 45 164 45 C132 45 108 79 108 126 C108 187 147 224 239 270 L239 270 Z M142 521 L158 521 L276 690 L179 690 L142 521 Z " />
<glyph glyph-name="acircumflex" unicode="&#xe2;" horiz-adv-x="396" d="M239 298 L152 253 C48 199 25 149 25 94 C25 31 67 -14 126 -14 C170 -14 207 13 238 70 L240 70 C240 15 259 -14 295 -14 C325 -14 356 7 381 45 L381 62 C364 49 356 45 345 45 C328 45 319 59 319 92 L319 362 C319 433 269 471 194 471 C109 471 41 422 41 361 C41 330 59 309 85 309 C108 309 126 326 126 346 C126 361 117 376 117 392 C117 424 144 450 178 450 C218 450 239 422 239 368 L239 298 Z M239 270 L239 97 C212 61 188 45 164 45 C132 45 108 79 108 126 C108 187 147 224 239 270 L239 270 Z M185 628 L295 526 L312 526 L226 686 L143 686 L55 526 L72 526 L185 628 Z " />
<glyph glyph-name="atilde" unicode="&#xe3;" horiz-adv-x="396" d="M239 298 L152 253 C48 199 25 149 25 94 C25 31 67 -14 126 -14 C170 -14 207 13 238 70 L240 70 C240 15 259 -14 295 -14 C325 -14 356 7 381 45 L381 62 C364 49 356 45 345 45 C328 45 319 59 319 92 L319 362 C319 433 269 471 194 471 C109 471 41 422 41 361 C41 330 59 309 85 309 C108 309 126 326 126 346 C126 361 117 376 117 392 C117 424 144 450 178 450 C218 450 239 422 239 368 L239 298 Z M239 270 L239 97 C212 61 188 45 164 45 C132 45 108 79 108 126 C108 187 147 224 239 270 L239 270 Z M66 542 C68 591 79 611 103 611 C136 611 190 542 247 542 C295 542 318 596 318 669 L302 669 C301 626 287 601 265 601 C234 601 171 670 125 670 C101 670 82 659 69 638 C56 616 50 584 49 542 L66 542 Z " />
<glyph glyph-name="adieresis" unicode="&#xe4;" horiz-adv-x="396" d="M239 298 L152 253 C48 199 25 149 25 94 C25 31 67 -14 126 -14 C170 -14 207 13 238 70 L240 70 C240 15 259 -14 295 -14 C325 -14 356 7 381 45 L381 62 C364 49 356 45 345 45 C328 45 319 59 319 92 L319 362 C319 433 269 471 194 471 C109 471 41 422 41 361 C41 330 59 309 85 309 C108 309 126 326 126 346 C126 361 117 376 117 392 C117 424 144 450 178 450 C218 450 239 422 239 368 L239 298 Z M239 270 L239 97 C212 61 188 45 164 45 C132 45 108 79 108 126 C108 187 147 224 239 270 L239 270 Z M103 659 C74 659 50 635 50 606 C50 577 74 553 103 553 C132 553 156 577 156 606 C156 635 132 659 103 659 L103 659 Z M265 659 C236 659 212 635 212 606 C212 577 236 553 265 553 C294 553 318 577 318 606 C318 635 294 659 265 659 L265 659 Z " />
<glyph glyph-name="aring" unicode="&#xe5;" horiz-adv-x="396" d="M239 298 L152 253 C48 199 25 149 25 94 C25 31 67 -14 126 -14 C170 -14 207 13 238 70 L240 70 C240 15 259 -14 295 -14 C325 -14 356 7 381 45 L381 62 C364 49 356 45 345 45 C328 45 319 59 319 92 L319 362 C319 433 269 471 194 471 C109 471 41 422 41 361 C41 330 59 309 85 309 C108 309 126 326 126 346 C126 361 117 376 117 392 C117 424 144 450 178 450 C218 450 239 422 239 368 L239 298 Z M239 270 L239 97 C212 61 188 45 164 45 C132 45 108 79 108 126 C108 187 147 224 239 270 L239 270 Z M184 712 C133 712 91 670 91 619 C91 568 133 526 184 526 C235 526 277 568 277 619 C277 670 235 712 184 712 L184 712 Z M184 682 C219 682 247 654 247 619 C247 584 219 556 184 556 C149 556 121 584 121 619 C121 654 149 682 184 682 L184 682 Z " />
<glyph glyph-name="ae" unicode="&#xe6;" horiz-adv-x="542" d="M297 253 L516 253 C513 409 455 471 381 471 C343 471 311 455 283 422 C249 457 215 471 167 471 C92 471 33 420 33 356 C33 329 50 309 75 309 C98 309 117 325 117 346 C117 361 108 382 108 401 C108 429 128 449 156 449 C204 449 218 407 218 337 L218 299 C80 235 21 173 21 93 C21 32 61 -14 116 -14 C154 -14 187 7 246 67 C276 10 312 -14 367 -14 C447 -14 507 52 524 159 L507 165 C483 93 450 62 399 62 C333 62 294 122 297 253 L297 253 Z M218 270 C216 248 216 236 216 218 C216 160 222 124 238 86 C211 59 183 45 156 45 C121 45 102 74 102 125 C102 188 139 235 218 270 L218 270 Z M436 284 L297 284 C298 387 319 433 366 433 C413 433 432 387 436 284 L436 284 Z " />
<glyph glyph-name="ccedilla" unicode="&#xe7;" horiz-adv-x="344" d="M306 175 C292 105 259 66 214 66 C147 66 107 146 107 278 C107 382 132 438 181 438 C203 438 220 423 220 403 C220 392 215 380 215 373 C215 344 237 323 267 323 C294 323 313 341 313 367 C313 422 255 471 191 471 C93 471 27 371 27 222 C27 81 89 -14 183 -14 C186 -14 189 -14 190 -13 L114 -88 C155 -89 178 -106 178 -136 C178 -168 151 -193 83 -192 L77 -210 C94 -212 104 -213 118 -213 C204 -213 257 -178 257 -122 C257 -83 232 -57 193 -54 L251 11 C288 41 314 97 323 171 L306 175 Z " />
<glyph glyph-name="egrave" unicode="&#xe8;" horiz-adv-x="344" d="M320 253 C319 391 266 471 177 471 C60 471 25 324 25 218 C25 81 85 -14 172 -14 C245 -14 304 55 320 157 L304 164 C279 95 247 63 205 63 C145 63 107 134 102 253 L320 253 Z M102 284 C104 391 126 438 170 438 C213 438 234 391 235 284 L102 284 Z M224 521 L187 690 L90 690 L208 521 L224 521 Z " />
<glyph glyph-name="eacute" unicode="&#xe9;" horiz-adv-x="344" d="M320 253 C319 391 266 471 177 471 C60 471 25 324 25 218 C25 81 85 -14 172 -14 C245 -14 304 55 320 157 L304 164 C279 95 247 63 205 63 C145 63 107 134 102 253 L320 253 Z M102 284 C104 391 126 438 170 438 C213 438 234 391 235 284 L102 284 Z M116 521 L132 521 L250 690 L153 690 L116 521 Z " />
<glyph glyph-name="ecircumflex" unicode="&#xea;" horiz-adv-x="344" d="M320 253 C319 391 266 471 177 471 C60 471 25 324 25 218 C25 81 85 -14 172 -14 C245 -14 304 55 320 157 L304 164 C279 95 247 63 205 63 C145 63 107 134 102 253 L320 253 Z M102 284 C104 391 126 438 170 438 C213 438 234 391 235 284 L102 284 Z M174 628 L284 526 L301 526 L215 686 L132 686 L44 526 L61 526 L174 628 Z " />
<glyph glyph-name="edieresis" unicode="&#xeb;" horiz-adv-x="344" d="M320 253 C319 391 266 471 177 471 C60 471 25 324 25 218 C25 81 85 -14 172 -14 C245 -14 304 55 320 157 L304 164 C279 95 247 63 205 63 C145 63 107 134 102 253 L320 253 Z M102 284 C104 391 126 438 170 438 C213 438 234 391 235 284 L102 284 Z M92 659 C63 659 39 635 39 606 C39 577 63 553 92 553 C121 553 145 577 145 606 C145 635 121 659 92 659 L92 659 Z M254 659 C225 659 201 635 201 606 C201 577 225 553 254 553 C283 553 307 577 307 606 C307 635 283 659 254 659 L254 659 Z " />
<glyph glyph-name="igrave" unicode="&#xec;" horiz-adv-x="250" d="M168 471 L151 471 L21 411 L28 396 C42 401 47 402 55 402 C76 402 88 382 88 356 L88 93 C88 37 67 16 25 17 L25 0 L227 0 L227 17 C191 17 168 37 168 84 L168 471 Z M167 521 L130 690 L33 690 L151 521 L167 521 Z " />
<glyph glyph-name="iacute" unicode="&#xed;" horiz-adv-x="250" d="M168 471 L151 471 L21 411 L28 396 C42 401 47 402 55 402 C76 402 88 382 88 356 L88 93 C88 37 67 16 25 17 L25 0 L227 0 L227 17 C191 17 168 37 168 84 L168 471 Z M69 521 L85 521 L203 690 L106 690 L69 521 Z " />
<glyph glyph-name="icircumflex" unicode="&#xee;" horiz-adv-x="250" d="M168 471 L151 471 L21 411 L28 396 C42 401 47 402 55 402 C76 402 88 382 88 356 L88 93 C88 37 67 16 25 17 L25 0 L227 0 L227 17 C191 17 168 37 168 84 L168 471 Z M127 628 L237 526 L254 526 L168 686 L85 686 L-3 526 L14 526 L127 628 Z " />
<glyph glyph-name="idieresis" unicode="&#xef;" horiz-adv-x="250" d="M168 471 L151 471 L21 411 L28 396 C42 401 47 402 55 402 C76 402 88 382 88 356 L88 93 C88 37 67 16 25 17 L25 0 L227 0 L227 17 C191 17 168 37 168 84 L168 471 Z M45 659 C16 659 -8 635 -8 606 C-8 577 16 553 45 553 C74 553 98 577 98 606 C98 635 74 659 45 659 L45 659 Z M207 659 C178 659 154 635 154 606 C154 577 178 553 207 553 C236 553 260 577 260 606 C260 635 236 659 207 659 L207 659 Z " />
<glyph glyph-name="eth" unicode="&#xf0;" horiz-adv-x="448" d="M207 571 C235 533 249 509 270 466 C256 469 233 471 220 471 C153 471 34 410 34 227 C34 85 110 -14 219 -14 C334 -14 414 87 414 231 C414 360 354 492 248 596 L347 660 L333 687 L225 619 C186 651 161 670 118 695 L107 673 C143 647 158 630 188 596 L88 532 L101 505 L207 571 Z M127 256 C127 341 137 436 218 436 C287 436 321 359 321 203 C321 110 306 21 229 21 C146 21 127 143 127 256 L127 256 Z " />
<glyph glyph-name="ntilde" unicode="&#xf1;" horiz-adv-x="448" d="M154 471 L138 471 L21 414 L25 399 C35 402 40 403 47 403 C66 403 74 391 74 371 L74 93 C74 44 59 18 21 17 L21 0 L212 0 L212 17 C174 17 154 35 154 93 L154 351 C183 393 212 412 243 412 C281 412 300 388 300 339 L300 93 C300 40 281 17 242 17 L242 0 L428 0 L428 17 C399 17 380 41 380 80 L380 339 C380 426 345 471 282 471 C237 471 199 444 156 379 L154 379 L154 471 Z M107 542 C109 591 120 611 144 611 C177 611 231 542 288 542 C336 542 359 596 359 669 L343 669 C342 626 328 601 306 601 C275 601 212 670 166 670 C142 670 123 659 110 638 C97 616 91 584 90 542 L107 542 Z " />
<glyph glyph-name="ograve" unicode="&#xf2;" horiz-adv-x="448" d="M33 228 C33 84 110 -14 221 -14 C334 -14 414 88 414 232 C414 373 337 471 227 471 C114 471 33 371 33 228 L33 228 Z M126 257 C126 363 147 438 218 438 C287 438 321 360 321 202 C321 96 300 19 229 19 C153 19 126 123 126 257 L126 257 Z M266 521 L229 690 L132 690 L250 521 L266 521 Z " />
<glyph glyph-name="oacute" unicode="&#xf3;" horiz-adv-x="448" d="M33 228 C33 84 110 -14 221 -14 C334 -14 414 88 414 232 C414 373 337 471 227 471 C114 471 33 371 33 228 L33 228 Z M126 257 C126 363 147 438 218 438 C287 438 321 360 321 202 C321 96 300 19 229 19 C153 19 126 123 126 257 L126 257 Z M168 521 L184 521 L302 690 L205 690 L168 521 Z " />
<glyph glyph-name="ocircumflex" unicode="&#xf4;" horiz-adv-x="448" d="M33 228 C33 84 110 -14 221 -14 C334 -14 414 88 414 232 C414 373 337 471 227 471 C114 471 33 371 33 228 L33 228 Z M126 257 C126 363 147 438 218 438 C287 438 321 360 321 202 C321 96 300 19 229 19 C153 19 126 123 126 257 L126 257 Z M226 628 L336 526 L353 526 L267 686 L184 686 L96 526 L113 526 L226 628 Z " />
<glyph glyph-name="otilde" unicode="&#xf5;" horiz-adv-x="448" d="M33 228 C33 84 110 -14 221 -14 C334 -14 414 88 414 232 C414 373 337 471 227 471 C114 471 33 371 33 228 L33 228 Z M126 257 C126 363 147 438 218 438 C287 438 321 360 321 202 C321 96 300 19 229 19 C153 19 126 123 126 257 L126 257 Z M107 542 C109 591 120 611 144 611 C177 611 231 542 288 542 C336 542 359 596 359 669 L343 669 C342 626 328 601 306 601 C275 601 212 670 166 670 C142 670 123 659 110 638 C97 616 91 584 90 542 L107 542 Z " />
<glyph glyph-name="odieresis" unicode="&#xf6;" horiz-adv-x="448" d="M33 228 C33 84 110 -14 221 -14 C334 -14 414 88 414 232 C414 373 337 471 227 471 C114 471 33 371 33 228 L33 228 Z M126 257 C126 363 147 438 218 438 C287 438 321 360 321 202 C321 96 300 19 229 19 C153 19 126 123 126 257 L126 257 Z M144 659 C115 659 91 635 91 606 C91 577 115 553 144 553 C173 553 197 577 197 606 C197 635 173 659 144 659 L144 659 Z M306 659 C277 659 253 635 253 606 C253 577 277 553 306 553 C335 553 359 577 359 606 C359 635 335 659 306 659 L306 659 Z " />
<glyph glyph-name="divide" unicode="&#xf7;" horiz-adv-x="668" d="M334 582 C311 582 292 564 292 541 C292 518 311 499 334 499 C357 499 375 518 375 541 C375 564 357 582 334 582 L334 582 Z M68 372 L68 308 L599 308 L599 372 L68 372 Z M334 181 C311 181 292 163 292 140 C292 117 311 98 334 98 C357 98 375 117 375 140 C375 163 357 181 334 181 L334 181 Z " />
<glyph glyph-name="oslash" unicode="&#xf8;" horiz-adv-x="448" d="M142 111 C131 151 126 201 126 257 C126 363 147 438 218 438 C249 438 273 422 290 390 L142 111 Z M306 348 C316 311 321 262 321 202 C321 96 300 19 229 19 C196 19 173 38 157 71 L306 348 Z M352 505 L319 444 C293 461 261 471 227 471 C114 471 33 371 33 228 C33 145 59 77 102 36 L63 -36 L92 -51 L127 15 C153 -4 185 -14 221 -14 C334 -14 414 88 414 232 C414 313 389 379 346 422 L382 490 L352 505 Z " />
<glyph glyph-name="ugrave" unicode="&#xf9;" horiz-adv-x="448" d="M376 461 L238 461 L238 444 C275 444 296 427 296 368 L296 112 C274 73 239 49 206 49 C169 49 150 77 150 127 L150 461 L19 461 L19 444 C49 444 70 427 70 368 L70 113 C70 37 111 -10 167 -10 C214 -10 264 26 294 83 L296 83 L296 -10 L313 -10 L427 46 L421 62 C412 59 407 58 400 58 C380 58 376 66 376 106 L376 461 Z M261 521 L224 690 L127 690 L245 521 L261 521 Z " />
<glyph glyph-name="uacute" unicode="&#xfa;" horiz-adv-x="448" d="M376 461 L238 461 L238 444 C275 444 296 427 296 368 L296 112 C274 73 239 49 206 49 C169 49 150 77 150 127 L150 461 L19 461 L19 444 C49 444 70 427 70 368 L70 113 C70 37 111 -10 167 -10 C214 -10 264 26 294 83 L296 83 L296 -10 L313 -10 L427 46 L421 62 C412 59 407 58 400 58 C380 58 376 66 376 106 L376 461 Z M183 521 L199 521 L317 690 L220 690 L183 521 Z " />
<glyph glyph-name="ucircumflex" unicode="&#xfb;" horiz-adv-x="448" d="M376 461 L238 461 L238 444 C275 444 296 427 296 368 L296 112 C274 73 239 49 206 49 C169 49 150 77 150 127 L150 461 L19 461 L19 444 C49 444 70 427 70 368 L70 113 C70 37 111 -10 167 -10 C214 -10 264 26 294 83 L296 83 L296 -10 L313 -10 L427 46 L421 62 C412 59 407 58 400 58 C380 58 376 66 376 106 L376 461 Z M226 628 L336 526 L353 526 L267 686 L184 686 L96 526 L113 526 L226 628 Z " />
<glyph glyph-name="udieresis" unicode="&#xfc;" horiz-adv-x="448" d="M376 461 L238 461 L238 444 C275 444 296 427 296 368 L296 112 C274 73 239 49 206 49 C169 49 150 77 150 127 L150 461 L19 461 L19 444 C49 444 70 427 70 368 L70 113 C70 37 111 -10 167 -10 C214 -10 264 26 294 83 L296 83 L296 -10 L313 -10 L427 46 L421 62 C412 59 407 58 400 58 C380 58 376 66 376 106 L376 461 Z M134 659 C105 659 81 635 81 606 C81 577 105 553 134 553 C163 553 187 577 187 606 C187 635 163 659 134 659 L134 659 Z M296 659 C267 659 243 635 243 606 C243 577 267 553 296 553 C325 553 349 577 349 606 C349 635 325 659 296 659 L296 659 Z " />
<glyph glyph-name="yacute" unicode="&#xfd;" horiz-adv-x="396" d="M15 461 L15 444 C45 436 61 418 75 376 L200 0 C189 -56 165 -124 130 -124 C114 -124 102 -108 72 -108 C46 -108 26 -128 26 -155 C26 -184 51 -206 85 -206 C148 -206 197 -146 226 -34 L331 376 C343 422 351 433 378 444 L378 461 L272 461 L272 444 C297 443 306 436 306 419 C306 405 301 391 299 383 L237 141 L235 141 L155 385 C151 397 150 404 150 411 C150 433 163 443 196 444 L196 461 L15 461 Z M157 521 L173 521 L291 690 L194 690 L157 521 Z " />
<glyph glyph-name="thorn" unicode="&#xfe;" horiz-adv-x="448" d="M147 713 L129 713 L7 657 L15 641 C22 644 26 645 31 645 C58 645 67 621 67 587 L67 -113 C67 -164 47 -191 7 -189 L7 -206 L215 -206 L215 -189 C168 -193 147 -166 147 -123 L147 34 L149 34 C170 4 202 -11 240 -11 C353 -11 409 129 409 259 C409 381 349 471 266 471 C219 471 182 438 149 359 L147 359 L147 713 Z M147 330 C172 388 199 415 231 415 C286 415 319 340 319 218 C319 84 291 19 233 19 C177 19 147 66 147 164 L147 330 Z " />
<glyph glyph-name="ydieresis" unicode="&#xff;" horiz-adv-x="396" d="M15 461 L15 444 C45 436 61 418 75 376 L200 0 C189 -56 165 -124 130 -124 C114 -124 102 -108 72 -108 C46 -108 26 -128 26 -155 C26 -184 51 -206 85 -206 C148 -206 197 -146 226 -34 L331 376 C343 422 351 433 378 444 L378 461 L272 461 L272 444 C297 443 306 436 306 419 C306 405 301 391 299 383 L237 141 L235 141 L155 385 C151 397 150 404 150 411 C150 433 163 443 196 444 L196 461 L15 461 Z M118 659 C89 659 65 635 65 606 C65 577 89 553 118 553 C147 553 171 577 171 606 C171 635 147 659 118 659 L118 659 Z M280 659 C251 659 227 635 227 606 C227 577 251 553 280 553 C309 553 333 577 333 606 C333 635 309 659 280 659 L280 659 Z " />
<glyph glyph-name="dotlessi" unicode="&#x131;" horiz-adv-x="250" d="M168 471 L151 471 L21 411 L28 396 C42 401 47 402 55 402 C76 402 88 382 88 356 L88 93 C88 37 67 16 25 17 L25 0 L227 0 L227 17 C191 17 168 37 168 84 L168 471 Z " />
<glyph glyph-name="Lslash" unicode="&#x141;" horiz-adv-x="542" d="M22 682 L22 665 C93 666 111 653 111 574 L111 300 L22 230 L22 188 L111 258 L111 107 C111 34 100 16 22 17 L22 0 L469 0 L518 180 L502 185 C463 62 434 38 326 38 L255 38 C213 38 205 47 205 92 L205 321 L327 417 L327 459 L205 363 L205 574 C205 654 222 666 294 665 L294 682 L22 682 Z " />
<glyph glyph-name="lslash" unicode="&#x142;" horiz-adv-x="250" d="M167 713 L149 713 L16 654 L23 638 C36 643 42 644 51 644 C77 644 87 624 87 572 L87 359 L10 299 L10 253 L87 314 L87 93 C87 37 66 16 23 17 L23 0 L227 0 L227 17 C193 16 167 36 167 82 L167 367 L246 429 L246 474 L167 412 L167 713 Z " />
<glyph glyph-name="OE" unicode="&#x152;" horiz-adv-x="792" d="M470 340 L592 340 C639 340 666 318 664 240 L682 240 L682 479 L664 479 C666 404 640 378 577 378 L470 378 L470 644 L611 644 C682 644 709 615 719 535 L736 535 L725 682 L380 682 C364 682 347 684 331 686 C315 687 299 689 282 689 C121 689 30 562 30 336 C30 92 150 -6 261 -6 C282 -6 302 -4 323 -3 C343 -1 364 0 384 0 L730 0 L779 170 L763 175 C729 71 688 38 590 38 L519 38 C478 38 470 47 470 93 L470 340 Z M376 137 C376 71 337 29 277 29 C171 29 145 123 145 303 C145 544 174 654 283 654 C344 654 376 613 376 535 L376 137 Z " />
<glyph glyph-name="oe" unicode="&#x153;" horiz-adv-x="594" d="M570 252 C572 403 512 471 433 471 C387 471 348 445 323 399 C294 446 251 471 201 471 C113 471 29 374 29 231 C29 91 103 -14 202 -14 C249 -14 282 6 323 57 C350 8 382 -14 428 -14 C505 -14 552 41 577 158 L561 164 C537 98 504 65 461 65 C396 65 361 128 361 252 L570 252 Z M119 297 C119 383 141 436 193 436 C242 436 280 382 280 192 C280 111 276 21 206 21 C133 21 119 128 119 297 L119 297 Z M361 283 C358 398 387 433 425 433 C468 433 487 388 490 283 L361 283 Z " />
<glyph glyph-name="Scaron" unicode="&#x160;" horiz-adv-x="448" d="M36 -14 L55 -14 C59 10 71 21 91 21 C121 21 161 -15 230 -15 C336 -15 418 66 418 171 C418 223 395 276 357 314 C300 371 199 423 153 469 C122 500 108 533 108 569 C108 620 150 659 207 659 C269 659 362 607 368 474 L385 474 L385 697 L368 697 C362 675 349 663 332 663 C311 663 272 697 197 697 C99 697 31 627 31 526 C31 469 54 425 94 385 C141 338 242 279 279 242 C315 206 328 175 328 134 C328 70 284 23 223 23 C146 23 62 84 55 215 L36 215 L36 -14 Z M223 792 L113 894 L96 894 L182 734 L265 734 L353 894 L336 894 L223 792 Z " />
<glyph glyph-name="scaron" unicode="&#x161;" horiz-adv-x="292" d="M26 0 L44 0 C44 4 51 10 57 10 C69 10 105 -14 146 -14 C215 -14 268 43 268 117 C268 156 262 179 209 232 C176 265 119 315 111 323 C90 344 80 368 80 387 C80 416 104 441 133 441 C176 441 211 396 226 318 L244 318 L244 461 L226 461 C222 454 218 451 210 451 C197 451 168 471 130 471 C68 471 25 420 25 347 C25 309 36 277 71 242 C86 227 148 173 164 157 C192 129 200 107 200 84 C200 46 174 16 142 16 C90 16 51 71 43 154 L26 154 L26 0 Z M145 584 L35 686 L18 686 L104 526 L187 526 L275 686 L258 686 L145 584 Z " />
<glyph glyph-name="Ydieresis" unicode="&#x178;" horiz-adv-x="594" d="M343 292 L477 581 C507 645 526 661 577 665 L577 682 L402 682 L402 665 C438 665 454 660 454 638 C454 630 452 620 449 612 L326 345 L193 612 C187 623 184 632 184 640 C184 659 194 665 245 665 L245 682 L17 682 L17 665 C54 661 68 650 91 604 L249 286 L249 108 C249 29 233 17 162 17 L162 0 L430 0 L430 17 C359 16 343 28 343 108 L343 292 Z M227 867 C198 867 174 843 174 814 C174 785 198 761 227 761 C256 761 280 785 280 814 C280 843 256 867 227 867 L227 867 Z M389 867 C360 867 336 843 336 814 C336 785 360 761 389 761 C418 761 442 785 442 814 C442 843 418 867 389 867 L389 867 Z " />
<glyph glyph-name="Zcaron" unicode="&#x17d;" horiz-adv-x="490" d="M343 644 L18 17 L18 0 L443 0 L473 181 L456 181 C436 78 411 38 291 38 L133 38 L467 682 L70 682 L67 514 L84 514 C89 626 124 644 203 644 L343 644 Z M244 792 L134 894 L117 894 L203 734 L286 734 L374 894 L357 894 L244 792 Z " />
<glyph glyph-name="zcaron" unicode="&#x17e;" horiz-adv-x="344" d="M52 461 L52 340 L69 340 C76 408 90 427 142 427 L226 427 L14 17 L14 0 L317 0 L317 135 L301 135 C294 55 276 34 202 34 L113 34 L327 444 L327 461 L52 461 Z M171 584 L61 686 L44 686 L130 526 L213 526 L301 686 L284 686 L171 584 Z " />
<glyph glyph-name="florin" unicode="&#x192;" horiz-adv-x="488" d="M311 392 L381 392 L388 423 L318 423 L340 533 C362 645 395 673 423 673 C431 673 438 668 438 661 C438 648 428 641 428 623 C428 605 441 593 459 593 C481 593 498 612 498 637 C498 669 469 693 429 693 C396 693 369 678 344 653 C286 595 266 478 230 442 C220 432 207 426 182 423 L175 392 L235 392 L141 -62 C122 -153 91 -188 60 -188 C53 -188 45 -185 45 -178 C45 -166 61 -165 61 -142 C61 -126 48 -113 30 -113 C9 -113 -10 -133 -10 -157 C-10 -185 16 -206 51 -206 C121 -206 203 -120 265 173 L311 392 Z " />
<glyph glyph-name="circumflex" unicode="&#x2c6;" horiz-adv-x="333" d="M168 639 L278 537 L295 537 L209 697 L126 697 L38 537 L55 537 L168 639 Z " />
<glyph glyph-name="caron" unicode="&#x2c7;" horiz-adv-x="333" d="M165 595 L55 697 L38 697 L124 537 L207 537 L295 697 L278 697 L165 595 Z " />
<glyph glyph-name="breve" unicode="&#x2d8;" horiz-adv-x="333" d="M267 684 C259 644 228 625 167 625 C106 625 74 644 66 684 L48 684 C48 603 100 550 167 550 C235 550 287 607 285 684 L267 684 Z " />
<glyph glyph-name="dotaccent" unicode="&#x2d9;" horiz-adv-x="333" d="M167 670 C138 670 114 646 114 617 C114 588 138 564 167 564 C196 564 220 588 220 617 C220 646 196 670 167 670 L167 670 Z " />
<glyph glyph-name="ring" unicode="&#x2da;" horiz-adv-x="333" d="M167 723 C116 723 74 681 74 630 C74 579 116 537 167 537 C218 537 260 579 260 630 C260 681 218 723 167 723 L167 723 Z M167 693 C202 693 230 665 230 630 C230 595 202 567 167 567 C132 567 104 595 104 630 C104 665 132 693 167 693 L167 693 Z " />
<glyph glyph-name="ogonek" unicode="&#x2db;" horiz-adv-x="333" d="M143 5 C96 -16 66 -57 66 -101 C66 -161 121 -214 183 -214 C215 -214 246 -202 267 -181 L256 -166 C187 -172 139 -114 139 -67 C139 -41 151 -21 179 5 L143 5 Z " />
<glyph glyph-name="tilde" unicode="&#x2dc;" horiz-adv-x="333" d="M49 553 C51 602 62 622 86 622 C119 622 173 553 230 553 C278 553 301 607 301 680 L285 680 C284 637 270 612 248 612 C217 612 154 681 108 681 C84 681 65 670 52 649 C39 627 33 595 32 553 L49 553 Z " />
<glyph glyph-name="hungarumlaut" unicode="&#x2dd;" horiz-adv-x="333" d="M210 532 L226 532 L344 701 L247 701 L210 532 Z M78 532 L94 532 L212 701 L115 701 L78 532 Z " />
<glyph glyph-name="endash" unicode="&#x2013;" horiz-adv-x="500" d="M0 265 L0 234 L500 234 L500 265 L0 265 Z " />
<glyph glyph-name="emdash" unicode="&#x2014;" horiz-adv-x="1000" d="M0 265 L0 234 L1000 234 L1000 265 L0 265 Z " />
<glyph glyph-name="quoteleft" unicode="&#x2018;" horiz-adv-x="250" d="M170 713 C101 687 54 618 54 565 C54 506 94 465 135 465 C169 465 196 489 196 523 C196 552 177 575 147 575 C127 575 127 565 116 565 C107 565 99 575 99 595 C99 622 117 664 170 692 L170 713 Z " />
<glyph glyph-name="quoteright" unicode="&#x2019;" horiz-adv-x="250" d="M80 465 C149 491 196 560 196 613 C196 672 156 713 115 713 C81 713 54 689 54 655 C54 626 73 603 103 603 C123 603 123 613 134 613 C143 613 151 603 151 583 C151 556 133 514 80 486 L80 465 Z " />
<glyph glyph-name="quotesinglbase" unicode="&#x201a;" horiz-adv-x="250" d="M61 -168 C145 -136 194 -75 194 -1 C194 56 161 97 114 97 C80 97 54 72 54 38 C54 8 76 -17 104 -17 C116 -17 123 -13 129 -8 C135 -4 140 0 145 0 C153 0 158 -10 158 -25 C158 -71 124 -115 61 -150 L61 -168 Z " />
<glyph glyph-name="quotedblleft" unicode="&#x201c;" horiz-adv-x="448" d="M373 713 C304 687 257 618 257 565 C257 506 297 465 338 465 C372 465 399 489 399 523 C399 552 380 575 350 575 C330 575 330 565 319 565 C310 565 302 575 302 595 C302 622 320 664 373 692 L373 713 Z M170 713 C101 687 54 618 54 565 C54 506 94 465 135 465 C169 465 196 489 196 523 C196 552 177 575 147 575 C127 575 127 565 116 565 C107 565 99 575 99 595 C99 622 117 664 170 692 L170 713 Z " />
<glyph glyph-name="quotedblright" unicode="&#x201d;" horiz-adv-x="448" d="M278 465 C347 491 394 560 394 613 C394 672 354 713 313 713 C279 713 252 689 252 655 C252 626 271 603 301 603 C321 603 321 613 332 613 C341 613 349 603 349 583 C349 556 331 514 278 486 L278 465 Z M75 465 C144 491 191 560 191 613 C191 672 151 713 110 713 C76 713 49 689 49 655 C49 626 68 603 98 603 C118 603 118 613 129 613 C138 613 146 603 146 583 C146 556 128 514 75 486 L75 465 Z " />
<glyph glyph-name="quotedblbase" unicode="&#x201e;" horiz-adv-x="448" d="M283 -151 C352 -125 399 -56 399 -3 C399 56 359 97 318 97 C284 97 257 73 257 39 C257 10 276 -13 306 -13 C316 -13 321 -10 325 -8 C329 -5 332 -3 337 -3 C346 -3 354 -13 354 -33 C354 -60 336 -102 283 -130 L283 -151 Z M80 -151 C149 -125 196 -56 196 -3 C196 56 156 97 115 97 C81 97 54 73 54 39 C54 10 73 -13 103 -13 C113 -13 118 -10 122 -8 C126 -5 129 -3 134 -3 C143 -3 151 -13 151 -33 C151 -60 133 -102 80 -130 L80 -151 Z " />
<glyph glyph-name="dagger" unicode="&#x2020;" horiz-adv-x="448" d="M215 -206 L233 -206 L233 -152 C233 50 252 236 281 331 C247 358 232 393 233 443 C280 446 302 407 352 407 C381 407 402 428 402 456 C402 484 382 504 355 504 C305 504 274 459 233 461 C234 515 278 561 278 626 C278 668 256 697 224 697 C192 697 171 669 171 626 C171 566 213 516 215 461 C165 462 142 504 95 504 C65 504 46 486 46 457 C46 428 67 407 96 407 C146 407 166 447 215 443 C217 394 200 358 167 331 C196 236 215 49 215 -152 L215 -206 Z " />
<glyph glyph-name="daggerdbl" unicode="&#x2021;" horiz-adv-x="448" d="M107 26 C84 26 68 10 68 -13 C68 -36 84 -53 104 -53 C140 -53 171 -19 217 -20 C218 -67 180 -118 180 -167 C180 -199 198 -222 224 -222 C250 -222 268 -199 268 -167 C268 -108 229 -75 231 -20 C283 -24 316 -53 344 -53 C364 -53 380 -36 380 -13 C380 10 364 26 341 26 C308 26 282 -2 231 -3 C231 36 242 56 273 83 C246 122 232 175 232 237 C232 299 246 353 273 392 C242 418 231 439 231 477 C278 478 307 449 341 449 C364 449 380 465 380 487 C380 510 364 527 344 527 C313 527 282 497 231 495 C231 545 268 592 268 641 C268 674 250 697 224 697 C198 697 180 674 180 643 C180 590 217 546 217 495 C162 498 135 527 104 527 C84 527 68 510 68 487 C68 465 84 449 107 449 C140 449 170 478 217 477 C216 439 206 418 175 392 C202 352 216 300 216 237 C216 175 202 123 175 83 C206 56 216 36 217 -3 C166 -2 139 26 107 26 L107 26 Z " />
<glyph glyph-name="bullet" unicode="&#x2022;" horiz-adv-x="350" d="M176 453 C108 453 53 399 53 331 C53 263 108 208 176 208 C244 208 298 263 298 331 C298 399 244 453 176 453 L176 453 Z " />
<glyph glyph-name="ellipsis" unicode="&#x2026;" horiz-adv-x="1000" d="M167 97 C137 97 112 73 112 43 C112 13 137 -12 167 -12 C197 -12 221 13 221 43 C221 73 197 97 167 97 L167 97 Z M500 97 C470 97 445 73 445 43 C445 13 470 -12 500 -12 C530 -12 554 13 554 43 C554 73 530 97 500 97 L500 97 Z M833 97 C803 97 778 73 778 43 C778 13 803 -12 833 -12 C863 -12 887 13 887 43 C887 73 863 97 833 97 L833 97 Z " />
<glyph glyph-name="perthousand" unicode="&#x2030;" horiz-adv-x="865" d="M676 177 C676 279 695 338 727 338 C760 338 779 278 779 177 C779 75 760 16 727 16 C695 16 676 75 676 177 L676 177 Z M110 -6 L510 693 L471 693 L70 -6 L110 -6 Z M86 510 C86 612 105 671 137 671 C170 671 189 611 189 510 C189 408 170 349 137 349 C105 349 86 408 86 510 L86 510 Z M608 177 C608 72 659 -6 727 -6 C796 -6 847 72 847 177 C847 282 796 360 727 360 C659 360 608 282 608 177 L608 177 Z M18 510 C18 405 69 327 137 327 C206 327 257 405 257 510 C257 615 206 693 137 693 C69 693 18 615 18 510 L18 510 Z M327 177 C327 72 378 -6 446 -6 C515 -6 566 72 566 177 C566 282 515 360 446 360 C378 360 327 282 327 177 L327 177 Z M395 177 C395 279 414 338 446 338 C479 338 498 278 498 177 C498 75 479 16 446 16 C414 16 395 75 395 177 L395 177 Z " />
<glyph glyph-name="guilsinglleft" unicode="&#x2039;" horiz-adv-x="250" d="M134 255 L216 484 L186 484 L37 255 L186 24 L216 24 L134 255 Z " />
<glyph glyph-name="guilsinglright" unicode="&#x203a;" horiz-adv-x="250" d="M116 255 L34 24 L64 24 L213 255 L64 484 L34 484 L116 255 Z " />
<glyph glyph-name="fraction" unicode="&#x2044;" horiz-adv-x="146" d="M-107 -6 L293 693 L254 693 L-147 -6 L-107 -6 Z " />
<glyph glyph-name="trademark" unicode="&#x2122;" horiz-adv-x="980" d="M25 682 L15 582 L32 582 C42 634 64 651 124 651 L163 651 L163 369 C163 317 157 310 113 306 L113 288 L296 288 L296 306 C250 308 243 317 243 369 L243 651 L280 651 C343 651 367 634 375 582 L392 582 L381 682 L25 682 Z M566 682 L425 682 L425 664 C474 664 481 657 481 598 L481 369 C481 314 473 306 425 306 L425 288 L576 288 L576 306 C520 306 511 309 511 369 L511 605 L513 605 L662 288 L678 288 L829 609 L831 609 L831 369 C831 316 822 307 769 306 L769 288 L964 288 L964 306 C915 309 911 315 911 369 L911 598 C911 655 917 663 964 664 L964 682 L831 682 L699 403 L566 682 Z " />
<glyph glyph-name="minus" unicode="&#x2212;" horiz-adv-x="667" d="M68 372 L68 308 L598 308 L598 372 L68 372 Z " />
<glyph glyph-name="fi" unicode="&#xfb01;" horiz-adv-x="448" d="M70 461 L18 461 L18 430 L70 430 L70 93 C70 43 54 18 18 17 L18 0 L209 0 L209 17 C158 18 150 57 150 86 L150 430 L243 430 C286 430 296 419 296 369 L296 93 C296 44 282 18 239 17 L239 0 L429 0 L429 17 C397 17 376 35 376 93 L376 471 L362 471 C351 464 339 461 315 461 L150 461 L150 554 C150 633 177 678 224 678 C294 678 274 584 329 584 C352 584 370 603 370 629 C370 676 317 713 249 713 C140 713 70 629 70 498 L70 461 Z " />
<glyph glyph-name="fl" unicode="&#xfb02;" horiz-adv-x="448" d="M68 461 L17 461 L17 430 L68 430 L68 93 C68 41 53 16 17 17 L17 0 L207 0 L207 17 C170 17 148 40 148 88 L148 430 L297 430 L297 93 C297 39 280 16 237 17 L237 0 L427 0 L427 17 C395 18 377 40 377 84 L377 713 L360 713 L292 680 C274 703 253 713 224 713 C140 713 68 635 68 514 L68 461 Z M297 461 L148 461 L148 551 C148 646 160 678 193 678 C231 678 212 601 265 601 C279 601 287 605 297 616 L297 461 Z " />
</font>
</svg>
