<?xml version="1.0" encoding="UTF-8"?>
<svg xmlns="http://www.w3.org/2000/svg" xmlns:xlink="http://www.w3.org/1999/xlink" version="1.2" >
<font id="Times New Roman MT Bold Condensed">
<font-face  font-family="Times New Roman MT" units-per-em="1000" ascent="750" descent="-250" font-style="normal" font-weight="700" font-stretch="condensed" cap-height="750" x-height="500" underline-position="-75" underline-thickness="50" />
<missing-glyph  horiz-adv-x="190" d="" />
<glyph glyph-name="NULL" d="" />
<glyph glyph-name="CR" unicode="&#xd;" horiz-adv-x="250" d="" />
<glyph glyph-name="space" unicode="&#x20;" horiz-adv-x="190" d="" />
<glyph glyph-name="exclam" unicode="&#x21;" horiz-adv-x="250" d="M135 221 C137 280 145 327 179 480 C197 561 201 586 201 618 C201 668 172 698 124 698 C79 698 50 666 50 615 C50 583 55 550 71 479 L90 394 C104 330 113 266 113 228 L113 221 L135 221 Z M52 61 C52 21 84 -12 125 -12 C166 -12 199 21 199 61 C199 102 166 135 125 135 C84 135 52 102 52 61 L52 61 Z " />
<glyph glyph-name="quotedbl" unicode="&#x22;" horiz-adv-x="555" d="M407 373 L455 560 C462 587 467 613 467 626 C467 666 435 698 394 698 C354 698 323 666 323 623 C323 605 326 582 332 560 L383 373 L407 373 Z M172 373 L220 560 C227 587 232 613 232 626 C232 666 200 698 159 698 C119 698 88 666 88 623 C88 605 91 582 97 560 L148 373 L172 373 Z " />
<glyph glyph-name="numbersign" unicode="&#x23;" horiz-adv-x="668" d="M196 500 L41 500 L41 419 L179 419 L146 260 L41 260 L41 179 L129 179 L89 -11 L170 -11 L210 179 L393 179 L353 -11 L434 -11 L474 179 L628 179 L628 260 L491 260 L524 419 L628 419 L628 500 L541 500 L581 691 L500 691 L460 500 L277 500 L317 691 L236 691 L196 500 Z M443 419 L410 260 L227 260 L260 419 L443 419 Z " />
<glyph glyph-name="dollar" unicode="&#x24;" horiz-adv-x="448" d="M206 23 C126 31 79 82 56 184 L38 184 L38 30 C78 8 145 -8 206 -9 L206 -64 L243 -64 L243 -8 C353 8 418 78 418 180 C418 247 391 302 331 347 L243 413 L243 638 C311 622 360 565 379 478 L396 478 L396 624 C356 650 299 667 243 671 L243 716 L206 716 L206 671 C100 661 32 592 32 495 C32 432 62 386 109 349 L206 273 L206 23 Z M243 245 C300 197 321 163 321 117 C321 70 293 36 243 25 L243 245 Z M206 442 C142 492 123 519 123 558 C123 602 158 637 206 640 L206 442 Z " />
<glyph glyph-name="percent" unicode="&#x25;" horiz-adv-x="708" d="M516 18 C500 18 495 34 495 104 L495 243 C495 329 499 337 516 337 C537 337 540 326 540 234 L540 122 C540 28 534 18 516 18 L516 18 Z M398 177 C398 62 442 -6 517 -6 C587 -6 637 53 637 181 C637 293 591 361 517 361 C442 361 398 293 398 177 L398 177 Z M179 -6 L576 693 L530 693 L132 -6 L179 -6 Z M72 510 C72 395 116 327 191 327 C261 327 311 386 311 514 C311 626 265 694 191 694 C116 694 72 626 72 510 L72 510 Z M190 351 C174 351 169 367 169 437 L169 576 C169 662 173 670 190 670 C211 670 214 659 214 567 L214 455 C214 361 208 351 190 351 L190 351 Z " />
<glyph glyph-name="ampersand" unicode="&#x26;" horiz-adv-x="594" d="M561 103 C548 82 540 76 524 76 C506 76 484 88 427 167 C442 192 454 216 468 248 L497 315 C519 366 538 384 574 391 L574 408 L398 408 L398 391 C434 386 451 366 451 328 C451 292 432 241 403 200 C371 238 330 316 285 416 C376 465 413 511 413 576 C413 647 363 698 295 698 C207 698 139 617 139 510 C139 466 148 426 164 391 C72 350 25 282 25 193 C25 75 100 -15 198 -15 C249 -15 301 12 346 61 C403 -1 423 -15 457 -15 C505 -15 549 27 574 94 L561 103 Z M322 91 C304 75 291 69 275 69 C197 69 130 237 130 293 C130 319 143 338 175 359 C196 282 278 139 322 91 L322 91 Z M271 447 C254 491 231 554 231 601 C231 636 244 657 267 657 C318 657 330 555 330 526 C330 489 314 468 271 447 L271 447 Z " />
<glyph glyph-name="quotesingle" unicode="&#x27;" horiz-adv-x="278" d="M151 373 L199 560 C206 587 211 613 211 626 C211 666 179 698 138 698 C98 698 67 666 67 623 C67 605 70 582 76 560 L127 373 L151 373 Z " />
<glyph glyph-name="parenleft" unicode="&#x28;" horiz-adv-x="292" d="M278 -165 C177 -109 144 26 144 258 C144 480 191 625 278 667 L278 698 C133 637 29 448 29 245 C29 23 147 -139 278 -197 L278 -165 Z " />
<glyph glyph-name="parenright" unicode="&#x29;" horiz-adv-x="292" d="M14 666 C115 610 148 475 148 243 C148 21 101 -124 14 -166 L14 -197 C159 -136 263 53 263 256 C263 478 145 640 14 698 L14 666 Z " />
<glyph glyph-name="asterisk" unicode="&#x2a;" horiz-adv-x="448" d="M268 651 C268 677 250 697 225 697 C198 697 179 677 179 648 C179 613 217 577 215 526 C162 535 141 601 93 601 C66 601 47 583 47 558 C47 530 70 509 102 509 C115 509 145 516 168 516 C182 516 193 514 211 508 C174 455 98 457 98 402 C98 376 116 358 142 358 C213 358 185 463 223 496 C262 460 235 358 306 358 C332 358 350 376 350 403 C350 457 277 455 233 508 C249 513 269 516 285 516 C301 516 340 508 352 508 C378 508 400 530 400 558 C400 582 381 601 356 601 C311 601 284 535 233 526 C233 581 268 608 268 651 L268 651 Z " />
<glyph glyph-name="plus" unicode="&#x2b;" horiz-adv-x="667" d="M64 384 L64 296 L289 296 L289 70 L377 70 L377 296 L603 296 L603 384 L377 384 L377 610 L289 610 L289 384 L64 384 Z " />
<glyph glyph-name="comma" unicode="&#x2c;" horiz-adv-x="250" d="M56 -180 C150 -145 208 -69 208 19 C208 88 171 134 116 134 C73 134 43 102 43 57 C43 17 69 -12 105 -12 C115 -12 122 -9 128 -6 C134 -4 139 -1 143 -1 C149 -1 154 -9 154 -21 C154 -72 111 -131 56 -158 L56 -180 Z " />
<glyph glyph-name="hyphen" unicode="&#x2d;" horiz-adv-x="292" d="M18 184 L273 184 L273 280 L18 280 L18 184 Z " />
<glyph glyph-name="period" unicode="&#x2e;" horiz-adv-x="250" d="M126 135 C85 135 52 103 52 62 C52 21 85 -12 126 -12 C167 -12 199 21 199 62 C199 103 167 135 126 135 L126 135 Z " />
<glyph glyph-name="slash" unicode="&#x2f;" horiz-adv-x="281" d="M184 682 L0 -15 L96 -15 L281 682 L184 682 Z " />
<glyph glyph-name="zero" unicode="0" horiz-adv-x="448" d="M32 340 C32 80 127 -12 224 -12 C315 -12 416 67 416 340 C416 610 315 693 224 693 C117 693 32 587 32 340 L32 340 Z M176 252 L176 461 C176 634 186 662 224 662 C261 662 272 626 272 479 L272 226 C272 56 263 19 224 19 C178 19 176 75 176 252 L176 252 Z " />
<glyph glyph-name="one" unicode="1" horiz-adv-x="448" d="M301 693 L283 693 L39 587 L45 570 C72 579 89 583 103 583 C150 583 157 550 157 464 L157 102 C157 40 138 18 89 18 L56 18 L56 0 L391 0 L391 18 L363 18 C321 18 301 41 301 98 L301 693 Z " />
<glyph glyph-name="two" unicode="2" horiz-adv-x="448" d="M384 198 C365 142 342 124 289 124 L151 124 C337 310 383 406 383 515 C383 621 315 693 215 693 C119 693 49 621 27 500 L46 494 C59 544 97 577 142 577 C204 577 244 521 244 434 C244 356 217 265 98 119 L14 16 L14 0 L373 0 L403 198 L384 198 Z " />
<glyph glyph-name="three" unicode="3" horiz-adv-x="448" d="M138 344 C236 320 306 230 306 130 C306 72 267 29 215 29 C147 29 118 118 65 118 C39 118 20 98 20 70 C20 21 76 -12 159 -12 C306 -12 402 85 402 234 C402 321 364 387 293 420 C345 453 369 495 369 552 C369 637 311 693 225 693 C140 693 83 644 39 532 L57 526 C86 578 117 602 157 602 C210 602 249 556 249 494 C249 427 210 382 138 364 L138 344 Z " />
<glyph glyph-name="four" unicode="4" horiz-adv-x="448" d="M365 0 L365 150 L428 150 L428 253 L365 253 L365 693 L309 693 L19 253 L19 150 L230 150 L230 0 L365 0 Z M230 253 L63 253 L228 509 L230 509 L230 253 Z " />
<glyph glyph-name="five" unicode="5" horiz-adv-x="448" d="M422 682 L144 682 L40 348 C297 352 344 207 344 142 C344 85 299 40 242 40 C177 40 141 121 85 121 C60 121 39 98 39 71 C39 24 98 -12 176 -12 C315 -12 419 91 419 231 C419 380 312 470 122 484 L144 558 L373 558 L422 682 Z " />
<glyph glyph-name="six" unicode="6" horiz-adv-x="448" d="M418 694 C222 677 32 556 32 277 C32 104 115 -12 237 -12 C343 -12 418 90 418 233 C418 355 361 433 271 433 C241 433 212 425 183 408 C193 569 302 658 418 677 L418 694 Z M180 363 C199 373 212 378 223 378 C247 378 259 359 270 308 C276 280 287 162 287 94 C287 38 277 19 249 19 C194 19 177 96 180 363 L180 363 Z " />
<glyph glyph-name="seven" unicode="7" horiz-adv-x="448" d="M422 682 L79 682 L33 474 L53 474 C77 542 118 558 234 558 L313 558 L156 -12 L230 -12 L422 682 Z " />
<glyph glyph-name="eight" unicode="8" horiz-adv-x="448" d="M301 393 C375 434 407 480 407 543 C407 635 339 693 234 693 C119 693 42 623 42 519 C42 446 76 390 158 329 C73 292 31 238 31 166 C31 66 112 -12 216 -12 C334 -12 417 70 417 186 C417 266 381 330 301 393 L301 393 Z M270 418 C194 478 164 523 164 574 C164 624 193 662 231 662 C274 662 298 619 298 541 C298 488 289 446 270 418 L270 418 Z M183 307 C257 254 292 195 292 123 C292 59 267 21 224 21 C171 21 145 68 145 163 C145 231 158 281 183 307 L183 307 Z " />
<glyph glyph-name="nine" unicode="9" horiz-adv-x="448" d="M32 -12 C216 4 418 113 418 405 C418 578 336 693 213 693 C107 693 32 592 32 449 C32 327 89 249 179 249 C210 249 239 257 267 274 C260 133 170 30 32 5 L32 -12 Z M270 319 C251 309 240 304 228 304 C220 304 212 306 204 314 C175 343 163 486 163 587 C163 643 173 662 202 662 C261 662 273 566 270 319 L270 319 Z " />
<glyph glyph-name="colon" unicode="&#x3a;" horiz-adv-x="250" d="M126 473 C85 473 52 441 52 400 C52 359 85 326 126 326 C167 326 199 359 199 400 C199 441 167 473 126 473 L126 473 Z M126 135 C85 135 52 103 52 62 C52 21 85 -12 126 -12 C167 -12 199 21 199 62 C199 103 167 135 126 135 L126 135 Z " />
<glyph glyph-name="semicolon" unicode="&#x3b;" horiz-adv-x="250" d="M56 -180 C150 -145 208 -69 208 19 C208 88 171 134 116 134 C73 134 43 102 43 57 C43 17 69 -12 105 -12 C115 -12 122 -9 128 -6 C134 -4 139 -1 143 -1 C149 -1 154 -9 154 -21 C154 -72 111 -131 56 -158 L56 -180 Z M126 473 C85 473 52 441 52 400 C52 359 85 326 126 326 C167 326 199 359 199 400 C199 441 167 473 126 473 L126 473 Z " />
<glyph glyph-name="less" unicode="&#x3c;" horiz-adv-x="667" d="M602 73 L602 170 L187 339 L602 508 L602 605 L64 380 L64 298 L602 73 Z " />
<glyph glyph-name="equal" unicode="&#x3d;" horiz-adv-x="667" d="M64 501 L64 413 L603 413 L603 501 L64 501 Z M64 267 L64 179 L603 179 L603 267 L64 267 Z " />
<glyph glyph-name="greater" unicode="&#x3e;" horiz-adv-x="667" d="M65 73 L603 298 L603 380 L65 605 L65 508 L481 339 L65 170 L65 73 Z " />
<glyph glyph-name="question" unicode="&#x3f;" horiz-adv-x="344" d="M156 222 L157 233 C162 304 173 323 239 378 C300 430 323 473 323 536 C323 633 256 698 155 698 C72 698 18 643 18 557 C18 510 42 480 79 480 C110 480 131 505 131 540 C131 556 127 569 118 586 L105 608 C97 622 93 632 93 640 C93 653 106 664 120 664 C162 664 191 605 191 518 C191 476 185 439 171 401 L152 350 C139 316 134 290 134 251 C134 239 135 232 136 222 L156 222 Z M77 61 C77 21 110 -12 151 -12 C191 -12 224 21 224 61 C224 102 191 135 151 135 C110 135 77 102 77 61 L77 61 Z " />
<glyph glyph-name="at" unicode="&#x40;" horiz-adv-x="930" d="M577 473 L561 415 L559 415 C552 468 531 491 490 491 C403 491 239 329 239 131 C239 64 270 21 320 21 C366 21 416 50 487 175 L489 173 C481 149 477 124 477 108 C477 54 514 21 576 21 C741 21 869 173 869 368 C869 566 728 698 518 698 C245 698 46 502 46 233 C46 -16 227 -195 478 -195 C678 -195 832 -89 909 102 L879 102 C817 -79 637 -168 479 -168 C255 -168 97 -9 97 215 C97 452 261 665 529 665 C714 665 842 539 842 359 C842 173 701 58 632 58 C609 58 592 75 592 97 C592 113 597 141 606 171 L696 478 L577 473 Z M503 454 C521 454 538 434 538 389 C538 315 500 217 445 149 C428 128 405 111 393 111 C376 111 364 131 364 157 C364 238 447 454 503 454 L503 454 Z " />
<glyph glyph-name="A" unicode="A" horiz-adv-x="542" d="M526 18 C496 22 483 38 459 120 L286 698 L268 698 L89 127 C62 40 51 24 16 18 L16 0 L157 0 L157 18 C121 17 107 30 107 51 C107 59 109 67 117 94 L137 162 L307 162 L327 94 C332 76 336 55 336 45 C336 27 324 18 286 18 L286 0 L526 0 L526 18 Z M296 199 L149 199 L223 436 L225 436 L296 199 Z " />
<glyph glyph-name="B" unicode="B" horiz-adv-x="542" d="M16 682 L16 664 C62 664 80 649 80 594 L80 92 C80 37 66 18 16 18 L16 0 L285 0 C460 0 522 99 522 185 C522 287 449 347 307 358 L307 360 C433 374 494 425 494 515 C494 584 453 682 238 682 L16 682 Z M218 373 L218 645 L229 645 C316 645 350 606 350 508 C350 413 313 373 238 373 L218 373 Z M218 336 L235 336 C325 336 368 280 368 180 C368 88 331 37 264 37 C228 37 218 50 218 104 L218 336 Z " />
<glyph glyph-name="C" unicode="C" horiz-adv-x="542" d="M519 469 L519 698 L501 698 C495 664 489 651 474 651 C437 651 403 698 312 698 C151 698 28 538 28 327 C28 125 143 -15 308 -15 C393 -15 470 26 519 98 L519 149 C455 71 411 29 337 29 C301 29 272 44 250 66 C204 112 182 195 182 341 C182 475 204 567 253 616 C277 640 307 655 342 655 C421 655 488 577 501 469 L519 469 Z " />
<glyph glyph-name="D" unicode="D" horiz-adv-x="594" d="M19 682 L19 664 C73 664 84 639 84 596 L84 87 C84 39 67 18 19 18 L19 0 L261 0 C498 0 565 177 565 342 C565 521 480 682 279 682 L19 682 Z M222 645 L249 645 C297 645 332 627 346 613 C393 566 411 458 411 339 C411 247 400 116 354 70 C338 54 310 37 266 37 C231 37 222 49 222 103 L222 645 Z " />
<glyph glyph-name="E" unicode="E" horiz-adv-x="542" d="M504 210 C461 84 410 37 281 37 C232 37 222 50 222 118 L222 328 C299 327 339 280 339 175 L357 175 L357 522 L339 522 C339 414 298 368 222 365 L222 645 L274 645 C423 645 448 557 456 487 L474 487 L474 682 L13 682 L13 664 C73 666 84 643 84 594 L84 87 C84 36 67 15 13 18 L13 0 L489 0 L522 210 L504 210 Z " />
<glyph glyph-name="F" unicode="F" horiz-adv-x="490" d="M469 495 L469 682 L19 682 L19 664 C64 664 80 642 80 599 L80 89 C80 37 66 19 19 18 L19 0 L282 0 L282 18 C230 18 218 40 218 90 L218 326 C304 325 351 278 351 174 L370 174 L370 506 L351 506 C351 407 311 366 218 363 L218 645 L275 645 C389 645 438 610 451 495 L469 495 Z " />
<glyph glyph-name="G" unicode="G" horiz-adv-x="594" d="M503 698 C499 669 486 652 469 652 C443 652 402 698 316 698 C167 698 29 551 29 319 C29 55 193 -15 314 -15 C385 -15 466 8 520 42 L520 158 C520 251 530 269 577 271 L577 289 L312 289 L312 271 C365 274 382 251 382 205 L382 42 C369 29 346 22 320 22 C230 22 183 99 183 311 C183 536 216 661 326 661 C410 661 478 586 503 466 L521 466 L521 698 L503 698 Z " />
<glyph glyph-name="H" unicode="H" horiz-adv-x="646" d="M85 599 L85 83 C85 36 68 17 20 18 L20 0 L288 0 L288 18 C242 18 223 33 223 87 L223 330 L424 330 L424 90 C424 41 411 16 359 18 L359 0 L626 0 L626 18 C573 18 562 42 562 90 L562 599 C562 649 583 665 626 664 L626 682 L359 682 L359 664 C414 665 424 641 424 595 L424 373 L223 373 L223 600 C223 645 240 665 288 664 L288 682 L20 682 L20 664 C70 666 85 641 85 599 L85 599 Z " />
<glyph glyph-name="I" unicode="I" horiz-adv-x="292" d="M16 682 L16 664 C68 665 76 633 76 596 L76 86 C76 38 58 17 16 18 L16 0 L276 0 L276 18 C228 18 214 39 214 87 L214 600 C214 648 237 666 276 664 L276 682 L16 682 Z " />
<glyph glyph-name="J" unicode="J" horiz-adv-x="448" d="M161 682 L161 664 C216 667 234 647 234 601 L234 142 C234 50 222 22 176 22 C144 22 119 37 119 56 C119 80 147 92 147 134 C147 173 121 202 86 202 C48 202 20 170 20 125 C20 46 94 -15 188 -15 C273 -15 372 34 372 166 L372 598 C372 649 391 662 429 664 L429 682 L161 682 Z " />
<glyph glyph-name="K" unicode="K" horiz-adv-x="594" d="M335 442 L417 554 C471 628 510 658 561 664 L561 682 L348 682 L348 664 C393 663 412 651 412 624 C412 604 405 588 377 549 L230 342 L228 342 L228 601 C228 647 249 666 296 664 L296 682 L31 682 L31 664 C80 664 90 639 90 601 L90 80 C90 35 73 18 31 18 L31 0 L289 0 L289 18 C240 18 228 43 228 86 L228 295 L248 323 L360 102 C376 71 381 54 381 43 C381 26 368 18 335 18 L335 0 L585 0 L585 18 C558 18 541 30 531 51 L335 442 Z " />
<glyph glyph-name="L" unicode="L" horiz-adv-x="542" d="M504 234 C459 68 405 37 283 37 C245 37 231 49 231 97 L231 598 C231 649 247 667 314 664 L314 682 L16 682 L16 664 C79 668 93 643 93 598 L93 89 C93 37 80 18 16 18 L16 0 L497 0 L522 234 L504 234 Z " />
<glyph glyph-name="M" unicode="M" horiz-adv-x="740" d="M21 682 L21 664 C70 663 80 639 80 596 L80 82 C80 37 65 19 21 18 L21 0 L179 0 L179 18 C131 18 117 38 117 87 L117 599 L119 599 L315 0 L330 0 L530 604 L532 604 L532 88 C532 37 520 18 465 18 L465 0 L726 0 L726 18 C679 20 670 47 670 93 L670 591 C670 643 686 661 726 664 L726 682 L521 682 L375 244 L373 244 L230 682 L21 682 Z " />
<glyph glyph-name="N" unicode="N" horiz-adv-x="594" d="M517 -9 L517 602 C517 651 535 664 576 664 L576 682 L415 682 L415 664 C465 664 478 643 478 597 L478 254 L476 254 L182 682 L18 682 L18 664 C24 664 37 659 44 649 L86 593 L86 84 C86 35 70 16 18 18 L18 0 L190 0 L190 18 C140 17 123 39 123 88 L123 536 L125 536 L499 -9 L517 -9 Z " />
<glyph glyph-name="O" unicode="O" horiz-adv-x="646" d="M615 339 C615 606 454 698 322 698 C213 698 31 627 31 339 C31 62 203 -15 324 -15 C440 -15 615 63 615 339 L615 339 Z M461 348 C461 156 440 22 323 22 C202 22 185 173 185 346 C185 547 216 661 323 661 C436 661 461 539 461 348 L461 348 Z " />
<glyph glyph-name="P" unicode="P" horiz-adv-x="542" d="M219 310 L284 310 C474 310 527 420 527 500 C527 549 504 597 473 628 C439 662 394 682 249 682 L17 682 L17 664 C68 667 81 639 81 596 L81 87 C81 41 69 17 17 18 L17 0 L293 0 L293 18 C235 15 219 36 219 84 L219 310 Z M219 645 L254 645 C338 645 373 602 373 499 C373 400 344 347 261 347 L219 347 L219 645 Z " />
<glyph glyph-name="Q" unicode="Q" horiz-adv-x="646" d="M594 -137 C582 -142 574 -143 560 -143 C484 -143 418 -84 403 -4 C533 41 615 145 615 338 C615 636 424 698 322 698 C201 698 31 616 31 340 C31 158 103 37 251 -6 C293 -122 380 -186 497 -186 C537 -186 571 -179 594 -166 L594 -137 Z M461 348 C461 145 434 22 323 22 C210 22 185 150 185 346 C185 553 220 661 322 661 C435 661 461 541 461 348 L461 348 Z " />
<glyph glyph-name="R" unicode="R" horiz-adv-x="594" d="M588 18 C555 18 543 30 512 93 L400 325 C477 346 523 409 523 496 C523 595 467 682 299 682 L31 682 L31 664 C81 666 96 643 96 596 L96 85 C96 39 81 17 31 18 L31 0 L302 0 L302 18 C252 18 234 30 234 86 L234 318 L259 318 L414 0 L588 0 L588 18 Z M234 645 L246 645 C344 645 379 607 379 502 C379 389 341 348 258 348 L234 348 L234 645 Z " />
<glyph glyph-name="S" unicode="S" horiz-adv-x="448" d="M397 476 L391 698 L373 698 C368 667 359 655 340 655 C311 655 268 698 196 698 C94 698 23 620 23 508 C23 450 40 406 85 361 C136 310 250 261 292 219 C317 194 326 176 326 136 C326 70 283 22 224 22 C134 22 59 112 42 238 L24 238 L24 -15 L41 -15 C47 12 59 25 77 25 C105 25 161 -15 233 -15 C343 -15 425 72 425 190 C425 248 406 302 363 345 C303 405 193 441 144 490 C128 506 113 528 113 561 C113 618 157 661 213 661 C293 661 359 588 379 476 L397 476 Z " />
<glyph glyph-name="T" unicode="T" horiz-adv-x="542" d="M42 502 C53 623 98 645 202 645 L202 85 C202 37 185 14 127 18 L127 0 L415 0 L415 18 C353 15 340 37 340 88 L340 645 C452 645 488 610 500 502 L518 502 L518 682 L24 682 L24 502 L42 502 Z " />
<glyph glyph-name="U" unicode="U" horiz-adv-x="594" d="M18 682 L18 664 C64 661 75 639 75 596 L75 172 C75 14 207 -15 297 -15 C477 -15 517 87 517 182 L517 595 C517 641 530 663 576 664 L576 682 L425 682 L425 664 C469 663 480 644 480 562 L480 200 C480 146 470 93 447 70 C427 50 395 31 337 31 C300 31 267 41 245 63 C225 83 213 118 213 174 L213 599 C213 644 231 663 271 664 L270 682 L18 682 Z " />
<glyph glyph-name="V" unicode="V" horiz-adv-x="542" d="M273 -19 L460 580 C482 649 496 659 525 664 L525 682 L385 682 L385 664 C418 664 432 656 432 635 C432 618 428 597 415 556 L318 244 L316 244 L215 589 C207 615 205 626 205 636 C205 657 218 665 255 664 L255 682 L16 682 L16 664 C46 658 60 644 75 592 L255 -19 L273 -19 Z " />
<glyph glyph-name="W" unicode="W" horiz-adv-x="792" d="M549 -15 L727 606 C740 652 755 660 779 664 L779 682 L642 682 L642 664 C680 658 690 650 690 626 C690 614 687 598 679 571 L592 263 L590 263 L499 582 C490 613 488 623 488 632 C488 651 500 659 535 664 L535 682 L284 682 L284 664 C327 656 345 634 366 558 L394 456 L320 235 L318 235 L214 588 C211 597 204 621 204 633 C204 652 219 659 253 664 L253 682 L24 682 L24 664 C45 663 52 657 67 608 L253 -15 L270 -15 L411 395 L413 395 L530 -15 L549 -15 Z " />
<glyph glyph-name="X" unicode="X" horiz-adv-x="542" d="M218 303 L119 124 C70 35 55 19 17 18 L17 0 L201 0 L201 18 C152 18 133 29 133 54 C133 69 141 89 160 124 L237 262 L313 102 C326 74 334 52 334 42 C334 28 324 17 290 18 L290 0 L525 0 L525 18 C503 20 494 31 469 84 L318 407 L399 553 C446 638 468 661 508 664 L508 682 L328 682 L328 664 C372 666 387 652 387 627 C387 614 381 598 368 575 L298 448 L226 599 C217 619 213 630 213 638 C213 654 225 664 256 664 L256 682 L17 682 L17 664 C50 657 55 651 93 570 L218 303 Z " />
<glyph glyph-name="Y" unicode="Y" horiz-adv-x="542" d="M524 682 L390 682 L390 664 C425 663 441 653 441 633 C441 620 437 603 424 568 L332 321 L223 604 C220 611 213 626 213 637 C213 655 231 667 269 664 L269 682 L17 682 L17 664 C56 658 58 655 95 561 L217 251 L217 85 C217 29 198 14 130 18 L130 0 L440 0 L440 18 C363 14 355 35 355 106 L355 279 L459 558 C494 652 498 658 524 664 L524 682 Z " />
<glyph glyph-name="Z" unicode="Z" horiz-adv-x="542" d="M502 240 C479 90 426 37 279 37 L186 37 L511 682 L79 682 L64 488 L82 488 C106 624 140 645 245 645 L343 645 L20 0 L498 0 L521 240 L502 240 Z " />
<glyph glyph-name="bracketleft" unicode="&#x5b;" horiz-adv-x="250" d="M231 -162 C177 -162 167 -156 167 -110 L167 612 C167 654 170 664 231 664 L231 682 L57 682 L57 -180 L231 -180 L231 -162 Z " />
<glyph glyph-name="backslash" unicode="&#x5c;" horiz-adv-x="281" d="M97 682 L0 682 L185 -15 L281 -15 L97 682 Z " />
<glyph glyph-name="bracketright" unicode="&#x5d;" horiz-adv-x="250" d="M19 664 C73 664 83 658 83 612 L83 -110 C83 -152 80 -162 19 -162 L19 -180 L193 -180 L193 682 L19 682 L19 664 Z " />
<glyph glyph-name="asciicircum" unicode="&#x5e;" horiz-adv-x="581" d="M159 332 L291 566 L423 332 L508 332 L308 682 L275 682 L74 332 L159 332 Z " />
<glyph glyph-name="underscore" unicode="&#x5f;" horiz-adv-x="500" d="M-6 -75 L-6 -125 L506 -125 L506 -75 L-6 -75 Z " />
<glyph glyph-name="grave" unicode="&#x60;" horiz-adv-x="333" d="M248 529 L198 698 L64 698 L210 529 L248 529 Z " />
<glyph glyph-name="a" unicode="a" horiz-adv-x="448" d="M254 371 L254 287 L189 255 C65 194 30 140 30 86 C30 30 68 -12 120 -12 C157 -12 196 7 254 60 C261 15 290 -12 332 -12 C372 -12 407 13 431 60 L418 73 C410 57 403 50 395 50 C382 50 376 62 376 92 L376 344 C376 440 314 473 229 473 C123 473 35 411 35 337 C35 303 64 278 101 278 C137 278 161 298 161 328 C161 361 130 365 130 395 C130 419 157 440 193 440 C218 440 234 433 243 420 C256 402 254 386 254 371 L254 371 Z M254 254 L254 98 C234 81 214 72 199 72 C173 72 153 96 153 127 C153 168 175 206 254 254 L254 254 Z " />
<glyph glyph-name="b" unicode="b" horiz-adv-x="448" d="M68 -12 L136 41 C161 8 199 -12 236 -12 C330 -12 431 91 431 247 C431 377 367 473 280 473 C244 473 208 456 175 423 L175 682 L20 682 L20 664 C49 663 53 657 53 603 L53 -12 L68 -12 Z M175 373 C198 404 217 417 237 417 C281 417 299 363 299 235 C299 91 276 21 230 21 C189 21 175 63 175 180 L175 373 Z " />
<glyph glyph-name="c" unicode="c" horiz-adv-x="396" d="M364 115 C339 82 307 63 275 63 C204 63 144 170 144 299 C144 382 169 436 207 436 C233 436 243 422 247 381 C252 319 269 296 310 296 C344 296 366 319 366 352 C366 419 304 473 225 473 C113 473 26 364 26 221 C26 87 106 -12 213 -12 C281 -12 339 29 379 104 L364 115 Z " />
<glyph glyph-name="d" unicode="d" horiz-adv-x="448" d="M430 43 C392 43 387 53 387 98 L387 682 L217 682 L217 664 C256 666 265 658 265 616 L265 423 L263 423 C237 458 210 473 176 473 C88 473 24 369 24 227 C24 82 82 -12 170 -12 C212 -12 244 10 263 55 L265 55 L265 -12 L284 -12 L430 27 L430 43 Z M265 109 C257 74 236 50 213 50 C169 50 156 122 156 235 C156 363 172 425 206 425 C224 425 243 411 265 379 L265 109 Z " />
<glyph glyph-name="e" unicode="e" horiz-adv-x="396" d="M358 138 C331 84 303 61 267 61 C202 61 158 133 156 247 L375 247 C378 370 319 473 213 473 C108 473 28 366 28 226 C28 87 103 -12 208 -12 C289 -12 349 39 374 129 L358 138 Z M154 280 L154 300 C154 393 172 440 210 440 C250 440 261 383 258 280 L154 280 Z " />
<glyph glyph-name="f" unicode="f" horiz-adv-x="292" d="M259 461 L198 461 L198 614 C198 655 213 668 229 668 C240 668 252 659 252 647 C252 635 248 622 248 616 C248 590 272 570 302 570 C334 570 357 592 357 622 C357 665 314 694 248 694 C170 694 76 649 76 531 L76 461 L17 461 L17 418 L76 418 L76 69 C76 19 70 17 17 18 L17 0 L259 0 L259 18 C203 15 198 19 198 81 L198 418 L259 418 L259 461 Z " />
<glyph glyph-name="g" unicode="g" horiz-adv-x="448" d="M430 454 L293 454 C266 468 245 473 215 473 C112 473 34 400 34 305 C34 236 75 180 144 154 C84 127 51 83 51 34 C51 -4 74 -34 118 -50 L118 -52 C63 -57 32 -82 32 -120 C32 -173 111 -209 227 -209 C351 -209 430 -152 430 -63 C430 40 342 47 251 50 L189 52 C149 53 130 66 130 93 C130 121 152 144 180 144 C190 144 202 142 213 142 C359 142 391 260 391 307 C391 342 379 374 356 403 L430 403 L430 454 Z M268 304 C268 209 254 170 216 170 C176 170 163 204 163 310 C163 405 177 440 216 440 C256 440 268 407 268 304 L268 304 Z M361 -111 C361 -152 311 -176 226 -176 C153 -176 110 -152 110 -111 C110 -72 140 -60 236 -60 C333 -60 361 -71 361 -111 L361 -111 Z " />
<glyph glyph-name="h" unicode="h" horiz-adv-x="448" d="M176 682 L20 682 L20 664 C50 661 54 654 54 600 L54 78 C54 25 50 19 20 18 L20 0 L208 0 L208 18 C179 19 176 26 176 78 L176 356 C204 394 223 408 245 408 C273 408 281 384 281 333 L281 78 C281 28 277 20 254 18 L254 0 L432 0 L432 18 C407 19 403 28 403 78 L403 341 C403 435 358 473 300 473 C256 473 216 449 178 397 L176 397 L176 682 Z " />
<glyph glyph-name="i" unicode="i" horiz-adv-x="250" d="M68 372 L68 81 C68 23 63 18 23 18 L23 0 L231 0 L231 18 C195 18 190 21 190 78 L190 461 L23 461 L23 443 C59 443 68 434 68 372 L68 372 Z M61 628 C61 591 91 561 128 561 C165 561 195 591 195 628 C195 665 165 695 128 695 C91 695 61 665 61 628 L61 628 Z " />
<glyph glyph-name="j" unicode="j" horiz-adv-x="250" d="M68 379 L68 -132 C68 -161 64 -176 45 -176 C31 -176 22 -166 22 -151 C22 -128 29 -122 29 -108 C29 -88 14 -75 -8 -75 C-37 -75 -56 -96 -56 -127 C-56 -176 -16 -209 45 -209 C156 -209 190 -129 190 -34 L190 461 L20 461 L20 443 C62 443 68 440 68 379 L68 379 Z M60 628 C60 591 90 561 127 561 C164 561 194 591 194 628 C194 665 164 695 127 695 C90 695 60 665 60 628 L60 628 Z " />
<glyph glyph-name="k" unicode="k" horiz-adv-x="448" d="M185 682 L33 682 L33 664 C60 661 63 655 63 603 L63 78 C63 27 60 21 33 18 L33 0 L222 0 L222 18 C189 18 185 24 185 78 L185 189 L198 207 L258 84 C268 64 280 42 280 29 C280 21 269 18 258 18 L258 0 L442 0 L442 18 C418 22 405 39 376 101 L277 309 L299 343 C339 405 376 436 416 443 L416 461 L269 461 L269 443 C291 443 304 434 304 419 C304 408 298 395 277 365 L187 234 L185 234 L185 682 Z " />
<glyph glyph-name="l" unicode="l" horiz-adv-x="250" d="M190 682 L19 682 L19 664 C62 664 68 661 68 600 L68 66 C68 24 58 16 19 18 L19 0 L232 0 L232 18 C195 18 190 21 190 78 L190 682 Z " />
<glyph glyph-name="m" unicode="m" horiz-adv-x="646" d="M169 461 L20 461 L20 443 C44 441 47 433 47 382 L47 78 C47 28 44 21 20 18 L20 0 L203 0 L203 18 C173 18 169 25 169 78 L169 355 C196 396 210 408 231 408 C258 408 266 386 266 341 L266 78 C266 29 263 22 242 18 L242 0 L422 0 L422 18 C394 20 388 24 388 78 L388 355 C416 395 431 408 451 408 C477 408 485 388 485 316 L485 78 C485 30 481 23 461 18 L461 0 L630 0 L630 18 C610 23 607 29 607 78 L607 327 C607 426 571 473 503 473 C459 473 425 451 382 394 C362 447 331 473 285 473 C240 473 202 449 171 401 L169 401 L169 461 Z " />
<glyph glyph-name="n" unicode="n" horiz-adv-x="448" d="M176 462 L26 462 L26 444 C50 444 54 432 54 380 L54 78 C54 28 50 20 26 18 L26 0 L203 0 L203 18 C179 21 176 29 176 78 L176 356 C206 394 225 408 246 408 C271 408 281 388 281 320 L281 78 C281 28 278 22 253 18 L253 0 L430 0 L430 18 C406 20 403 28 403 78 L403 331 C403 433 362 473 301 473 C259 473 224 452 176 398 L176 462 Z " />
<glyph glyph-name="o" unicode="o" horiz-adv-x="448" d="M420 233 C420 379 342 473 222 473 C107 473 28 375 28 233 C28 84 105 -12 224 -12 C345 -12 420 82 420 233 L420 233 Z M288 222 C288 68 273 21 227 21 C172 21 160 103 160 225 C160 387 178 440 225 440 C275 440 288 367 288 222 L288 222 Z " />
<glyph glyph-name="p" unicode="p" horiz-adv-x="448" d="M186 461 L21 461 L21 443 C59 443 64 440 64 382 L64 -131 C64 -189 56 -191 21 -191 L21 -209 L238 -209 L238 -191 C191 -191 186 -188 186 -128 L186 42 C221 3 246 -12 279 -12 C366 -12 427 92 427 240 C427 382 370 473 282 473 C241 473 208 450 188 407 L186 407 L186 461 Z M186 357 C201 392 221 413 239 413 C276 413 295 351 295 231 C295 106 283 37 246 37 C230 37 204 53 186 87 L186 357 Z " />
<glyph glyph-name="q" unicode="q" horiz-adv-x="448" d="M398 473 L385 473 L318 422 C278 462 254 473 216 473 C106 473 21 360 21 214 C21 79 83 -12 176 -12 C215 -12 247 4 276 37 L276 -131 C276 -186 274 -189 237 -191 L237 -209 L432 -209 L432 -191 C401 -190 398 -184 398 -131 L398 473 Z M276 87 C263 61 240 45 216 45 C163 45 153 111 153 241 C153 369 178 440 222 440 C254 440 276 409 276 349 L276 87 Z " />
<glyph glyph-name="r" unicode="r" horiz-adv-x="344" d="M181 461 L17 461 L17 443 C55 443 59 438 59 382 L59 78 C59 23 55 18 17 18 L17 0 L230 0 L230 18 C186 18 181 20 181 81 L181 225 C181 349 192 373 211 373 C235 373 241 338 275 338 C305 338 325 364 325 403 C325 445 304 473 273 473 C237 473 204 439 183 379 L181 379 L181 461 Z " />
<glyph glyph-name="s" unicode="s" horiz-adv-x="344" d="M297 473 L279 473 C273 453 264 447 255 447 C227 447 207 473 147 473 C75 473 20 412 20 332 C20 295 28 268 58 238 C102 194 180 164 212 132 C225 119 234 103 234 82 C234 49 210 25 177 25 C136 25 79 55 42 152 L24 152 L28 -12 L46 -12 C46 8 55 17 67 17 C84 17 119 -12 179 -12 C261 -12 324 52 324 135 C324 181 309 208 289 228 C238 279 162 304 127 339 C111 355 103 367 103 392 C103 421 126 440 160 440 C218 440 265 382 280 317 L297 317 L297 473 Z " />
<glyph glyph-name="t" unicode="t" horiz-adv-x="292" d="M279 461 L190 461 L190 629 L174 629 C145 563 79 477 18 430 L18 412 L68 412 L68 126 C68 27 106 -12 166 -12 C214 -12 256 22 279 78 L266 92 C249 59 235 45 217 45 C195 45 190 61 190 106 L190 412 L279 412 L279 461 Z " />
<glyph glyph-name="u" unicode="u" horiz-adv-x="448" d="M396 461 L225 461 L225 443 C270 443 274 440 274 379 L274 106 C258 76 228 53 205 53 C178 53 168 76 168 143 L168 461 L19 461 L19 443 C44 438 46 433 46 382 L46 131 C46 30 95 -12 155 -12 C198 -12 234 9 272 59 L274 59 L274 0 L429 0 L429 18 C400 19 396 26 396 78 L396 461 Z " />
<glyph glyph-name="v" unicode="v" horiz-adv-x="396" d="M378 461 L267 461 L267 443 C293 438 303 426 303 404 C303 388 298 366 287 330 L246 193 L244 193 L190 367 C182 392 180 401 180 412 C180 430 191 440 216 443 L216 461 L17 461 L17 443 C44 440 48 433 72 355 L188 -24 L210 -24 L314 314 C350 432 354 441 378 443 L378 461 Z " />
<glyph glyph-name="w" unicode="w" horiz-adv-x="594" d="M577 461 L474 461 L474 443 C498 436 508 425 508 405 C508 392 505 375 497 349 L452 195 L450 195 L408 352 C395 400 395 401 395 411 C395 432 407 441 434 443 L434 461 L239 461 L239 443 C260 440 269 428 279 392 L284 373 L231 189 L229 189 L176 368 C170 389 167 403 167 413 C167 434 181 439 208 443 L208 461 L18 461 L18 443 C32 440 40 429 49 398 L176 -24 L199 -24 L298 319 L300 319 L395 -24 L419 -24 L526 342 C547 414 554 431 577 443 L577 461 Z " />
<glyph glyph-name="x" unicode="x" horiz-adv-x="448" d="M267 278 L346 396 C367 428 387 443 415 443 L415 461 L282 461 L282 443 C309 444 317 437 317 422 C317 412 314 404 300 383 L251 309 L204 397 C193 417 190 424 190 430 C190 439 199 443 231 443 L231 461 L21 461 L21 443 C42 441 49 436 63 409 L177 196 L103 85 C67 31 54 20 21 18 L21 0 L168 0 L168 18 C133 17 120 25 120 40 C120 51 126 63 144 90 L193 165 L247 64 C256 47 259 39 259 32 C259 22 251 18 223 18 L223 0 L431 0 L431 18 C409 20 399 32 364 97 L267 278 Z " />
<glyph glyph-name="y" unicode="y" horiz-adv-x="396" d="M379 461 L270 461 L270 443 C294 438 304 428 304 409 C304 397 301 379 294 351 L250 178 L248 178 L187 368 C174 408 173 410 173 419 C173 435 185 442 212 443 L212 461 L16 461 L16 443 C35 438 41 431 52 397 L196 -36 L183 -83 C168 -138 156 -160 140 -160 C134 -160 126 -155 126 -139 C126 -135 127 -125 127 -121 C127 -95 107 -73 79 -73 C47 -73 24 -99 24 -135 C24 -178 57 -210 105 -210 C163 -210 192 -171 217 -75 L329 360 C344 419 354 436 379 443 L379 461 Z " />
<glyph glyph-name="z" unicode="z" horiz-adv-x="396" d="M359 156 C335 64 289 30 186 30 L161 30 L377 443 L377 461 L49 461 L49 327 L66 327 C79 417 118 430 172 430 L237 430 L18 18 L18 0 L359 0 L377 156 L359 156 Z " />
<glyph glyph-name="braceleft" unicode="&#x7b;" horiz-adv-x="394" d="M79 246 C147 237 175 194 175 141 C175 79 149 26 149 -22 C149 -91 218 -181 350 -178 L350 -156 C285 -148 255 -101 255 -65 C255 -13 278 37 278 101 C278 154 238 236 119 259 L119 261 C238 284 278 366 278 419 C278 483 255 533 255 585 C255 621 285 668 350 676 L350 698 C218 701 149 611 149 542 C149 494 175 441 175 379 C175 326 147 283 79 274 L79 246 Z " />
<glyph glyph-name="bar" unicode="&#x7c;" horiz-adv-x="219" d="M64 750 L64 -250 L155 -250 L155 750 L64 750 Z " />
<glyph glyph-name="braceright" unicode="&#x7d;" horiz-adv-x="394" d="M315 274 C247 283 219 326 219 379 C219 441 245 494 245 542 C245 611 176 701 44 698 L44 676 C109 668 139 621 139 585 C139 533 116 483 116 419 C116 366 156 284 275 261 L275 259 C156 236 116 154 116 101 C116 37 139 -13 139 -65 C139 -101 109 -148 44 -156 L44 -178 C176 -181 245 -91 245 -22 C245 26 219 79 219 141 C219 194 247 237 315 246 L315 274 Z " />
<glyph glyph-name="asciitilde" unicode="&#x7e;" horiz-adv-x="667" d="M570 427 C565 373 534 341 488 341 C454 341 408 363 358 384 C307 406 252 427 200 427 C136 427 65 382 63 252 L96 252 C105 310 132 338 179 338 C214 338 261 316 312 295 C363 274 416 252 462 252 C505 252 539 268 563 298 C587 328 602 372 604 427 L570 427 Z " />
<glyph glyph-name="exclamdown" unicode="&#xa1;" horiz-adv-x="250" d="M114 240 C112 181 104 134 70 -19 C52 -100 49 -125 49 -157 C49 -207 77 -237 125 -237 C171 -237 200 -205 200 -154 C200 -122 196 -89 179 -18 L159 67 C144 131 136 195 136 233 L136 240 L114 240 Z M198 400 C198 440 165 473 124 473 C83 473 50 440 50 400 C50 359 83 326 124 326 C165 326 198 359 198 400 L198 400 Z " />
<glyph glyph-name="cent" unicode="&#xa2;" horiz-adv-x="396" d="M311 557 L274 557 L248 471 C240 473 236 473 229 473 C112 473 26 366 26 220 C26 138 59 62 110 24 L74 -92 L110 -92 L140 5 C162 -7 183 -12 210 -12 C281 -12 339 28 379 104 L364 115 C339 82 307 63 276 63 C239 63 205 89 181 136 L249 358 L251 358 C254 313 280 296 309 296 C344 296 366 318 366 353 C366 399 340 436 282 464 L311 557 Z M161 189 C153 204 144 266 144 305 C144 363 163 436 208 436 C220 436 226 433 234 425 L161 189 Z " />
<glyph glyph-name="sterling" unicode="&#xa3;" horiz-adv-x="448" d="M412 170 C393 122 365 103 317 103 C285 103 248 110 219 121 C237 168 246 223 246 280 C246 294 246 305 244 320 L332 320 L332 385 L239 385 C228 489 212 560 212 603 C212 640 225 660 248 660 C267 660 278 649 278 616 C278 605 276 581 276 572 C276 524 299 499 341 499 C377 499 401 526 401 566 C401 637 343 693 268 693 C163 693 95 601 95 461 C95 435 97 413 101 385 L23 385 L23 320 L116 320 C147 218 159 179 156 144 C139 152 126 155 108 155 C57 155 20 119 20 68 C20 21 54 -12 103 -12 C141 -12 170 7 190 45 C237 -3 263 -12 298 -12 C376 -12 425 56 429 170 L412 170 Z M152 81 C146 51 122 29 95 29 C71 29 52 46 52 68 C52 90 70 107 95 107 C114 107 138 96 152 81 L152 81 Z " />
<glyph glyph-name="currency" unicode="&#xa4;" horiz-adv-x="688" d="M471 329 C471 257 417 195 343 195 C271 195 217 257 217 329 C217 399 271 461 343 461 C417 461 471 399 471 329 L471 329 Z M68 110 L126 52 L222 150 C253 129 297 113 343 113 C391 113 435 129 466 150 L562 52 L620 110 L522 208 C545 237 559 281 559 329 C559 377 543 419 522 450 L620 548 L562 604 L466 508 C435 529 393 543 343 543 C297 543 253 529 222 508 L126 604 L68 548 L166 450 C145 421 129 377 129 329 C129 281 143 239 166 208 L68 110 Z " />
<glyph glyph-name="yen" unicode="&#xa5;" horiz-adv-x="542" d="M190 391 L58 391 L58 354 L204 354 L217 321 L217 218 L58 218 L58 181 L217 181 L217 85 C217 30 192 18 160 18 L130 18 L130 0 L440 0 L440 18 L413 18 C375 18 355 36 355 82 L355 181 L509 181 L509 221 L355 221 L355 349 L357 354 L509 354 L509 391 L371 391 L429 558 C461 651 468 658 494 664 L494 682 L360 682 L360 664 C401 662 411 652 411 633 C411 620 407 604 394 568 L332 391 L253 603 C251 609 243 626 243 637 C243 655 262 667 299 664 L299 682 L47 682 L47 664 C86 658 89 653 125 561 L190 391 Z " />
<glyph glyph-name="brokenbar" unicode="&#xa6;" horiz-adv-x="219" d="M64 175 L64 -175 L155 -175 L155 175 L64 175 Z M64 675 L64 325 L155 325 L155 675 L64 675 Z " />
<glyph glyph-name="section" unicode="&#xa7;" horiz-adv-x="448" d="M207 513 C166 554 152 576 152 604 C152 644 183 669 232 669 C263 669 282 657 282 637 C282 620 273 594 273 579 C273 549 295 526 324 526 C356 526 376 551 376 590 C376 659 318 706 232 706 C136 706 70 648 70 563 C70 512 95 468 151 423 C89 387 41 336 41 251 C41 194 60 151 116 95 C178 33 241 -14 262 -35 C293 -66 298 -83 298 -107 C298 -150 269 -176 221 -176 C184 -176 166 -161 166 -147 C166 -133 176 -120 176 -92 C176 -57 155 -33 126 -33 C95 -33 73 -60 73 -99 C73 -167 132 -209 219 -209 C315 -209 379 -157 379 -74 C379 -25 355 19 299 71 C375 116 407 165 407 240 C407 293 388 344 341 391 C314 418 232 488 207 513 L207 513 Z M242 338 C314 272 334 227 334 189 C334 148 313 114 275 94 L210 155 C129 231 115 266 115 303 C115 342 136 376 175 399 L242 338 Z " />
<glyph glyph-name="dieresis" unicode="&#xa8;" horiz-adv-x="333" d="M84 671 C51 671 25 645 25 612 C25 579 51 553 84 553 C117 553 143 579 143 612 C143 645 117 671 84 671 L84 671 Z M249 671 C216 671 190 645 190 612 C190 579 216 553 249 553 C282 553 308 579 308 612 C308 645 282 671 249 671 L249 671 Z " />
<glyph glyph-name="copyright" unicode="&#xa9;" horiz-adv-x="747" d="M537 555 L518 555 C516 538 508 530 495 530 C473 530 444 556 377 556 C252 556 162 465 162 341 C162 224 246 142 368 142 C432 142 483 163 523 204 L523 239 C485 192 445 171 396 171 C363 171 336 184 312 208 C283 237 272 286 272 353 C272 466 318 531 398 531 C460 531 505 491 518 426 L537 426 L537 555 Z M373 650 C541 650 678 514 678 346 C678 178 541 42 373 42 C205 42 69 178 69 346 C69 514 205 650 373 650 L373 650 Z M373 692 C182 692 27 537 27 346 C27 155 182 0 373 0 C564 0 720 155 720 346 C720 537 564 692 373 692 L373 692 Z " />
<glyph glyph-name="ordfeminine" unicode="&#xaa;" horiz-adv-x="302" d="M273 466 C266 452 263 449 260 449 C256 449 254 460 254 475 L254 625 C254 670 218 697 155 697 C85 697 25 659 25 615 C25 592 45 576 73 576 C99 576 117 589 117 608 C117 626 97 633 97 648 C97 661 111 670 132 670 C159 670 165 660 165 627 L165 587 C59 541 21 508 21 467 C21 431 48 405 84 405 C110 405 125 412 165 442 C172 419 192 405 219 405 C248 405 273 421 290 452 L273 466 Z M165 474 C151 464 143 461 135 461 C122 461 112 474 112 490 C112 515 125 532 165 556 L165 474 Z " />
<glyph glyph-name="guillemotleft" unicode="&#xab;" horiz-adv-x="448" d="M331 252 L420 478 L387 478 L212 252 L387 26 L420 26 L331 252 Z M146 252 L235 478 L202 478 L27 252 L202 26 L235 26 L146 252 Z " />
<glyph glyph-name="logicalnot" unicode="&#xac;" horiz-adv-x="667" d="M64 501 L64 413 L515 413 L515 179 L603 179 L603 501 L64 501 Z " />
<glyph glyph-name="registered" unicode="&#xae;" horiz-adv-x="747" d="M188 547 L188 530 C224 527 231 517 231 466 L231 235 C231 181 220 167 180 168 L180 152 L387 152 L387 168 C336 170 328 180 328 235 L328 332 L351 332 L451 152 L569 152 L569 168 C549 172 535 185 518 217 L451 339 C507 355 538 391 538 440 C538 504 482 547 403 547 L188 547 Z M328 357 L328 526 L346 526 C404 526 433 498 433 442 C433 390 399 355 356 355 C347 355 333 356 328 357 L328 357 Z M373 650 C541 650 678 514 678 346 C678 178 541 42 373 42 C205 42 69 178 69 346 C69 514 205 650 373 650 L373 650 Z M373 692 C182 692 27 537 27 346 C27 155 182 0 373 0 C564 0 720 155 720 346 C720 537 564 692 373 692 L373 692 Z " />
<glyph glyph-name="macron" unicode="&#xaf;" horiz-adv-x="333" d="M297 656 L36 656 L36 568 L297 568 L297 656 Z " />
<glyph glyph-name="degree" unicode="&#xb0;" horiz-adv-x="400" d="M200 693 C107 693 31 617 31 524 C31 431 107 355 200 355 C293 355 369 431 369 524 C369 617 293 693 200 693 L200 693 Z M200 629 C258 629 305 582 305 524 C305 466 258 419 200 419 C142 419 95 466 95 524 C95 582 142 629 200 629 L200 629 Z " />
<glyph glyph-name="plusminus" unicode="&#xb1;" horiz-adv-x="667" d="M64 88 L64 0 L603 0 L603 88 L64 88 Z M64 483 L64 395 L289 395 L289 169 L377 169 L377 395 L603 395 L603 483 L377 483 L377 709 L289 709 L289 483 L64 483 Z " />
<glyph glyph-name="twosuperior" unicode="&#xb2;" horiz-adv-x="281" d="M240 440 C229 411 219 403 191 403 L118 403 C221 499 250 542 250 599 C250 655 207 693 145 693 C85 693 41 654 28 589 L50 583 C59 612 77 627 102 627 C135 627 156 600 156 557 C156 507 135 466 69 395 L21 344 L21 332 L244 332 L263 440 L240 440 Z " />
<glyph glyph-name="threesuperior" unicode="&#xb3;" horiz-adv-x="281" d="M92 510 C151 497 191 454 191 402 C191 374 171 354 143 354 C107 354 91 400 54 400 C35 400 22 388 22 372 C22 346 58 327 110 327 C200 327 260 378 260 455 C260 499 239 531 197 551 C226 568 240 589 240 618 C240 663 203 693 148 693 C95 693 60 667 33 606 L53 600 C71 629 87 640 109 640 C137 640 157 618 157 588 C157 554 135 533 92 524 L92 510 Z " />
<glyph glyph-name="acute" unicode="&#xb4;" horiz-adv-x="333" d="M85 529 L123 529 L269 698 L135 698 L85 529 Z " />
<glyph glyph-name="mu" unicode="&#xb5;" horiz-adv-x="556" d="M86 461 L86 76 C86 -48 55 -88 55 -147 C55 -189 73 -216 106 -216 C152 -216 155 -172 155 -142 C155 -102 124 -44 123 16 L125 18 C153 -6 166 -12 204 -12 C245 -12 287 26 314 60 C330 15 355 -11 402 -11 C458 -11 525 25 522 131 L502 131 C497 84 484 61 464 61 C446 61 436 79 436 108 L436 461 L314 461 L314 106 C300 81 267 52 249 53 C219 54 208 74 208 130 L208 461 L86 461 Z " />
<glyph glyph-name="paragraph" unicode="&#xb6;" horiz-adv-x="540" d="M310 645 L400 645 L400 -209 L448 -209 L448 584 C448 648 469 662 540 661 L540 682 L247 682 C61 682 -1 569 -1 457 C-1 344 66 230 262 230 L262 -209 L310 -209 L310 645 Z " />
<glyph glyph-name="periodcentered" unicode="&#xb7;" horiz-adv-x="250" d="M126 414 C85 414 52 382 52 341 C52 300 85 267 126 267 C167 267 199 300 199 341 C199 382 167 414 126 414 L126 414 Z " />
<glyph glyph-name="cedilla" unicode="&#xb8;" horiz-adv-x="333" d="M72 -209 C198 -209 261 -184 261 -109 C261 -72 243 -49 204 -35 L232 0 L186 0 L113 -81 C146 -86 160 -99 160 -125 C160 -158 135 -172 72 -174 L72 -209 Z " />
<glyph glyph-name="onesuperior" unicode="&#xb9;" horiz-adv-x="281" d="M192 693 L174 693 L25 637 L31 622 C51 629 61 631 70 631 C92 631 95 618 95 575 L95 400 C95 358 89 348 64 348 L35 348 L35 332 L245 332 L245 348 L223 348 C198 348 192 358 192 400 L192 693 Z " />
<glyph glyph-name="ordmasculine" unicode="&#xba;" horiz-adv-x="302" d="M283 553 C283 640 230 697 150 697 C72 697 19 638 19 552 C19 463 71 405 151 405 C232 405 283 461 283 553 L283 553 Z M185 546 C185 461 177 431 153 431 C126 431 116 466 116 550 C116 637 126 672 152 672 C175 672 185 634 185 546 L185 546 Z " />
<glyph glyph-name="guillemotright" unicode="&#xbb;" horiz-adv-x="448" d="M302 252 L213 26 L246 26 L421 252 L246 478 L213 478 L302 252 Z M117 252 L28 26 L61 26 L236 252 L61 478 L28 478 L117 252 Z " />
<glyph glyph-name="onequarter" unicode="&#xbc;" horiz-adv-x="708" d="M617 0 L617 77 L654 77 L654 136 L617 136 L617 360 L574 360 L401 133 L401 77 L526 77 L526 0 L617 0 Z M526 136 L441 136 L524 247 L526 247 L526 136 Z M179 -6 L576 693 L530 693 L133 -6 L179 -6 Z M202 693 L184 693 L35 637 L41 622 C61 629 71 631 80 631 C102 631 105 618 105 575 L105 400 C105 358 99 348 74 348 L45 348 L45 333 L255 333 L255 348 L233 348 C208 348 202 358 202 400 L202 693 Z " />
<glyph glyph-name="onehalf" unicode="&#xbd;" horiz-adv-x="708" d="M647 107 C636 78 626 70 598 70 L525 70 C628 166 657 209 657 266 C657 322 614 360 552 360 C492 360 448 321 435 256 L457 250 C466 279 484 294 509 294 C542 294 563 267 563 224 C563 174 542 133 476 62 L428 11 L428 0 L651 0 L670 107 L647 107 Z M179 -6 L576 693 L530 693 L133 -6 L179 -6 Z M202 693 L184 693 L35 637 L41 622 C61 629 71 631 80 631 C102 631 105 618 105 575 L105 400 C105 358 99 348 74 348 L45 348 L45 333 L255 333 L255 348 L233 348 C208 348 202 358 202 400 L202 693 Z " />
<glyph glyph-name="threequarters" unicode="&#xbe;" horiz-adv-x="708" d="M179 -6 L576 693 L530 693 L133 -6 L179 -6 Z M102 510 C161 497 201 454 201 402 C201 374 181 354 153 354 C117 354 101 400 64 400 C45 400 32 388 32 372 C32 346 68 327 120 327 C210 327 270 378 270 455 C270 499 249 531 207 551 C236 568 250 589 250 618 C250 663 213 693 158 693 C105 693 70 667 43 606 L63 600 C81 629 97 640 119 640 C147 640 167 618 167 588 C167 554 145 533 102 524 L102 510 Z M617 0 L617 77 L654 77 L654 136 L617 136 L617 360 L574 360 L401 133 L401 77 L526 77 L526 0 L617 0 Z M526 136 L441 136 L524 247 L526 247 L526 136 Z " />
<glyph glyph-name="questiondown" unicode="&#xbf;" horiz-adv-x="344" d="M189 239 L188 228 C182 157 171 138 106 83 C45 31 21 -12 21 -75 C21 -172 89 -237 189 -237 C273 -237 326 -182 326 -96 C326 -49 303 -19 266 -19 C235 -19 213 -44 213 -79 C213 -95 217 -108 227 -125 L240 -147 C248 -161 251 -171 251 -179 C251 -192 239 -203 224 -203 C182 -203 153 -144 153 -57 C153 -15 160 22 174 60 L193 111 C206 145 210 171 210 210 C210 222 210 229 209 239 L189 239 Z M267 400 C267 440 234 473 194 473 C153 473 120 440 120 400 C120 359 153 326 194 326 C234 326 267 359 267 400 L267 400 Z " />
<glyph glyph-name="Agrave" unicode="&#xc0;" horiz-adv-x="542" d="M526 18 C496 22 483 38 459 120 L286 698 L268 698 L89 127 C62 40 51 24 16 18 L16 0 L157 0 L157 18 C121 17 107 30 107 51 C107 59 109 67 117 94 L137 162 L307 162 L327 94 C332 76 336 55 336 45 C336 27 324 18 286 18 L286 0 L526 0 L526 18 Z M296 199 L149 199 L223 436 L225 436 L296 199 Z M323 743 L273 912 L139 912 L285 743 L323 743 Z " />
<glyph glyph-name="Aacute" unicode="&#xc1;" horiz-adv-x="542" d="M526 18 C496 22 483 38 459 120 L286 698 L268 698 L89 127 C62 40 51 24 16 18 L16 0 L157 0 L157 18 C121 17 107 30 107 51 C107 59 109 67 117 94 L137 162 L307 162 L327 94 C332 76 336 55 336 45 C336 27 324 18 286 18 L286 0 L526 0 L526 18 Z M296 199 L149 199 L223 436 L225 436 L296 199 Z M220 743 L258 743 L404 912 L270 912 L220 743 Z " />
<glyph glyph-name="Acircumflex" unicode="&#xc2;" horiz-adv-x="542" d="M526 18 C496 22 483 38 459 120 L286 698 L268 698 L89 127 C62 40 51 24 16 18 L16 0 L157 0 L157 18 C121 17 107 30 107 51 C107 59 109 67 117 94 L137 162 L307 162 L327 94 C332 76 336 55 336 45 C336 27 324 18 286 18 L286 0 L526 0 L526 18 Z M296 199 L149 199 L223 436 L225 436 L296 199 Z M132 735 L169 735 L271 829 L375 735 L411 735 L320 917 L224 917 L132 735 Z " />
<glyph glyph-name="Atilde" unicode="&#xc3;" horiz-adv-x="542" d="M526 18 C496 22 483 38 459 120 L286 698 L268 698 L89 127 C62 40 51 24 16 18 L16 0 L157 0 L157 18 C121 17 107 30 107 51 C107 59 109 67 117 94 L137 162 L307 162 L327 94 C332 76 336 55 336 45 C336 27 324 18 286 18 L286 0 L526 0 L526 18 Z M296 199 L149 199 L223 436 L225 436 L296 199 Z M382 893 C377 859 368 847 350 847 C312 847 266 894 215 894 C165 894 131 839 130 758 L161 758 C167 791 176 804 195 804 C223 804 273 758 324 758 C379 758 411 807 413 893 L382 893 Z " />
<glyph glyph-name="Adieresis" unicode="&#xc4;" horiz-adv-x="542" d="M526 18 C496 22 483 38 459 120 L286 698 L268 698 L89 127 C62 40 51 24 16 18 L16 0 L157 0 L157 18 C121 17 107 30 107 51 C107 59 109 67 117 94 L137 162 L307 162 L327 94 C332 76 336 55 336 45 C336 27 324 18 286 18 L286 0 L526 0 L526 18 Z M296 199 L149 199 L223 436 L225 436 L296 199 Z M189 885 C156 885 130 859 130 826 C130 793 156 767 189 767 C222 767 248 793 248 826 C248 859 222 885 189 885 L189 885 Z M354 885 C321 885 295 859 295 826 C295 793 321 767 354 767 C387 767 413 793 413 826 C413 859 387 885 354 885 L354 885 Z " />
<glyph glyph-name="Aring" unicode="&#xc5;" horiz-adv-x="542" d="M526 18 C496 22 483 38 459 120 L286 698 L268 698 L89 127 C62 40 51 24 16 18 L16 0 L157 0 L157 18 C121 17 107 30 107 51 C107 59 109 67 117 94 L137 162 L307 162 L327 94 C332 76 336 55 336 45 C336 27 324 18 286 18 L286 0 L526 0 L526 18 Z M296 199 L149 199 L223 436 L225 436 L296 199 Z M272 918 C221 918 180 878 180 827 C180 776 221 735 272 735 C323 735 363 776 363 827 C363 878 323 918 272 918 L272 918 Z M271 885 C303 885 330 859 330 827 C330 795 303 768 271 768 C239 768 213 795 213 827 C213 859 239 885 271 885 L271 885 Z " />
<glyph glyph-name="AE" unicode="&#xc6;" horiz-adv-x="792" d="M733 210 C698 92 655 37 538 37 C491 37 482 50 482 124 L482 328 C553 323 578 285 585 174 L603 174 L603 522 L585 522 C577 411 548 366 482 365 L482 645 L515 645 C619 645 673 604 688 489 L705 489 L705 682 L321 682 L65 88 C41 33 27 22 -5 18 L-5 0 L136 0 L136 18 C105 22 94 31 94 48 C94 58 97 68 109 97 L201 313 L344 313 L344 86 C344 34 326 16 275 18 L275 0 L719 0 L751 210 L733 210 Z M344 350 L217 350 L342 645 L344 645 L344 350 Z " />
<glyph glyph-name="Ccedilla" unicode="&#xc7;" horiz-adv-x="542" d="M519 469 L519 698 L501 698 C495 664 489 651 474 651 C437 651 403 698 312 698 C151 698 28 538 28 327 C28 138 129 3 279 -13 L218 -81 C251 -86 265 -99 265 -125 C265 -158 240 -172 177 -174 L177 -209 C303 -209 366 -184 366 -109 C366 -72 348 -49 309 -35 L325 -14 C403 -10 473 31 519 98 L519 149 C455 71 411 29 337 29 C301 29 272 44 250 66 C204 112 182 195 182 341 C182 475 204 567 253 616 C277 640 307 655 342 655 C421 655 488 577 501 469 L519 469 Z " />
<glyph glyph-name="Egrave" unicode="&#xc8;" horiz-adv-x="542" d="M504 210 C461 84 410 37 281 37 C232 37 222 50 222 118 L222 328 C299 327 339 280 339 175 L357 175 L357 522 L339 522 C339 414 298 368 222 365 L222 645 L274 645 C423 645 448 557 456 487 L474 487 L474 682 L13 682 L13 664 C73 666 84 643 84 594 L84 87 C84 36 67 15 13 18 L13 0 L489 0 L522 210 L504 210 Z M353 743 L303 912 L169 912 L315 743 L353 743 Z " />
<glyph glyph-name="Eacute" unicode="&#xc9;" horiz-adv-x="542" d="M504 210 C461 84 410 37 281 37 C232 37 222 50 222 118 L222 328 C299 327 339 280 339 175 L357 175 L357 522 L339 522 C339 414 298 368 222 365 L222 645 L274 645 C423 645 448 557 456 487 L474 487 L474 682 L13 682 L13 664 C73 666 84 643 84 594 L84 87 C84 36 67 15 13 18 L13 0 L489 0 L522 210 L504 210 Z M190 743 L228 743 L374 912 L240 912 L190 743 Z " />
<glyph glyph-name="Ecircumflex" unicode="&#xca;" horiz-adv-x="542" d="M504 210 C461 84 410 37 281 37 C232 37 222 50 222 118 L222 328 C299 327 339 280 339 175 L357 175 L357 522 L339 522 C339 414 298 368 222 365 L222 645 L274 645 C423 645 448 557 456 487 L474 487 L474 682 L13 682 L13 664 C73 666 84 643 84 594 L84 87 C84 36 67 15 13 18 L13 0 L489 0 L522 210 L504 210 Z M132 735 L169 735 L271 829 L375 735 L411 735 L320 917 L224 917 L132 735 Z " />
<glyph glyph-name="Edieresis" unicode="&#xcb;" horiz-adv-x="542" d="M504 210 C461 84 410 37 281 37 C232 37 222 50 222 118 L222 328 C299 327 339 280 339 175 L357 175 L357 522 L339 522 C339 414 298 368 222 365 L222 645 L274 645 C423 645 448 557 456 487 L474 487 L474 682 L13 682 L13 664 C73 666 84 643 84 594 L84 87 C84 36 67 15 13 18 L13 0 L489 0 L522 210 L504 210 Z M189 885 C156 885 130 859 130 826 C130 793 156 767 189 767 C222 767 248 793 248 826 C248 859 222 885 189 885 L189 885 Z M354 885 C321 885 295 859 295 826 C295 793 321 767 354 767 C387 767 413 793 413 826 C413 859 387 885 354 885 L354 885 Z " />
<glyph glyph-name="Igrave" unicode="&#xcc;" horiz-adv-x="292" d="M16 682 L16 664 C68 665 76 633 76 596 L76 86 C76 38 58 17 16 18 L16 0 L276 0 L276 18 C228 18 214 39 214 87 L214 600 C214 648 237 666 276 664 L276 682 L16 682 Z M208 743 L158 912 L24 912 L170 743 L208 743 Z " />
<glyph glyph-name="Iacute" unicode="&#xcd;" horiz-adv-x="292" d="M16 682 L16 664 C68 665 76 633 76 596 L76 86 C76 38 58 17 16 18 L16 0 L276 0 L276 18 C228 18 214 39 214 87 L214 600 C214 648 237 666 276 664 L276 682 L16 682 Z M85 743 L123 743 L269 912 L135 912 L85 743 Z " />
<glyph glyph-name="Icircumflex" unicode="&#xce;" horiz-adv-x="292" d="M16 682 L16 664 C68 665 76 633 76 596 L76 86 C76 38 58 17 16 18 L16 0 L276 0 L276 18 C228 18 214 39 214 87 L214 600 C214 648 237 666 276 664 L276 682 L16 682 Z M7 735 L44 735 L146 829 L250 735 L286 735 L195 917 L99 917 L7 735 Z " />
<glyph glyph-name="Idieresis" unicode="&#xcf;" horiz-adv-x="292" d="M16 682 L16 664 C68 665 76 633 76 596 L76 86 C76 38 58 17 16 18 L16 0 L276 0 L276 18 C228 18 214 39 214 87 L214 600 C214 648 237 666 276 664 L276 682 L16 682 Z M64 885 C31 885 5 859 5 826 C5 793 31 767 64 767 C97 767 123 793 123 826 C123 859 97 885 64 885 L64 885 Z M229 885 C196 885 170 859 170 826 C170 793 196 767 229 767 C262 767 288 793 288 826 C288 859 262 885 229 885 L229 885 Z " />
<glyph glyph-name="Eth" unicode="&#xd0;" horiz-adv-x="594" d="M19 682 L19 664 C73 664 84 639 84 596 L84 358 L19 358 L19 325 L84 325 L84 87 C84 39 67 18 19 18 L19 0 L261 0 C498 0 565 177 565 342 C565 521 480 682 279 682 L19 682 Z M222 645 L249 645 C297 645 332 627 346 613 C393 566 411 458 411 339 C411 247 400 116 354 70 C338 54 310 37 266 37 C231 37 222 49 222 103 L222 325 L317 325 L317 358 L222 358 L222 645 Z " />
<glyph glyph-name="Ntilde" unicode="&#xd1;" horiz-adv-x="594" d="M517 -9 L517 602 C517 651 535 664 576 664 L576 682 L415 682 L415 664 C465 664 478 643 478 597 L478 254 L476 254 L182 682 L18 682 L18 664 C24 664 37 659 44 649 L86 593 L86 84 C86 35 70 16 18 18 L18 0 L190 0 L190 18 C140 17 123 39 123 88 L123 536 L125 536 L499 -9 L517 -9 Z M408 893 C403 859 394 847 376 847 C338 847 292 894 241 894 C191 894 157 839 156 758 L187 758 C193 791 202 804 221 804 C249 804 299 758 350 758 C405 758 437 807 439 893 L408 893 Z " />
<glyph glyph-name="Ograve" unicode="&#xd2;" horiz-adv-x="646" d="M615 339 C615 606 454 698 322 698 C213 698 31 627 31 339 C31 62 203 -15 324 -15 C440 -15 615 63 615 339 L615 339 Z M461 348 C461 156 440 22 323 22 C202 22 185 173 185 346 C185 547 216 661 323 661 C436 661 461 539 461 348 L461 348 Z M375 743 L325 912 L191 912 L337 743 L375 743 Z " />
<glyph glyph-name="Oacute" unicode="&#xd3;" horiz-adv-x="646" d="M615 339 C615 606 454 698 322 698 C213 698 31 627 31 339 C31 62 203 -15 324 -15 C440 -15 615 63 615 339 L615 339 Z M461 348 C461 156 440 22 323 22 C202 22 185 173 185 346 C185 547 216 661 323 661 C436 661 461 539 461 348 L461 348 Z M272 743 L310 743 L456 912 L322 912 L272 743 Z " />
<glyph glyph-name="Ocircumflex" unicode="&#xd4;" horiz-adv-x="646" d="M615 339 C615 606 454 698 322 698 C213 698 31 627 31 339 C31 62 203 -15 324 -15 C440 -15 615 63 615 339 L615 339 Z M461 348 C461 156 440 22 323 22 C202 22 185 173 185 346 C185 547 216 661 323 661 C436 661 461 539 461 348 L461 348 Z M184 735 L221 735 L323 829 L427 735 L463 735 L372 917 L276 917 L184 735 Z " />
<glyph glyph-name="Otilde" unicode="&#xd5;" horiz-adv-x="646" d="M615 339 C615 606 454 698 322 698 C213 698 31 627 31 339 C31 62 203 -15 324 -15 C440 -15 615 63 615 339 L615 339 Z M461 348 C461 156 440 22 323 22 C202 22 185 173 185 346 C185 547 216 661 323 661 C436 661 461 539 461 348 L461 348 Z M434 893 C429 859 420 847 402 847 C364 847 318 894 267 894 C217 894 183 839 182 758 L213 758 C219 791 228 804 247 804 C275 804 325 758 376 758 C431 758 463 807 465 893 L434 893 Z " />
<glyph glyph-name="Odieresis" unicode="&#xd6;" horiz-adv-x="646" d="M615 339 C615 606 454 698 322 698 C213 698 31 627 31 339 C31 62 203 -15 324 -15 C440 -15 615 63 615 339 L615 339 Z M461 348 C461 156 440 22 323 22 C202 22 185 173 185 346 C185 547 216 661 323 661 C436 661 461 539 461 348 L461 348 Z M241 885 C208 885 182 859 182 826 C182 793 208 767 241 767 C274 767 300 793 300 826 C300 859 274 885 241 885 L241 885 Z M406 885 C373 885 347 859 347 826 C347 793 373 767 406 767 C439 767 465 793 465 826 C465 859 439 885 406 885 L406 885 Z " />
<glyph glyph-name="multiply" unicode="&#xd7;" horiz-adv-x="668" d="M145 591 L83 529 L272 340 L83 151 L145 89 L334 278 L523 89 L585 151 L396 340 L585 529 L523 591 L334 402 L145 591 Z " />
<glyph glyph-name="Oslash" unicode="&#xd8;" horiz-adv-x="646" d="M599 697 L526 610 C468 672 391 698 322 698 C213 698 31 627 31 339 C31 231 57 154 96 100 L19 9 L44 -12 L117 74 C177 8 258 -15 324 -15 C440 -15 615 63 615 339 C615 449 587 530 546 585 L624 677 L599 697 Z M454 476 C459 438 461 395 461 348 C461 156 440 22 323 22 C247 22 212 82 196 169 L454 476 Z M191 213 C186 253 185 299 185 346 C185 547 216 661 323 661 C397 661 433 609 449 519 L191 213 Z " />
<glyph glyph-name="Ugrave" unicode="&#xd9;" horiz-adv-x="594" d="M18 682 L18 664 C64 661 75 639 75 596 L75 172 C75 14 207 -15 297 -15 C477 -15 517 87 517 182 L517 595 C517 641 530 663 576 664 L576 682 L425 682 L425 664 C469 663 480 644 480 562 L480 200 C480 146 470 93 447 70 C427 50 395 31 337 31 C300 31 267 41 245 63 C225 83 213 118 213 174 L213 599 C213 644 231 663 271 664 L270 682 L18 682 Z M379 743 L329 912 L195 912 L341 743 L379 743 Z " />
<glyph glyph-name="Uacute" unicode="&#xda;" horiz-adv-x="594" d="M18 682 L18 664 C64 661 75 639 75 596 L75 172 C75 14 207 -15 297 -15 C477 -15 517 87 517 182 L517 595 C517 641 530 663 576 664 L576 682 L425 682 L425 664 C469 663 480 644 480 562 L480 200 C480 146 470 93 447 70 C427 50 395 31 337 31 C300 31 267 41 245 63 C225 83 213 118 213 174 L213 599 C213 644 231 663 271 664 L270 682 L18 682 Z M256 743 L294 743 L440 912 L306 912 L256 743 Z " />
<glyph glyph-name="Ucircumflex" unicode="&#xdb;" horiz-adv-x="594" d="M18 682 L18 664 C64 661 75 639 75 596 L75 172 C75 14 207 -15 297 -15 C477 -15 517 87 517 182 L517 595 C517 641 530 663 576 664 L576 682 L425 682 L425 664 C469 663 480 644 480 562 L480 200 C480 146 470 93 447 70 C427 50 395 31 337 31 C300 31 267 41 245 63 C225 83 213 118 213 174 L213 599 C213 644 231 663 271 664 L270 682 L18 682 Z M158 735 L195 735 L297 829 L401 735 L437 735 L346 917 L250 917 L158 735 Z " />
<glyph glyph-name="Udieresis" unicode="&#xdc;" horiz-adv-x="594" d="M18 682 L18 664 C64 661 75 639 75 596 L75 172 C75 14 207 -15 297 -15 C477 -15 517 87 517 182 L517 595 C517 641 530 663 576 664 L576 682 L425 682 L425 664 C469 663 480 644 480 562 L480 200 C480 146 470 93 447 70 C427 50 395 31 337 31 C300 31 267 41 245 63 C225 83 213 118 213 174 L213 599 C213 644 231 663 271 664 L270 682 L18 682 Z M235 885 C202 885 176 859 176 826 C176 793 202 767 235 767 C268 767 294 793 294 826 C294 859 268 885 235 885 L235 885 Z M400 885 C367 885 341 859 341 826 C341 793 367 767 400 767 C433 767 459 793 459 826 C459 859 433 885 400 885 L400 885 Z " />
<glyph glyph-name="Yacute" unicode="&#xdd;" horiz-adv-x="542" d="M524 682 L390 682 L390 664 C425 663 441 653 441 633 C441 620 437 603 424 568 L332 321 L223 604 C220 611 213 626 213 637 C213 655 231 667 269 664 L269 682 L17 682 L17 664 C56 658 58 655 95 561 L217 251 L217 85 C217 29 198 14 130 18 L130 0 L440 0 L440 18 C363 14 355 35 355 106 L355 279 L459 558 C494 652 498 658 524 664 L524 682 Z M280 743 L318 743 L464 912 L330 912 L280 743 Z " />
<glyph glyph-name="Thorn" unicode="&#xde;" horiz-adv-x="542" d="M219 536 L219 590 C219 630 220 664 282 664 L282 682 L17 682 L17 664 C81 664 81 632 81 575 L81 87 C81 41 69 17 17 18 L17 0 L293 0 L293 18 C235 15 219 36 219 84 L219 164 L284 164 C474 164 527 274 527 354 C527 403 504 451 473 482 C439 516 395 536 249 536 L219 536 Z M219 499 L254 499 C338 499 373 456 373 353 C373 254 344 201 261 201 L219 201 L219 499 Z " />
<glyph glyph-name="germandbls" unicode="&#xdf;" horiz-adv-x="448" d="M214 395 C277 395 297 380 297 305 C297 292 296 256 296 240 C296 182 301 150 306 127 C311 103 317 89 317 68 C317 44 304 26 287 26 C276 26 268 30 268 48 C268 52 269 64 269 66 C269 82 256 94 239 94 C220 94 207 79 207 56 C207 19 238 -7 284 -7 C338 -7 429 28 429 209 C429 330 388 394 297 417 L297 419 C366 438 401 478 401 539 C401 632 329 694 221 694 C123 694 52 637 52 534 L52 79 C52 25 48 19 18 18 L18 0 L185 0 L185 18 C178 22 174 33 174 45 L174 593 C174 642 189 665 221 665 C265 665 270 626 270 547 C270 440 264 430 214 425 L214 395 Z " />
<glyph glyph-name="agrave" unicode="&#xe0;" horiz-adv-x="448" d="M254 371 L254 287 L189 255 C65 194 30 140 30 86 C30 30 68 -12 120 -12 C157 -12 196 7 254 60 C261 15 290 -12 332 -12 C372 -12 407 13 431 60 L418 73 C410 57 403 50 395 50 C382 50 376 62 376 92 L376 344 C376 440 314 473 229 473 C123 473 35 411 35 337 C35 303 64 278 101 278 C137 278 161 298 161 328 C161 361 130 365 130 395 C130 419 157 440 193 440 C218 440 234 433 243 420 C256 402 254 386 254 371 L254 371 Z M254 254 L254 98 C234 81 214 72 199 72 C173 72 153 96 153 127 C153 168 175 206 254 254 L254 254 Z M286 536 L236 705 L102 705 L248 536 L286 536 Z " />
<glyph glyph-name="aacute" unicode="&#xe1;" horiz-adv-x="448" d="M254 371 L254 287 L189 255 C65 194 30 140 30 86 C30 30 68 -12 120 -12 C157 -12 196 7 254 60 C261 15 290 -12 332 -12 C372 -12 407 13 431 60 L418 73 C410 57 403 50 395 50 C382 50 376 62 376 92 L376 344 C376 440 314 473 229 473 C123 473 35 411 35 337 C35 303 64 278 101 278 C137 278 161 298 161 328 C161 361 130 365 130 395 C130 419 157 440 193 440 C218 440 234 433 243 420 C256 402 254 386 254 371 L254 371 Z M254 254 L254 98 C234 81 214 72 199 72 C173 72 153 96 153 127 C153 168 175 206 254 254 L254 254 Z M163 536 L201 536 L347 705 L213 705 L163 536 Z " />
<glyph glyph-name="acircumflex" unicode="&#xe2;" horiz-adv-x="448" d="M254 371 L254 287 L189 255 C65 194 30 140 30 86 C30 30 68 -12 120 -12 C157 -12 196 7 254 60 C261 15 290 -12 332 -12 C372 -12 407 13 431 60 L418 73 C410 57 403 50 395 50 C382 50 376 62 376 92 L376 344 C376 440 314 473 229 473 C123 473 35 411 35 337 C35 303 64 278 101 278 C137 278 161 298 161 328 C161 361 130 365 130 395 C130 419 157 440 193 440 C218 440 234 433 243 420 C256 402 254 386 254 371 L254 371 Z M254 254 L254 98 C234 81 214 72 199 72 C173 72 153 96 153 127 C153 168 175 206 254 254 L254 254 Z M85 528 L122 528 L224 622 L328 528 L364 528 L273 710 L177 710 L85 528 Z " />
<glyph glyph-name="atilde" unicode="&#xe3;" horiz-adv-x="448" d="M254 371 L254 287 L189 255 C65 194 30 140 30 86 C30 30 68 -12 120 -12 C157 -12 196 7 254 60 C261 15 290 -12 332 -12 C372 -12 407 13 431 60 L418 73 C410 57 403 50 395 50 C382 50 376 62 376 92 L376 344 C376 440 314 473 229 473 C123 473 35 411 35 337 C35 303 64 278 101 278 C137 278 161 298 161 328 C161 361 130 365 130 395 C130 419 157 440 193 440 C218 440 234 433 243 420 C256 402 254 386 254 371 L254 371 Z M254 254 L254 98 C234 81 214 72 199 72 C173 72 153 96 153 127 C153 168 175 206 254 254 L254 254 Z M335 686 C330 652 321 640 303 640 C265 640 219 687 168 687 C118 687 84 632 83 551 L114 551 C120 584 129 597 148 597 C176 597 226 551 277 551 C332 551 364 600 366 686 L335 686 Z " />
<glyph glyph-name="adieresis" unicode="&#xe4;" horiz-adv-x="448" d="M254 371 L254 287 L189 255 C65 194 30 140 30 86 C30 30 68 -12 120 -12 C157 -12 196 7 254 60 C261 15 290 -12 332 -12 C372 -12 407 13 431 60 L418 73 C410 57 403 50 395 50 C382 50 376 62 376 92 L376 344 C376 440 314 473 229 473 C123 473 35 411 35 337 C35 303 64 278 101 278 C137 278 161 298 161 328 C161 361 130 365 130 395 C130 419 157 440 193 440 C218 440 234 433 243 420 C256 402 254 386 254 371 L254 371 Z M254 254 L254 98 C234 81 214 72 199 72 C173 72 153 96 153 127 C153 168 175 206 254 254 L254 254 Z M142 678 C109 678 83 652 83 619 C83 586 109 560 142 560 C175 560 201 586 201 619 C201 652 175 678 142 678 L142 678 Z M307 678 C274 678 248 652 248 619 C248 586 274 560 307 560 C340 560 366 586 366 619 C366 652 340 678 307 678 L307 678 Z " />
<glyph glyph-name="aring" unicode="&#xe5;" horiz-adv-x="448" d="M254 371 L254 287 L189 255 C65 194 30 140 30 86 C30 30 68 -12 120 -12 C157 -12 196 7 254 60 C261 15 290 -12 332 -12 C372 -12 407 13 431 60 L418 73 C410 57 403 50 395 50 C382 50 376 62 376 92 L376 344 C376 440 314 473 229 473 C123 473 35 411 35 337 C35 303 64 278 101 278 C137 278 161 298 161 328 C161 361 130 365 130 395 C130 419 157 440 193 440 C218 440 234 433 243 420 C256 402 254 386 254 371 L254 371 Z M254 254 L254 98 C234 81 214 72 199 72 C173 72 153 96 153 127 C153 168 175 206 254 254 L254 254 Z M225 711 C174 711 133 671 133 620 C133 569 174 528 225 528 C276 528 316 569 316 620 C316 671 276 711 225 711 L225 711 Z M224 678 C256 678 283 652 283 620 C283 588 256 561 224 561 C192 561 166 588 166 620 C166 652 192 678 224 678 L224 678 Z " />
<glyph glyph-name="ae" unicode="&#xe6;" horiz-adv-x="594" d="M554 133 C530 85 500 61 465 61 C405 61 365 128 365 204 L365 246 L573 246 C580 368 521 473 412 473 C378 473 345 459 315 432 C284 460 251 473 207 473 C115 473 30 409 30 340 C30 304 58 278 96 278 C131 278 154 298 154 327 C154 368 124 378 124 403 C124 424 149 440 184 440 C231 440 243 415 243 331 L243 287 L163 244 C63 190 26 145 26 87 C26 31 68 -12 123 -12 C164 -12 211 15 270 72 C309 11 345 -12 402 -12 C479 -12 541 37 572 124 L554 133 Z M243 85 C230 73 210 63 197 63 C169 63 148 90 148 127 C148 173 177 213 243 254 L243 85 Z M456 279 L365 279 L365 320 C365 415 382 440 412 440 C445 440 456 407 456 345 L456 279 Z " />
<glyph glyph-name="ccedilla" unicode="&#xe7;" horiz-adv-x="396" d="M364 115 C339 82 307 63 275 63 C204 63 144 170 144 299 C144 382 169 436 207 436 C233 436 243 422 247 381 C252 319 269 296 310 296 C344 296 366 319 366 352 C366 419 304 473 225 473 C113 473 26 364 26 221 C26 90 103 -8 207 -11 L145 -81 C178 -86 192 -99 192 -125 C192 -158 167 -172 104 -174 L104 -209 C230 -209 293 -184 293 -109 C293 -72 275 -49 236 -35 L260 -5 C308 10 349 47 379 104 L364 115 Z " />
<glyph glyph-name="egrave" unicode="&#xe8;" horiz-adv-x="396" d="M358 138 C331 84 303 61 267 61 C202 61 158 133 156 247 L375 247 C378 370 319 473 213 473 C108 473 28 366 28 226 C28 87 103 -12 208 -12 C289 -12 349 39 374 129 L358 138 Z M154 280 L154 300 C154 393 172 440 210 440 C250 440 261 383 258 280 L154 280 Z M280 536 L230 705 L96 705 L242 536 L280 536 Z " />
<glyph glyph-name="eacute" unicode="&#xe9;" horiz-adv-x="396" d="M358 138 C331 84 303 61 267 61 C202 61 158 133 156 247 L375 247 C378 370 319 473 213 473 C108 473 28 366 28 226 C28 87 103 -12 208 -12 C289 -12 349 39 374 129 L358 138 Z M154 280 L154 300 C154 393 172 440 210 440 C250 440 261 383 258 280 L154 280 Z M147 536 L185 536 L331 705 L197 705 L147 536 Z " />
<glyph glyph-name="ecircumflex" unicode="&#xea;" horiz-adv-x="396" d="M358 138 C331 84 303 61 267 61 C202 61 158 133 156 247 L375 247 C378 370 319 473 213 473 C108 473 28 366 28 226 C28 87 103 -12 208 -12 C289 -12 349 39 374 129 L358 138 Z M154 280 L154 300 C154 393 172 440 210 440 C250 440 261 383 258 280 L154 280 Z M59 528 L96 528 L198 622 L302 528 L338 528 L247 710 L151 710 L59 528 Z " />
<glyph glyph-name="edieresis" unicode="&#xeb;" horiz-adv-x="396" d="M358 138 C331 84 303 61 267 61 C202 61 158 133 156 247 L375 247 C378 370 319 473 213 473 C108 473 28 366 28 226 C28 87 103 -12 208 -12 C289 -12 349 39 374 129 L358 138 Z M154 280 L154 300 C154 393 172 440 210 440 C250 440 261 383 258 280 L154 280 Z M116 678 C83 678 57 652 57 619 C57 586 83 560 116 560 C149 560 175 586 175 619 C175 652 149 678 116 678 L116 678 Z M281 678 C248 678 222 652 222 619 C222 586 248 560 281 560 C314 560 340 586 340 619 C340 652 314 678 281 678 L281 678 Z " />
<glyph glyph-name="igrave" unicode="&#xec;" horiz-adv-x="250" d="M68 372 L68 81 C68 23 63 18 23 18 L23 0 L231 0 L231 18 C195 18 190 21 190 78 L190 461 L23 461 L23 443 C59 443 68 434 68 372 L68 372 Z M177 536 L127 705 L-7 705 L139 536 L177 536 Z " />
<glyph glyph-name="iacute" unicode="&#xed;" horiz-adv-x="250" d="M68 372 L68 81 C68 23 63 18 23 18 L23 0 L231 0 L231 18 C195 18 190 21 190 78 L190 461 L23 461 L23 443 C59 443 68 434 68 372 L68 372 Z M74 536 L112 536 L258 705 L124 705 L74 536 Z " />
<glyph glyph-name="icircumflex" unicode="&#xee;" horiz-adv-x="250" d="M68 372 L68 81 C68 23 63 18 23 18 L23 0 L231 0 L231 18 C195 18 190 21 190 78 L190 461 L23 461 L23 443 C59 443 68 434 68 372 L68 372 Z M-14 528 L23 528 L125 622 L229 528 L265 528 L174 710 L78 710 L-14 528 Z " />
<glyph glyph-name="idieresis" unicode="&#xef;" horiz-adv-x="250" d="M68 372 L68 81 C68 23 63 18 23 18 L23 0 L231 0 L231 18 C195 18 190 21 190 78 L190 461 L23 461 L23 443 C59 443 68 434 68 372 L68 372 Z M43 678 C10 678 -16 652 -16 619 C-16 586 10 560 43 560 C76 560 102 586 102 619 C102 652 76 678 43 678 L43 678 Z M208 678 C175 678 149 652 149 619 C149 586 175 560 208 560 C241 560 267 586 267 619 C267 652 241 678 208 678 L208 678 Z " />
<glyph glyph-name="eth" unicode="&#xf0;" horiz-adv-x="458" d="M211 571 C240 528 250 509 270 451 C247 460 229 466 204 466 C102 466 33 371 33 232 C33 89 114 -12 230 -12 C353 -12 427 95 427 263 C427 395 376 500 262 603 L355 661 L341 690 L236 624 C192 657 168 672 118 694 L108 676 C142 649 164 630 191 597 L83 530 L98 501 L211 571 Z M165 292 C165 393 186 433 231 433 C275 433 295 397 295 288 L295 222 C295 78 284 21 228 21 C188 21 165 59 165 155 L165 292 Z " />
<glyph glyph-name="ntilde" unicode="&#xf1;" horiz-adv-x="448" d="M176 462 L26 462 L26 444 C50 444 54 432 54 380 L54 78 C54 28 50 20 26 18 L26 0 L203 0 L203 18 C179 21 176 29 176 78 L176 356 C206 394 225 408 246 408 C271 408 281 388 281 320 L281 78 C281 28 278 22 253 18 L253 0 L430 0 L430 18 C406 20 403 28 403 78 L403 331 C403 433 362 473 301 473 C259 473 224 452 176 398 L176 462 Z M335 686 C330 652 321 640 303 640 C265 640 219 687 168 687 C118 687 84 632 83 551 L114 551 C120 584 129 597 148 597 C176 597 226 551 277 551 C332 551 364 600 366 686 L335 686 Z " />
<glyph glyph-name="ograve" unicode="&#xf2;" horiz-adv-x="448" d="M420 233 C420 379 342 473 222 473 C107 473 28 375 28 233 C28 84 105 -12 224 -12 C345 -12 420 82 420 233 L420 233 Z M288 222 C288 68 273 21 227 21 C172 21 160 103 160 225 C160 387 178 440 225 440 C275 440 288 367 288 222 L288 222 Z M276 536 L226 705 L92 705 L238 536 L276 536 Z " />
<glyph glyph-name="oacute" unicode="&#xf3;" horiz-adv-x="448" d="M420 233 C420 379 342 473 222 473 C107 473 28 375 28 233 C28 84 105 -12 224 -12 C345 -12 420 82 420 233 L420 233 Z M288 222 C288 68 273 21 227 21 C172 21 160 103 160 225 C160 387 178 440 225 440 C275 440 288 367 288 222 L288 222 Z M173 536 L211 536 L357 705 L223 705 L173 536 Z " />
<glyph glyph-name="ocircumflex" unicode="&#xf4;" horiz-adv-x="448" d="M420 233 C420 379 342 473 222 473 C107 473 28 375 28 233 C28 84 105 -12 224 -12 C345 -12 420 82 420 233 L420 233 Z M288 222 C288 68 273 21 227 21 C172 21 160 103 160 225 C160 387 178 440 225 440 C275 440 288 367 288 222 L288 222 Z M85 528 L122 528 L224 622 L328 528 L364 528 L273 710 L177 710 L85 528 Z " />
<glyph glyph-name="otilde" unicode="&#xf5;" horiz-adv-x="448" d="M420 233 C420 379 342 473 222 473 C107 473 28 375 28 233 C28 84 105 -12 224 -12 C345 -12 420 82 420 233 L420 233 Z M288 222 C288 68 273 21 227 21 C172 21 160 103 160 225 C160 387 178 440 225 440 C275 440 288 367 288 222 L288 222 Z M335 686 C330 652 321 640 303 640 C265 640 219 687 168 687 C118 687 84 632 83 551 L114 551 C120 584 129 597 148 597 C176 597 226 551 277 551 C332 551 364 600 366 686 L335 686 Z " />
<glyph glyph-name="odieresis" unicode="&#xf6;" horiz-adv-x="448" d="M420 233 C420 379 342 473 222 473 C107 473 28 375 28 233 C28 84 105 -12 224 -12 C345 -12 420 82 420 233 L420 233 Z M288 222 C288 68 273 21 227 21 C172 21 160 103 160 225 C160 387 178 440 225 440 C275 440 288 367 288 222 L288 222 Z M142 678 C109 678 83 652 83 619 C83 586 109 560 142 560 C175 560 201 586 201 619 C201 652 175 678 142 678 L142 678 Z M307 678 C274 678 248 652 248 619 C248 586 274 560 307 560 C340 560 366 586 366 619 C366 652 340 678 307 678 L307 678 Z " />
<glyph glyph-name="divide" unicode="&#xf7;" horiz-adv-x="668" d="M334 596 C303 596 278 572 278 541 C278 510 303 485 334 485 C365 485 389 510 389 541 C389 572 365 596 334 596 L334 596 Z M64 383 L64 296 L603 296 L603 383 L64 383 Z M334 194 C303 194 278 170 278 139 C278 108 303 83 334 83 C365 83 389 108 389 139 C389 170 365 194 334 194 L334 194 Z " />
<glyph glyph-name="oslash" unicode="&#xf8;" horiz-adv-x="448" d="M286 275 C288 262 288 243 288 222 C288 68 273 21 227 21 C188 21 171 63 165 134 L286 275 Z M162 179 C160 192 160 208 160 225 C160 387 178 440 225 440 C262 440 279 400 285 322 L162 179 Z M409 468 L362 413 C327 452 279 473 222 473 C107 473 28 375 28 233 C28 168 43 113 70 72 L18 11 L42 -10 L90 46 C122 9 169 -12 224 -12 C345 -12 420 82 420 233 C420 294 406 347 382 386 L435 448 L409 468 Z " />
<glyph glyph-name="ugrave" unicode="&#xf9;" horiz-adv-x="448" d="M396 461 L225 461 L225 443 C270 443 274 440 274 379 L274 106 C258 76 228 53 205 53 C178 53 168 76 168 143 L168 461 L19 461 L19 443 C44 438 46 433 46 382 L46 131 C46 30 95 -12 155 -12 C198 -12 234 9 272 59 L274 59 L274 0 L429 0 L429 18 C400 19 396 26 396 78 L396 461 Z M276 536 L226 705 L92 705 L238 536 L276 536 Z " />
<glyph glyph-name="uacute" unicode="&#xfa;" horiz-adv-x="448" d="M396 461 L225 461 L225 443 C270 443 274 440 274 379 L274 106 C258 76 228 53 205 53 C178 53 168 76 168 143 L168 461 L19 461 L19 443 C44 438 46 433 46 382 L46 131 C46 30 95 -12 155 -12 C198 -12 234 9 272 59 L274 59 L274 0 L429 0 L429 18 C400 19 396 26 396 78 L396 461 Z M143 536 L181 536 L327 705 L193 705 L143 536 Z " />
<glyph glyph-name="ucircumflex" unicode="&#xfb;" horiz-adv-x="448" d="M396 461 L225 461 L225 443 C270 443 274 440 274 379 L274 106 C258 76 228 53 205 53 C178 53 168 76 168 143 L168 461 L19 461 L19 443 C44 438 46 433 46 382 L46 131 C46 30 95 -12 155 -12 C198 -12 234 9 272 59 L274 59 L274 0 L429 0 L429 18 C400 19 396 26 396 78 L396 461 Z M85 528 L122 528 L224 622 L328 528 L364 528 L273 710 L177 710 L85 528 Z " />
<glyph glyph-name="udieresis" unicode="&#xfc;" horiz-adv-x="448" d="M396 461 L225 461 L225 443 C270 443 274 440 274 379 L274 106 C258 76 228 53 205 53 C178 53 168 76 168 143 L168 461 L19 461 L19 443 C44 438 46 433 46 382 L46 131 C46 30 95 -12 155 -12 C198 -12 234 9 272 59 L274 59 L274 0 L429 0 L429 18 C400 19 396 26 396 78 L396 461 Z M122 678 C89 678 63 652 63 619 C63 586 89 560 122 560 C155 560 181 586 181 619 C181 652 155 678 122 678 L122 678 Z M287 678 C254 678 228 652 228 619 C228 586 254 560 287 560 C320 560 346 586 346 619 C346 652 320 678 287 678 L287 678 Z " />
<glyph glyph-name="yacute" unicode="&#xfd;" horiz-adv-x="396" d="M379 461 L270 461 L270 443 C294 438 304 428 304 409 C304 397 301 379 294 351 L250 178 L248 178 L187 368 C174 408 173 410 173 419 C173 435 185 442 212 443 L212 461 L16 461 L16 443 C35 438 41 431 52 397 L196 -36 L183 -83 C168 -138 156 -160 140 -160 C134 -160 126 -155 126 -139 C126 -135 127 -125 127 -121 C127 -95 107 -73 79 -73 C47 -73 24 -99 24 -135 C24 -178 57 -210 105 -210 C163 -210 192 -171 217 -75 L329 360 C344 419 354 436 379 443 L379 461 Z M177 536 L215 536 L361 705 L227 705 L177 536 Z " />
<glyph glyph-name="thorn" unicode="&#xfe;" horiz-adv-x="448" d="M186 682 L21 682 L21 664 C59 664 64 661 64 603 L64 -131 C64 -187 59 -191 21 -191 L21 -209 L238 -209 L238 -191 C190 -192 186 -188 186 -128 L186 42 C221 3 246 -12 279 -12 C366 -12 427 92 427 240 C427 382 370 473 282 473 C241 473 208 450 188 407 L186 407 L186 682 Z M186 357 C201 392 221 413 239 413 C276 413 295 351 295 231 C295 106 283 37 246 37 C230 37 204 53 186 87 L186 357 Z " />
<glyph glyph-name="ydieresis" unicode="&#xff;" horiz-adv-x="396" d="M379 461 L270 461 L270 443 C294 438 304 428 304 409 C304 397 301 379 294 351 L250 178 L248 178 L187 368 C174 408 173 410 173 419 C173 435 185 442 212 443 L212 461 L16 461 L16 443 C35 438 41 431 52 397 L196 -36 L183 -83 C168 -138 156 -160 140 -160 C134 -160 126 -155 126 -139 C126 -135 127 -125 127 -121 C127 -95 107 -73 79 -73 C47 -73 24 -99 24 -135 C24 -178 57 -210 105 -210 C163 -210 192 -171 217 -75 L329 360 C344 419 354 436 379 443 L379 461 Z M116 678 C83 678 57 652 57 619 C57 586 83 560 116 560 C149 560 175 586 175 619 C175 652 149 678 116 678 L116 678 Z M281 678 C248 678 222 652 222 619 C222 586 248 560 281 560 C314 560 340 586 340 619 C340 652 314 678 281 678 L281 678 Z " />
<glyph glyph-name="dotlessi" unicode="&#x131;" horiz-adv-x="250" d="M68 372 L68 81 C68 23 63 18 23 18 L23 0 L231 0 L231 18 C195 18 190 21 190 78 L190 461 L23 461 L23 443 C59 443 68 434 68 372 L68 372 Z " />
<glyph glyph-name="Lslash" unicode="&#x141;" horiz-adv-x="542" d="M504 234 C459 68 405 37 283 37 C245 37 231 49 231 97 L231 344 L376 433 L376 478 L231 389 L231 597 C231 648 247 667 314 664 L314 682 L16 682 L16 664 C79 668 93 642 93 597 L93 314 L18 268 L18 223 L93 269 L93 89 C93 37 82 18 16 18 L16 0 L497 0 L522 234 L504 234 Z " />
<glyph glyph-name="lslash" unicode="&#x142;" horiz-adv-x="250" d="M190 682 L19 682 L19 664 C62 664 68 660 68 599 L68 320 L9 270 L9 225 L68 274 L68 66 C68 24 58 18 19 18 L19 0 L232 0 L232 18 C195 18 190 21 190 78 L190 368 L248 417 L248 465 L190 415 L190 682 Z " />
<glyph glyph-name="OE" unicode="&#x152;" horiz-adv-x="792" d="M761 212 C732 94 673 37 582 37 C531 37 523 59 523 119 L523 328 C592 323 614 286 617 175 L635 175 L635 522 L617 522 C616 419 588 366 523 365 L523 645 L556 645 C660 645 710 600 725 489 L743 489 L743 682 L431 682 C406 682 376 684 349 686 C321 688 297 689 285 689 C138 689 29 569 29 351 C29 126 127 -7 293 -7 C306 -7 330 -5 356 -3 C381 -1 408 0 426 0 L750 0 L779 212 L761 212 Z M385 159 C385 73 361 30 299 30 C222 30 183 94 183 335 C183 580 209 652 296 652 C358 652 385 607 385 502 L385 159 Z " />
<glyph glyph-name="oe" unicode="&#x153;" horiz-adv-x="594" d="M555 133 C529 87 499 63 468 63 C412 63 378 129 378 197 L378 246 L572 246 C577 382 505 473 415 473 C381 473 348 458 321 430 C286 460 254 473 210 473 C138 473 26 419 26 222 C26 76 93 -12 204 -12 C251 -12 289 3 321 35 C349 4 382 -12 418 -12 C483 -12 540 38 572 123 L555 133 Z M209 21 C169 21 158 72 158 234 C158 409 175 440 208 440 C246 440 259 396 259 265 C259 65 251 21 209 21 L209 21 Z M454 279 L377 279 L377 331 C377 414 390 440 414 440 C442 440 454 410 454 334 L454 279 Z " />
<glyph glyph-name="Scaron" unicode="&#x160;" horiz-adv-x="448" d="M397 476 L391 698 L373 698 C368 667 359 655 340 655 C311 655 268 698 196 698 C94 698 23 620 23 508 C23 450 40 406 85 361 C136 310 250 261 292 219 C317 194 326 176 326 136 C326 70 283 22 224 22 C134 22 59 112 42 238 L24 238 L24 -15 L41 -15 C47 12 59 25 77 25 C105 25 161 -15 233 -15 C343 -15 425 72 425 190 C425 248 406 302 363 345 C303 405 193 441 144 490 C128 506 113 528 113 561 C113 618 157 661 213 661 C293 661 359 588 379 476 L397 476 Z M364 917 L327 917 L225 823 L121 917 L85 917 L176 735 L272 735 L364 917 Z " />
<glyph glyph-name="scaron" unicode="&#x161;" horiz-adv-x="344" d="M297 473 L279 473 C273 453 264 447 255 447 C227 447 207 473 147 473 C75 473 20 412 20 332 C20 295 28 268 58 238 C102 194 180 164 212 132 C225 119 234 103 234 82 C234 49 210 25 177 25 C136 25 79 55 42 152 L24 152 L28 -12 L46 -12 C46 8 55 17 67 17 C84 17 119 -12 179 -12 C261 -12 324 52 324 135 C324 181 309 208 289 228 C238 279 162 304 127 339 C111 355 103 367 103 392 C103 421 126 440 160 440 C218 440 265 382 280 317 L297 317 L297 473 Z M312 710 L275 710 L173 616 L69 710 L33 710 L124 528 L220 528 L312 710 Z " />
<glyph glyph-name="Ydieresis" unicode="&#x178;" horiz-adv-x="542" d="M524 682 L390 682 L390 664 C425 663 441 653 441 633 C441 620 437 603 424 568 L332 321 L223 604 C220 611 213 626 213 637 C213 655 231 667 269 664 L269 682 L17 682 L17 664 C56 658 58 655 95 561 L217 251 L217 85 C217 29 198 14 130 18 L130 0 L440 0 L440 18 C363 14 355 35 355 106 L355 279 L459 558 C494 652 498 658 524 664 L524 682 Z M189 885 C156 885 130 859 130 826 C130 793 156 767 189 767 C222 767 248 793 248 826 C248 859 222 885 189 885 L189 885 Z M354 885 C321 885 295 859 295 826 C295 793 321 767 354 767 C387 767 413 793 413 826 C413 859 387 885 354 885 L354 885 Z " />
<glyph glyph-name="Zcaron" unicode="&#x17d;" horiz-adv-x="542" d="M502 240 C479 90 426 37 279 37 L186 37 L511 682 L79 682 L64 488 L82 488 C106 624 140 645 245 645 L343 645 L20 0 L498 0 L521 240 L502 240 Z M411 917 L374 917 L272 823 L168 917 L132 917 L223 735 L319 735 L411 917 Z " />
<glyph glyph-name="zcaron" unicode="&#x17e;" horiz-adv-x="396" d="M359 156 C335 64 289 30 186 30 L161 30 L377 443 L377 461 L49 461 L49 327 L66 327 C79 417 118 430 172 430 L237 430 L18 18 L18 0 L359 0 L377 156 L359 156 Z M338 710 L301 710 L199 616 L95 710 L59 710 L150 528 L246 528 L338 710 Z " />
<glyph glyph-name="florin" unicode="&#x192;" horiz-adv-x="500" d="M292 392 L369 392 L381 454 L303 454 C308 484 310 500 310 513 C310 541 306 574 306 606 C306 648 325 674 353 674 C360 674 367 669 367 664 C367 657 351 635 351 617 C351 594 371 575 395 575 C427 575 450 600 450 633 C450 672 417 698 368 698 C325 698 294 683 269 658 C214 603 217 527 167 477 C150 460 122 454 89 454 L76 392 L148 392 L95 141 C87 102 82 73 79 50 C76 27 75 8 75 -11 C75 -34 76 -58 77 -77 C78 -97 79 -112 79 -119 C79 -154 60 -178 40 -178 C33 -178 24 -174 24 -168 C24 -164 30 -151 30 -140 C30 -116 10 -100 -17 -100 C-46 -100 -69 -123 -69 -150 C-69 -186 -36 -209 10 -209 C89 -209 180 -140 218 43 L292 392 Z " />
<glyph glyph-name="circumflex" unicode="&#x2c6;" horiz-adv-x="333" d="M27 521 L64 521 L166 615 L270 521 L306 521 L215 703 L119 703 L27 521 Z " />
<glyph glyph-name="caron" unicode="&#x2c7;" horiz-adv-x="333" d="M306 703 L269 703 L167 609 L63 703 L27 703 L118 521 L214 521 L306 703 Z " />
<glyph glyph-name="breve" unicode="&#x2d8;" horiz-adv-x="333" d="M36 688 C36 570 111 535 168 535 C248 535 297 593 298 688 L267 688 C257 643 223 619 169 619 C116 619 80 643 68 688 L36 688 Z " />
<glyph glyph-name="dotaccent" unicode="&#x2d9;" horiz-adv-x="333" d="M167 671 C134 671 108 645 108 612 C108 579 134 553 167 553 C200 553 226 579 226 612 C226 645 200 671 167 671 L167 671 Z " />
<glyph glyph-name="ring" unicode="&#x2da;" horiz-adv-x="333" d="M167 704 C116 704 75 664 75 613 C75 562 116 521 167 521 C218 521 258 562 258 613 C258 664 218 704 167 704 L167 704 Z M166 671 C198 671 225 645 225 613 C225 581 198 554 166 554 C134 554 108 581 108 613 C108 645 134 671 166 671 L166 671 Z " />
<glyph glyph-name="ogonek" unicode="&#x2db;" horiz-adv-x="333" d="M143 5 C96 -16 66 -57 66 -101 C66 -161 121 -214 183 -214 C215 -214 246 -202 267 -181 L256 -165 C198 -174 148 -118 148 -70 C148 -41 161 -11 179 5 L143 5 Z " />
<glyph glyph-name="tilde" unicode="&#x2dc;" horiz-adv-x="333" d="M277 679 C272 645 263 633 245 633 C207 633 161 680 110 680 C60 680 26 625 25 544 L56 544 C62 577 71 590 90 590 C118 590 168 544 219 544 C274 544 306 593 308 679 L277 679 Z " />
<glyph glyph-name="hungarumlaut" unicode="&#x2dd;" horiz-adv-x="333" d="M219 529 L257 529 L403 698 L269 698 L219 529 Z M49 529 L87 529 L233 698 L99 698 L49 529 Z " />
<glyph glyph-name="endash" unicode="&#x2013;" horiz-adv-x="500" d="M-6 281 L-6 218 L506 218 L506 281 L-6 281 Z " />
<glyph glyph-name="emdash" unicode="&#x2014;" horiz-adv-x="1000" d="M-6 281 L-6 218 L1006 218 L1006 281 L-6 281 Z " />
<glyph glyph-name="quoteleft" unicode="&#x2018;" horiz-adv-x="250" d="M195 682 C101 647 43 571 43 483 C43 414 80 368 135 368 C178 368 208 400 208 445 C208 485 182 514 146 514 C126 514 117 503 108 503 C102 503 97 511 97 523 C97 574 140 633 195 660 L195 682 Z " />
<glyph glyph-name="quoteright" unicode="&#x2019;" horiz-adv-x="250" d="M55 380 C149 415 207 491 207 579 C207 648 170 694 115 694 C72 694 42 662 42 617 C42 577 68 548 104 548 C124 548 133 559 142 559 C148 559 153 551 153 539 C153 488 110 429 55 402 L55 380 Z " />
<glyph glyph-name="quotesinglbase" unicode="&#x201a;" horiz-adv-x="250" d="M56 -180 C150 -145 208 -69 208 19 C208 88 171 134 116 134 C73 134 43 102 43 57 C43 17 69 -12 105 -12 C115 -12 122 -9 128 -6 C134 -4 139 -1 143 -1 C149 -1 154 -9 154 -21 C154 -72 111 -131 56 -158 L56 -180 Z " />
<glyph glyph-name="quotedblleft" unicode="&#x201c;" horiz-adv-x="448" d="M397 682 C303 647 245 571 245 483 C245 414 282 368 337 368 C380 368 410 400 410 445 C410 485 384 514 348 514 C328 514 319 503 310 503 C304 503 299 511 299 523 C299 574 342 633 397 660 L397 682 Z M191 682 C97 647 39 571 39 483 C39 414 76 368 131 368 C174 368 204 400 204 445 C204 485 178 514 142 514 C122 514 113 503 104 503 C98 503 93 511 93 523 C93 574 136 633 191 660 L191 682 Z " />
<glyph glyph-name="quotedblright" unicode="&#x201d;" horiz-adv-x="448" d="M257 380 C351 415 409 491 409 579 C409 648 372 694 317 694 C274 694 244 662 244 617 C244 577 270 548 306 548 C326 548 335 559 344 559 C350 559 355 551 355 539 C355 488 312 429 257 402 L257 380 Z M51 380 C145 415 203 491 203 579 C203 648 166 694 111 694 C68 694 38 662 38 617 C38 577 64 548 100 548 C120 548 129 559 138 559 C144 559 149 551 149 539 C149 488 106 429 51 402 L51 380 Z " />
<glyph glyph-name="quotedblbase" unicode="&#x201e;" horiz-adv-x="448" d="M258 -180 C352 -145 410 -69 410 19 C410 88 373 134 318 134 C275 134 245 102 245 57 C245 17 271 -12 307 -12 C317 -12 324 -9 330 -6 C336 -4 341 -1 345 -1 C351 -1 356 -9 356 -21 C356 -72 313 -131 258 -158 L258 -180 Z M52 -180 C146 -145 204 -69 204 19 C204 88 167 134 112 134 C69 134 39 102 39 57 C39 17 65 -12 101 -12 C111 -12 118 -9 124 -6 C130 -4 135 -1 139 -1 C145 -1 150 -9 150 -21 C150 -72 107 -131 52 -158 L52 -180 Z " />
<glyph glyph-name="dagger" unicode="&#x2020;" horiz-adv-x="448" d="M234 -192 L234 -93 C234 65 249 235 279 316 C252 343 239 379 234 434 C299 435 318 392 362 392 C388 392 407 414 407 445 C407 474 388 494 360 494 C317 494 299 454 234 455 C233 527 278 566 278 636 C278 672 256 698 224 698 C191 698 170 672 170 634 C170 566 216 527 215 455 C148 455 132 494 87 494 C60 494 41 473 41 445 C41 414 61 392 88 392 C130 392 146 433 215 434 C215 389 202 354 168 316 C206 204 215 32 215 -160 L215 -192 L234 -192 Z " />
<glyph glyph-name="daggerdbl" unicode="&#x2021;" horiz-adv-x="448" d="M357 440 C381 440 403 463 403 488 C403 512 384 531 358 531 C324 531 285 497 233 494 C231 549 274 591 274 643 C274 676 254 698 224 698 C193 698 174 675 174 640 C174 594 216 546 215 494 C170 494 125 531 88 531 C63 531 45 512 45 485 C45 458 63 440 90 440 C129 440 165 477 215 476 C212 442 197 414 165 386 C199 356 215 312 215 247 C215 191 199 149 165 120 C197 91 212 64 215 30 C154 30 139 65 89 65 C63 65 45 46 45 20 C45 -7 63 -26 89 -26 C122 -26 164 11 215 11 C214 -52 174 -85 174 -137 C174 -170 194 -192 224 -192 C255 -192 274 -171 274 -136 C274 -78 233 -58 233 11 C295 11 314 -26 361 -26 C386 -26 403 -8 403 19 C403 47 385 65 358 65 C311 65 288 29 233 30 C235 62 253 94 281 120 C248 140 231 182 231 259 C231 317 248 361 281 386 C250 414 236 442 233 476 C288 476 321 440 357 440 L357 440 Z " />
<glyph glyph-name="bullet" unicode="&#x2022;" horiz-adv-x="350" d="M176 469 C99 469 36 407 36 330 C36 253 99 190 176 190 C253 190 315 253 315 330 C315 407 253 469 176 469 L176 469 Z " />
<glyph glyph-name="ellipsis" unicode="&#x2026;" horiz-adv-x="1000" d="M835 135 C794 135 761 103 761 62 C761 21 794 -12 835 -12 C876 -12 908 21 908 62 C908 103 876 135 835 135 L835 135 Z M501 135 C460 135 427 103 427 62 C427 21 460 -12 501 -12 C542 -12 574 21 574 62 C574 103 542 135 501 135 L501 135 Z M167 135 C126 135 93 103 93 62 C93 21 126 -12 167 -12 C208 -12 240 21 240 62 C240 103 208 135 167 135 L167 135 Z " />
<glyph glyph-name="perthousand" unicode="&#x2030;" horiz-adv-x="865" d="M725 18 C709 18 704 34 704 104 L704 243 C704 329 708 337 725 337 C746 337 749 326 749 234 L749 122 C749 28 743 18 725 18 L725 18 Z M607 177 C607 62 651 -6 726 -6 C796 -6 846 53 846 181 C846 293 800 361 726 361 C651 361 607 293 607 177 L607 177 Z M117 -6 L514 693 L468 693 L70 -6 L117 -6 Z M19 510 C19 395 63 327 138 327 C208 327 258 386 258 514 C258 626 212 694 138 694 C63 694 19 626 19 510 L19 510 Z M137 351 C121 351 116 367 116 437 L116 576 C116 662 120 670 137 670 C158 670 161 659 161 567 L161 455 C161 361 155 351 137 351 L137 351 Z M327 177 C327 62 371 -6 446 -6 C516 -6 566 53 566 181 C566 293 520 361 446 361 C371 361 327 293 327 177 L327 177 Z M445 18 C429 18 424 34 424 104 L424 243 C424 329 428 337 445 337 C466 337 469 326 469 234 L469 122 C469 28 463 18 445 18 L445 18 Z " />
<glyph glyph-name="guilsinglleft" unicode="&#x2039;" horiz-adv-x="302" d="M163 252 L252 478 L219 478 L44 252 L219 26 L252 26 L163 252 Z " />
<glyph glyph-name="guilsinglright" unicode="&#x203a;" horiz-adv-x="302" d="M139 252 L50 26 L83 26 L258 252 L83 478 L50 478 L139 252 Z " />
<glyph glyph-name="fraction" unicode="&#x2044;" horiz-adv-x="146" d="M-103 -6 L294 693 L248 693 L-149 -6 L-103 -6 Z " />
<glyph glyph-name="trademark" unicode="&#x2122;" horiz-adv-x="1000" d="M-2 682 L-2 572 L14 572 C20 633 47 657 110 657 L126 657 L126 370 C126 311 124 308 76 305 L76 288 L297 288 L297 305 C256 305 248 315 248 370 L248 657 L266 657 C331 657 356 634 360 572 L377 572 L377 682 L-2 682 Z M431 682 L431 664 C478 664 485 656 485 599 L485 370 C485 313 480 307 431 305 L431 288 L568 288 L568 305 C523 305 512 318 512 353 L512 614 L514 614 L668 288 L680 288 L831 614 L833 614 L833 370 C833 314 826 305 780 305 L780 288 L1005 288 L1005 305 C969 307 955 317 955 357 L955 599 C955 655 963 664 1005 663 L1005 682 L833 682 L724 440 L611 682 L431 682 Z " />
<glyph glyph-name="minus" unicode="&#x2212;" horiz-adv-x="667" d="M64 384 L64 296 L603 296 L603 384 L64 384 Z " />
<glyph glyph-name="fi" unicode="&#xfb01;" horiz-adv-x="490" d="M436 472 C414 466 367 461 311 461 L200 461 L200 569 C200 644 223 665 273 665 C307 665 327 654 327 635 C327 619 306 608 306 584 C306 561 329 543 360 543 C397 543 422 568 422 606 C422 662 365 698 271 698 C166 698 78 644 78 531 L78 461 L19 461 L19 418 L78 418 L78 78 C78 21 73 18 34 18 L34 0 L239 0 L239 18 C206 18 200 21 200 78 L200 418 L314 418 L314 78 C314 21 308 18 271 18 L271 0 L478 0 L478 18 C441 17 436 22 436 78 L436 472 Z " />
<glyph glyph-name="fl" unicode="&#xfb02;" horiz-adv-x="490" d="M436 682 L327 682 C306 693 283 698 256 698 C180 698 77 656 77 534 L77 461 L18 461 L18 418 L77 418 L77 81 C77 24 75 15 23 18 L23 0 L242 0 L242 18 C204 18 199 22 199 78 L199 418 L314 418 L314 78 C314 21 308 18 272 18 L272 0 L477 0 L477 18 C442 17 436 22 436 78 L436 682 Z M314 461 L199 461 L199 523 C199 562 200 601 202 615 C207 653 226 670 265 670 C297 670 321 657 321 638 C321 624 298 610 298 591 C298 580 302 574 314 568 L314 461 Z " />
</font>
</svg>
